<?xml version="1.0" encoding="utf-8"?>
<!-- Generator: Adobe Illustrator 27.3.1, SVG Export Plug-In . SVG Version: 6.00 Build 0)  -->
<svg version="1.1" id="Layer_1" xmlns="http://www.w3.org/2000/svg" xmlns:xlink="http://www.w3.org/1999/xlink" x="0px" y="0px"
	 viewBox="0 0 450 450" style="enable-background:new 0 0 450 450;" xml:space="preserve">
<style type="text/css">
	.st0{opacity:0.3;fill:#CFC4B8;}
	.st1{enable-background:new    ;}
	.st2{fill:#E4E3EE;}
	.st3{fill:#B7B6E3;}
	.st4{fill:#919DD6;}
	.st5{fill:#12B0F3;}
	.st6{fill:#1393F2;}
	.st7{fill:#05D4F5;}
	.st8{fill:#D4D5F0;}
	.st9{fill:#C4C3EC;}
	.st10{fill:#FFFFFF;}
	.st11{fill:#EEEFF2;}
	.st12{clip-path:url(#SVGID_00000084527888751557283010000003914424450673655455_);enable-background:new    ;}
	.st13{clip-path:url(#SVGID_00000026161818867814201590000010887857807467779769_);enable-background:new    ;}
	.st14{clip-path:url(#SVGID_00000085957575818635207990000003848741592843736211_);enable-background:new    ;}
	.st15{clip-path:url(#SVGID_00000042702177435549192230000007680070007393807757_);enable-background:new    ;}
	.st16{clip-path:url(#SVGID_00000162340271640609595160000013159205272819166633_);enable-background:new    ;}
	.st17{fill:#DAD9E8;}
	.st18{clip-path:url(#SVGID_00000062914659554598585930000005781725286433940639_);enable-background:new    ;}
	.st19{fill:#EBEBF1;}
	.st20{clip-path:url(#SVGID_00000069356978734462471710000009148686164429913995_);enable-background:new    ;}
	.st21{clip-path:url(#SVGID_00000009548471819208225600000006499571187914143655_);enable-background:new    ;}
	.st22{clip-path:url(#SVGID_00000036945190623343874580000001786948539608892863_);enable-background:new    ;}
	.st23{clip-path:url(#SVGID_00000049221416990026138680000012877419663145572279_);enable-background:new    ;}
	.st24{fill:#171C29;}
	.st25{fill:#042F8F;}
	.st26{clip-path:url(#SVGID_00000047770555443398265950000002509711396981230523_);enable-background:new    ;}
	.st27{clip-path:url(#SVGID_00000168113137010128175320000015045068530055059616_);enable-background:new    ;}
	.st28{clip-path:url(#SVGID_00000007398213611450092270000007014934233211401099_);enable-background:new    ;}
	.st29{clip-path:url(#SVGID_00000133518556975641203670000010671063693514457790_);enable-background:new    ;}
	.st30{clip-path:url(#SVGID_00000158014893373063843750000018044976137446896047_);enable-background:new    ;}
	.st31{clip-path:url(#SVGID_00000173146803107991839600000014356860384785671591_);enable-background:new    ;}
</style>
<g>
	<g>
		<polygon class="st0" points="233.38,343.98 256.46,343.98 345.03,292.77 267.28,246.91 211.71,277.42 		"/>
		<g>
			<g>
				<g class="st1">
					<g>
						<polygon class="st2" points="148.73,273.15 152.86,270.75 158.45,273.98 154.33,276.38 						"/>
					</g>
					<g>
						<polygon class="st3" points="159.3,271.35 163.43,268.96 159.21,275.85 155.08,278.25 						"/>
					</g>
					<g>
						<polygon class="st4" points="169.07,275.56 173.2,273.16 173.19,274.59 169.06,276.99 						"/>
					</g>
					<g>
						<polygon class="st2" points="158.55,269.49 162.68,267.09 173.2,273.16 169.07,275.56 						"/>
					</g>
					<g>
						<polygon class="st4" points="169.07,275.56 169.06,276.99 159.3,271.35 155.08,278.25 148.73,274.58 148.73,273.15 
							154.33,276.38 158.55,269.49 						"/>
					</g>
				</g>
			</g>
			<g>
				<g class="st1">
					<g>
						<polygon class="st2" points="164.06,264.42 168.19,262.02 173.78,265.25 169.66,267.65 						"/>
					</g>
					<g>
						<polygon class="st3" points="174.63,262.62 178.76,260.22 174.54,267.12 170.41,269.52 						"/>
					</g>
					<g>
						<polygon class="st4" points="184.4,266.83 188.53,264.43 188.52,265.86 184.39,268.26 						"/>
					</g>
					<g>
						<polygon class="st2" points="173.88,260.75 178.01,258.36 188.53,264.43 184.4,266.83 						"/>
					</g>
					<g>
						<polygon class="st4" points="184.4,266.83 184.39,268.26 174.63,262.62 170.41,269.52 164.06,265.85 164.06,264.42 
							169.66,267.65 173.88,260.75 						"/>
					</g>
				</g>
			</g>
			<g>
				<g class="st1">
					<g>
						<polygon class="st2" points="178.74,255.67 182.87,253.28 188.46,256.51 184.34,258.91 						"/>
					</g>
					<g>
						<polygon class="st3" points="189.32,253.88 193.44,251.48 189.22,258.38 185.09,260.78 						"/>
					</g>
					<g>
						<polygon class="st4" points="199.08,258.08 203.21,255.68 203.2,257.11 199.08,259.51 						"/>
					</g>
					<g>
						<polygon class="st2" points="188.56,252.01 192.69,249.61 203.21,255.68 199.08,258.08 						"/>
					</g>
					<g>
						<polygon class="st4" points="199.08,258.08 199.08,259.51 189.32,253.88 185.09,260.78 178.74,257.11 178.74,255.67 
							184.34,258.91 188.56,252.01 						"/>
					</g>
				</g>
			</g>
			<g>
				<g class="st1">
					<g>
						<polygon class="st2" points="133.57,282.65 137.7,280.25 143.3,283.48 139.17,285.88 						"/>
					</g>
					<g>
						<polygon class="st3" points="144.15,280.85 148.28,278.45 144.05,285.35 139.93,287.75 						"/>
					</g>
					<g>
						<polygon class="st4" points="153.91,285.06 158.04,282.66 158.04,284.09 153.91,286.49 						"/>
					</g>
					<g>
						<polygon class="st2" points="143.39,278.98 147.52,276.58 158.04,282.66 153.91,285.06 						"/>
					</g>
					<g>
						<polygon class="st4" points="153.91,285.06 153.91,286.49 144.15,280.85 139.93,287.75 133.57,284.08 133.57,282.65 
							139.17,285.88 143.39,278.98 						"/>
					</g>
				</g>
			</g>
			<g>
				<g class="st1">
					<g>
						<polygon class="st2" points="195.06,246.45 199.19,244.05 204.79,247.29 200.66,249.68 						"/>
					</g>
					<g>
						<polygon class="st3" points="205.64,244.66 209.76,242.26 205.54,249.16 201.41,251.55 						"/>
					</g>
					<g>
						<polygon class="st4" points="215.4,248.86 219.53,246.46 219.52,247.89 215.4,250.29 						"/>
					</g>
					<g>
						<polygon class="st2" points="204.88,242.79 209.01,240.39 219.53,246.46 215.4,248.86 						"/>
					</g>
					<g>
						<polygon class="st4" points="215.4,248.86 215.4,250.29 205.64,244.66 201.41,251.55 195.06,247.89 195.06,246.45 
							200.66,249.68 204.88,242.79 						"/>
					</g>
				</g>
			</g>
			<g>
				<g class="st1">
					<g>
						<polygon class="st2" points="210.75,237.55 214.87,235.15 220.47,238.38 216.34,240.78 						"/>
					</g>
					<g>
						<polygon class="st3" points="221.32,235.75 225.45,233.35 221.23,240.25 217.1,242.65 						"/>
					</g>
					<g>
						<polygon class="st4" points="231.09,239.95 235.21,237.56 235.21,238.99 231.08,241.38 						"/>
					</g>
					<g>
						<polygon class="st2" points="220.57,233.88 224.69,231.48 235.21,237.56 231.09,239.95 						"/>
					</g>
					<g>
						<polygon class="st4" points="231.09,239.95 231.08,241.38 221.32,235.75 217.1,242.65 210.74,238.98 210.75,237.55 
							216.34,240.78 220.57,233.88 						"/>
					</g>
				</g>
			</g>
		</g>
		<g>
			<g>
				<g class="st1">
					<g>
						<polygon class="st2" points="316.74,273.37 312.61,270.97 307.01,274.2 311.14,276.6 						"/>
					</g>
					<g>
						<polygon class="st3" points="306.16,271.57 302.04,269.17 306.26,276.07 310.39,278.47 						"/>
					</g>
					<g>
						<polygon class="st4" points="296.4,275.77 292.27,273.37 292.28,274.8 296.4,277.2 						"/>
					</g>
					<g>
						<polygon class="st2" points="306.92,269.7 302.79,267.3 292.27,273.37 296.4,275.77 						"/>
					</g>
					<g>
						<polygon class="st4" points="296.4,275.77 296.4,277.2 306.16,271.57 310.39,278.47 316.74,274.8 316.74,273.37 311.14,276.6 
							306.92,269.7 						"/>
					</g>
				</g>
			</g>
			<g>
				<g class="st1">
					<g>
						<polygon class="st2" points="301.41,264.63 297.28,262.24 291.68,265.47 295.81,267.87 						"/>
					</g>
					<g>
						<polygon class="st3" points="290.83,262.84 286.71,260.44 290.93,267.34 295.06,269.74 						"/>
					</g>
					<g>
						<polygon class="st4" points="281.07,267.04 276.94,264.64 276.95,266.07 281.07,268.47 						"/>
					</g>
					<g>
						<polygon class="st2" points="291.59,260.97 287.46,258.57 276.94,264.64 281.07,267.04 						"/>
					</g>
					<g>
						<polygon class="st4" points="281.07,267.04 281.07,268.47 290.83,262.84 295.06,269.74 301.41,266.07 301.41,264.63 
							295.81,267.87 291.59,260.97 						"/>
					</g>
				</g>
			</g>
			<g>
				<g class="st1">
					<g>
						<polygon class="st2" points="286.73,255.89 282.6,253.49 277,256.72 281.13,259.12 						"/>
					</g>
					<g>
						<polygon class="st3" points="276.15,254.09 272.02,251.69 276.25,258.59 280.38,260.99 						"/>
					</g>
					<g>
						<polygon class="st4" points="266.39,258.3 262.26,255.9 262.26,257.33 266.39,259.73 						"/>
					</g>
					<g>
						<polygon class="st2" points="276.91,252.22 272.78,249.82 262.26,255.9 266.39,258.3 						"/>
					</g>
					<g>
						<polygon class="st4" points="266.39,258.3 266.39,259.73 276.15,254.09 280.38,260.99 286.73,257.32 286.73,255.89 
							281.13,259.12 276.91,252.22 						"/>
					</g>
				</g>
			</g>
			<g>
				<g class="st1">
					<g>
						<polygon class="st2" points="331.89,282.86 327.77,280.46 322.17,283.7 326.3,286.09 						"/>
					</g>
					<g>
						<polygon class="st3" points="321.32,281.07 317.19,278.67 321.41,285.57 325.54,287.96 						"/>
					</g>
					<g>
						<polygon class="st4" points="311.55,285.27 307.43,282.87 307.43,284.3 311.56,286.7 						"/>
					</g>
					<g>
						<polygon class="st2" points="322.07,279.2 317.95,276.8 307.43,282.87 311.55,285.27 						"/>
					</g>
					<g>
						<polygon class="st4" points="311.55,285.27 311.56,286.7 321.32,281.07 325.54,287.96 331.9,284.3 331.89,282.86 
							326.3,286.09 322.07,279.2 						"/>
					</g>
				</g>
			</g>
			<g>
				<g class="st1">
					<g>
						<polygon class="st2" points="270.41,246.67 266.28,244.27 260.68,247.5 264.81,249.9 						"/>
					</g>
					<g>
						<polygon class="st3" points="259.83,244.87 255.7,242.47 259.93,249.37 264.05,251.77 						"/>
					</g>
					<g>
						<polygon class="st4" points="250.07,249.07 245.94,246.67 245.94,248.11 250.07,250.5 						"/>
					</g>
					<g>
						<polygon class="st2" points="260.59,243 256.46,240.6 245.94,246.67 250.07,249.07 						"/>
					</g>
					<g>
						<polygon class="st4" points="250.07,249.07 250.07,250.5 259.83,244.87 264.05,251.77 270.41,248.1 270.41,246.67 
							264.81,249.9 260.59,243 						"/>
					</g>
				</g>
			</g>
			<g>
				<g class="st1">
					<g>
						<polygon class="st2" points="254.72,237.76 250.59,235.36 245,238.59 249.12,240.99 						"/>
					</g>
					<g>
						<polygon class="st3" points="244.15,235.96 240.02,233.57 244.24,240.46 248.37,242.86 						"/>
					</g>
					<g>
						<polygon class="st4" points="234.38,240.17 230.25,237.77 230.26,239.2 234.39,241.6 						"/>
					</g>
					<g>
						<polygon class="st2" points="244.9,234.09 240.77,231.7 230.25,237.77 234.38,240.17 						"/>
					</g>
					<g>
						<polygon class="st4" points="234.38,240.17 234.39,241.6 244.15,235.96 248.37,242.86 254.73,239.19 254.72,237.76 
							249.12,240.99 244.9,234.09 						"/>
					</g>
				</g>
			</g>
		</g>
		<g>
			<g class="st1">
				<g>
					<polygon class="st5" points="321.87,282.69 321.84,292.58 233.39,343.98 233.42,334.09 					"/>
				</g>
				<g>
					<polygon class="st6" points="233.42,334.09 233.39,343.98 144.36,292.58 144.38,282.69 					"/>
				</g>
				<g>
					<polygon class="st7" points="321.87,282.69 233.42,334.09 144.38,282.69 232.84,231.29 					"/>
				</g>
			</g>
		</g>
		<g>
			<g>
				<polygon class="st8" points="300.67,280.19 300.65,285.13 233.32,324.25 233.34,319.31 				"/>
			</g>
			<g>
				<polygon class="st9" points="233.34,319.31 233.32,324.25 165.56,285.13 165.57,280.19 				"/>
			</g>
			<g>
				<polygon class="st10" points="300.67,280.19 233.34,319.31 165.57,280.19 232.9,241.06 				"/>
			</g>
		</g>
		<g>
			<g>
				<g class="st1">
					<g>
						<polygon class="st9" points="137.12,308.19 132.99,305.79 137.16,294.04 141.29,296.44 						"/>
					</g>
					<g>
						<polygon class="st2" points="141.29,296.44 137.16,294.04 147.68,287.97 151.81,290.37 						"/>
					</g>
					<g>
						<polygon class="st2" points="131.52,311.42 127.4,309.02 132.99,305.79 137.12,308.19 						"/>
					</g>
					<g>
						<polygon class="st3" points="131.53,312.85 127.4,310.45 127.4,309.02 131.52,311.42 						"/>
					</g>
					<g>
						<polygon class="st4" points="151.81,290.37 151.82,291.8 142.05,297.44 137.89,309.18 131.53,312.85 131.52,311.42 
							137.12,308.19 141.29,296.44 						"/>
					</g>
				</g>
			</g>
			<g>
				<g class="st1">
					<g>
						<polygon class="st9" points="152.64,317.07 148.51,314.67 152.68,302.93 156.81,305.32 						"/>
					</g>
					<g>
						<polygon class="st2" points="156.81,305.32 152.68,302.93 163.2,296.85 167.33,299.25 						"/>
					</g>
					<g>
						<polygon class="st2" points="147.04,320.3 142.91,317.9 148.51,314.67 152.64,317.07 						"/>
					</g>
					<g>
						<polygon class="st3" points="147.05,321.73 142.92,319.33 142.91,317.9 147.04,320.3 						"/>
					</g>
					<g>
						<polygon class="st4" points="167.33,299.25 167.33,300.68 157.57,306.32 153.4,318.06 147.05,321.73 147.04,320.3 
							152.64,317.07 156.81,305.32 						"/>
					</g>
				</g>
			</g>
			<g>
				<g class="st1">
					<g>
						<polygon class="st9" points="168.03,326.04 163.91,323.64 168.08,311.9 172.2,314.3 						"/>
					</g>
					<g>
						<polygon class="st2" points="172.2,314.3 168.08,311.9 178.6,305.83 182.72,308.22 						"/>
					</g>
					<g>
						<polygon class="st2" points="162.44,329.27 158.31,326.88 163.91,323.64 168.03,326.04 						"/>
					</g>
					<g>
						<polygon class="st3" points="162.44,330.71 158.31,328.31 158.31,326.88 162.44,329.27 						"/>
					</g>
					<g>
						<polygon class="st4" points="182.72,308.22 182.73,309.66 172.97,315.29 168.8,327.04 162.44,330.71 162.44,329.27 
							168.03,326.04 172.2,314.3 						"/>
					</g>
				</g>
			</g>
			<g>
				<g class="st1">
					<g>
						<polygon class="st9" points="183.42,334.95 179.3,332.55 183.47,320.81 187.59,323.21 						"/>
					</g>
					<g>
						<polygon class="st2" points="187.59,323.21 183.47,320.81 193.99,314.73 198.11,317.13 						"/>
					</g>
					<g>
						<polygon class="st2" points="177.82,338.18 173.7,335.78 179.3,332.55 183.42,334.95 						"/>
					</g>
					<g>
						<polygon class="st3" points="177.83,339.62 173.7,337.22 173.7,335.78 177.82,338.18 						"/>
					</g>
					<g>
						<polygon class="st4" points="198.11,317.13 198.12,318.56 188.36,324.2 184.19,335.95 177.83,339.62 177.82,338.18 
							183.42,334.95 187.59,323.21 						"/>
					</g>
				</g>
			</g>
			<g>
				<g class="st1">
					<g>
						<polygon class="st9" points="199.01,343.8 194.88,341.4 199.05,329.66 203.18,332.05 						"/>
					</g>
					<g>
						<polygon class="st2" points="203.18,332.05 199.05,329.66 209.57,323.58 213.7,325.98 						"/>
					</g>
					<g>
						<polygon class="st2" points="193.41,347.03 189.28,344.63 194.88,341.4 199.01,343.8 						"/>
					</g>
					<g>
						<polygon class="st3" points="193.41,348.46 189.29,346.06 189.28,344.63 193.41,347.03 						"/>
					</g>
					<g>
						<polygon class="st4" points="213.7,325.98 213.7,327.41 203.94,333.05 199.77,344.79 193.41,348.46 193.41,347.03 
							199.01,343.8 203.18,332.05 						"/>
					</g>
				</g>
			</g>
			<g>
				<g class="st1">
					<g>
						<polygon class="st9" points="214.29,352.72 210.17,350.32 214.34,338.58 218.46,340.98 						"/>
					</g>
					<g>
						<polygon class="st2" points="218.46,340.98 214.34,338.58 224.86,332.51 228.98,334.9 						"/>
					</g>
					<g>
						<polygon class="st2" points="208.69,355.95 204.57,353.56 210.17,350.32 214.29,352.72 						"/>
					</g>
					<g>
						<polygon class="st3" points="208.7,357.39 204.57,354.99 204.57,353.56 208.69,355.95 						"/>
					</g>
					<g>
						<polygon class="st4" points="228.98,334.9 228.99,336.34 219.22,341.97 215.06,353.72 208.7,357.39 208.69,355.95 
							214.29,352.72 218.46,340.98 						"/>
					</g>
				</g>
			</g>
		</g>
		<g>
			<g>
				<g class="st1">
					<g>
						<polygon class="st9" points="329.44,308.35 333.56,305.95 329.39,294.21 325.27,296.61 						"/>
					</g>
					<g>
						<polygon class="st2" points="325.27,296.61 329.39,294.21 318.87,288.13 314.75,290.53 						"/>
					</g>
					<g>
						<polygon class="st2" points="335.03,311.58 339.16,309.18 333.56,305.95 329.44,308.35 						"/>
					</g>
					<g>
						<polygon class="st3" points="335.03,313.01 339.16,310.61 339.16,309.18 335.03,311.58 						"/>
					</g>
					<g>
						<polygon class="st4" points="314.75,290.53 314.74,291.96 324.5,297.6 328.67,309.34 335.03,313.01 335.03,311.58 
							329.44,308.35 325.27,296.61 						"/>
					</g>
				</g>
			</g>
			<g>
				<g class="st1">
					<g>
						<polygon class="st9" points="313.92,317.23 318.04,314.83 313.87,303.09 309.75,305.49 						"/>
					</g>
					<g>
						<polygon class="st2" points="309.75,305.49 313.87,303.09 303.36,297.01 299.23,299.41 						"/>
					</g>
					<g>
						<polygon class="st2" points="319.52,320.46 323.64,318.06 318.04,314.83 313.92,317.23 						"/>
					</g>
					<g>
						<polygon class="st3" points="319.51,321.89 323.64,319.5 323.64,318.06 319.52,320.46 						"/>
					</g>
					<g>
						<polygon class="st4" points="299.23,299.41 299.22,300.84 308.99,306.48 313.15,318.22 319.51,321.89 319.52,320.46 
							313.92,317.23 309.75,305.49 						"/>
					</g>
				</g>
			</g>
			<g>
				<g class="st1">
					<g>
						<polygon class="st9" points="298.52,326.2 302.65,323.8 298.48,312.06 294.35,314.46 						"/>
					</g>
					<g>
						<polygon class="st2" points="294.35,314.46 298.48,312.06 287.96,305.99 283.83,308.39 						"/>
					</g>
					<g>
						<polygon class="st2" points="304.12,329.44 308.25,327.04 302.65,323.8 298.52,326.2 						"/>
					</g>
					<g>
						<polygon class="st3" points="304.12,330.87 308.25,328.47 308.25,327.04 304.12,329.44 						"/>
					</g>
					<g>
						<polygon class="st4" points="283.83,308.39 283.83,309.82 293.59,315.45 297.76,327.2 304.12,330.87 304.12,329.44 
							298.52,326.2 294.35,314.46 						"/>
					</g>
				</g>
			</g>
			<g>
				<g class="st1">
					<g>
						<polygon class="st9" points="283.13,335.11 287.26,332.71 283.09,320.97 278.96,323.37 						"/>
					</g>
					<g>
						<polygon class="st2" points="278.96,323.37 283.09,320.97 272.57,314.9 268.44,317.3 						"/>
					</g>
					<g>
						<polygon class="st2" points="288.73,338.35 292.86,335.95 287.26,332.71 283.13,335.11 						"/>
					</g>
					<g>
						<polygon class="st3" points="288.73,339.78 292.86,337.38 292.86,335.95 288.73,338.35 						"/>
					</g>
					<g>
						<polygon class="st4" points="268.44,317.3 268.44,318.73 278.2,324.36 282.37,336.11 288.73,339.78 288.73,338.35 
							283.13,335.11 278.96,323.37 						"/>
					</g>
				</g>
			</g>
			<g>
				<g class="st1">
					<g>
						<polygon class="st9" points="267.55,343.96 271.68,341.56 267.51,329.82 263.38,332.22 						"/>
					</g>
					<g>
						<polygon class="st2" points="263.38,332.22 267.51,329.82 256.99,323.74 252.86,326.14 						"/>
					</g>
					<g>
						<polygon class="st2" points="273.15,347.19 277.28,344.79 271.68,341.56 267.55,343.96 						"/>
					</g>
					<g>
						<polygon class="st3" points="273.14,348.63 277.27,346.23 277.28,344.79 273.15,347.19 						"/>
					</g>
					<g>
						<polygon class="st4" points="252.86,326.14 252.86,327.57 262.62,333.21 266.79,344.95 273.14,348.63 273.15,347.19 
							267.55,343.96 263.38,332.22 						"/>
					</g>
				</g>
			</g>
			<g>
				<g class="st1">
					<g>
						<polygon class="st9" points="252.26,352.88 256.39,350.49 252.22,338.74 248.09,341.14 						"/>
					</g>
					<g>
						<polygon class="st2" points="248.09,341.14 252.22,338.74 241.7,332.67 237.57,335.07 						"/>
					</g>
					<g>
						<polygon class="st2" points="257.86,356.12 261.99,353.72 256.39,350.49 252.26,352.88 						"/>
					</g>
					<g>
						<polygon class="st3" points="257.86,357.55 261.99,355.15 261.99,353.72 257.86,356.12 						"/>
					</g>
					<g>
						<polygon class="st4" points="237.57,335.07 237.57,336.5 247.33,342.13 251.5,353.88 257.86,357.55 257.86,356.12 
							252.26,352.88 248.09,341.14 						"/>
					</g>
				</g>
			</g>
		</g>
		<g>
			<g>
				<polygon class="st8" points="188.95,280.18 192.25,282.1 232.97,305.61 232.97,254.6 				"/>
				<polygon class="st9" points="232.97,254.6 232.97,305.61 233.26,305.77 273.98,282.11 277.29,280.18 				"/>
			</g>
			<polygon class="st7" points="273.98,282.11 233.26,305.77 192.25,282.1 232.97,258.43 			"/>
		</g>
		<polygon class="st7" points="273.98,282.11 233.26,305.77 192.25,282.1 232.97,258.43 		"/>
		<g>
			<g class="st1">
				<g>
					<polygon class="st8" points="255.13,278.58 255.12,281.05 250.29,283.86 250.3,281.39 					"/>
				</g>
				<g>
					<polygon class="st9" points="250.3,281.39 250.29,283.86 228.69,271.39 228.7,268.91 					"/>
				</g>
				<g>
					<polygon class="st11" points="255.13,278.58 250.3,281.39 228.7,268.91 233.53,266.11 					"/>
				</g>
			</g>
			<g class="st1">
				<g class="st1">
					<defs>
						<path id="SVGID_1_" class="st1" d="M231.09,282.65l-0.01,2.47c-1.27-0.35-2.48-0.68-3.64-0.99c-1.16-0.31-2.23-0.59-3.22-0.84
							c-0.99-0.25-1.85-0.47-2.6-0.66c-0.75-0.19-1.34-0.34-1.78-0.44l0.01-2.47c0.44,0.1,1.03,0.25,1.78,0.44
							c0.75,0.19,1.62,0.41,2.6,0.66c0.99,0.25,2.06,0.53,3.22,0.84C228.61,281.97,229.82,282.3,231.09,282.65z"/>
					</defs>
					<use xlink:href="#SVGID_1_"  style="overflow:visible;fill:#1393F2;"/>
					<clipPath id="SVGID_00000063621314437083067510000010683677413705820072_">
						<use xlink:href="#SVGID_1_"  style="overflow:visible;"/>
					</clipPath>
					<g style="clip-path:url(#SVGID_00000063621314437083067510000010683677413705820072_);enable-background:new    ;">
						<path class="st9" d="M231.09,282.65l-0.01,2.47c-1.27-0.35-2.48-0.68-3.64-0.99c-1.16-0.31-2.23-0.59-3.22-0.84
							c-0.99-0.25-1.85-0.47-2.6-0.66c-0.75-0.19-1.34-0.34-1.78-0.44l0.01-2.47c0.44,0.1,1.03,0.25,1.78,0.44
							c0.75,0.19,1.62,0.41,2.6,0.66c0.99,0.25,2.06,0.53,3.22,0.84C228.61,281.97,229.82,282.3,231.09,282.65z"/>
					</g>
				</g>
				<g class="st1">
					<defs>
						<path id="SVGID_00000181771588932540641280000014566839279498331314_" class="st1" d="M239.29,285.11l-0.01,2.47
							c-1.07-0.3-2.13-0.59-3.18-0.89l0.01-2.47C237.16,284.52,238.22,284.81,239.29,285.11z"/>
					</defs>
					<use xlink:href="#SVGID_00000181771588932540641280000014566839279498331314_"  style="overflow:visible;fill:#1393F2;"/>
					<clipPath id="SVGID_00000079460882408790764300000015817783685493267645_">
						<use xlink:href="#SVGID_00000181771588932540641280000014566839279498331314_"  style="overflow:visible;"/>
					</clipPath>
					<g style="clip-path:url(#SVGID_00000079460882408790764300000015817783685493267645_);enable-background:new    ;">
						<path class="st9" d="M239.29,285.11l-0.01,2.47c-1.07-0.3-2.13-0.59-3.18-0.89l0.01-2.47
							C237.16,284.52,238.22,284.81,239.29,285.11z"/>
					</g>
				</g>
				<g class="st1">
					<defs>
						<path id="SVGID_00000109732688172779389020000009514163776115509139_" class="st1" d="M242.37,286l-0.01,2.47
							c-0.99-0.29-2.02-0.59-3.08-0.89l0.01-2.47C240.35,285.41,241.38,285.7,242.37,286z"/>
					</defs>
					<use xlink:href="#SVGID_00000109732688172779389020000009514163776115509139_"  style="overflow:visible;fill:#1393F2;"/>
					<clipPath id="SVGID_00000144321671804439253580000010548077212840417690_">
						<use xlink:href="#SVGID_00000109732688172779389020000009514163776115509139_"  style="overflow:visible;"/>
					</clipPath>
					<g style="clip-path:url(#SVGID_00000144321671804439253580000010548077212840417690_);enable-background:new    ;">
						<path class="st9" d="M242.37,286l-0.01,2.47c-0.99-0.29-2.02-0.59-3.08-0.89l0.01-2.47C240.35,285.41,241.38,285.7,242.37,286
							z"/>
					</g>
				</g>
				<g>
					<polygon class="st8" points="247.54,282.99 247.54,285.46 242.36,288.47 242.37,286 					"/>
				</g>
				<g>
					<polygon class="st8" points="236.1,284.22 236.1,286.69 227.71,291.56 227.72,289.09 					"/>
				</g>
				<g class="st1">
					<defs>
						<path id="SVGID_00000113344003807863009070000017710452720141695626_" class="st1" d="M225.8,295.62l-0.01,2.47
							c-1.52-1.81-2.9-3.5-4.15-5.06c-1.25-1.56-2.4-3.05-3.45-4.46c-1.05-1.41-2.03-2.77-2.92-4.06c-0.89-1.3-1.73-2.59-2.5-3.87
							l0.01-2.47c0.77,1.28,1.61,2.58,2.5,3.87c0.9,1.3,1.87,2.65,2.92,4.06c1.05,1.41,2.2,2.9,3.45,4.46
							C222.9,292.12,224.28,293.81,225.8,295.62z"/>
					</defs>
					<use xlink:href="#SVGID_00000113344003807863009070000017710452720141695626_"  style="overflow:visible;fill:#1393F2;"/>
					<clipPath id="SVGID_00000142855752441113460120000017637027349616510393_">
						<use xlink:href="#SVGID_00000113344003807863009070000017710452720141695626_"  style="overflow:visible;"/>
					</clipPath>
					<g style="clip-path:url(#SVGID_00000142855752441113460120000017637027349616510393_);enable-background:new    ;">
						<path class="st9" d="M225.8,295.62l-0.01,2.47c-1.52-1.81-2.9-3.5-4.15-5.06c-1.25-1.56-2.4-3.05-3.45-4.46
							c-1.05-1.41-2.03-2.77-2.92-4.06c-0.89-1.3-1.73-2.59-2.5-3.87l0.01-2.47c0.77,1.28,1.61,2.58,2.5,3.87
							c0.9,1.3,1.87,2.65,2.92,4.06c1.05,1.41,2.2,2.9,3.45,4.46C222.9,292.12,224.28,293.81,225.8,295.62z"/>
					</g>
				</g>
				<g>
					<polygon class="st8" points="230.82,292.71 230.81,295.18 225.79,298.1 225.8,295.62 					"/>
				</g>
				<g>
					<path class="st11" d="M239.29,285.11c-1.07-0.3-2.13-0.59-3.18-0.89l-8.38,4.87c0.52,0.61,1.03,1.23,1.55,1.84
						c0.52,0.62,1.04,1.21,1.55,1.77l-5.02,2.92c-1.52-1.81-2.9-3.5-4.15-5.06c-1.25-1.56-2.4-3.05-3.45-4.46
						c-1.05-1.41-2.03-2.77-2.92-4.06c-0.89-1.3-1.73-2.59-2.5-3.87l4.58-2.66c2.2,0.45,4.43,0.94,6.68,1.44
						c2.25,0.51,4.6,1.06,7.04,1.67c2.44,0.6,5.01,1.27,7.71,1.98c2.7,0.72,5.62,1.51,8.75,2.39l-5.17,3.01
						C241.38,285.7,240.35,285.41,239.29,285.11z M224.95,286.22l6.14-3.57c-1.27-0.35-2.48-0.68-3.64-0.99
						c-1.16-0.31-2.23-0.59-3.22-0.84c-0.99-0.25-1.85-0.47-2.6-0.66c-0.75-0.19-1.34-0.34-1.78-0.44c0.21,0.24,0.48,0.58,0.81,1.01
						c0.33,0.43,0.72,0.93,1.16,1.49c0.44,0.56,0.93,1.19,1.45,1.87C223.8,284.78,224.36,285.49,224.95,286.22z"/>
				</g>
			</g>
		</g>
		<g>
			<g>
				<path class="st7" d="M233.6,383.02l-146.35-84.5l145.41-84.5l146.35,84.5L233.6,383.02z M91.13,298.52l142.46,82.25
					l141.53-82.25l-142.46-82.25L91.13,298.52z"/>
			</g>
		</g>
		<g>
			<g>
				<g>
					<path class="st7" d="M109.94,310.5l-10.82,6.25c-0.16,0.09-0.36,0.09-0.51,0l-11.1-6.41l-36.02,20.8l-3.36,1.94
						c-0.08,0.05-0.17,0.07-0.26,0.07c-0.18,0-0.35-0.09-0.44-0.26c-0.14-0.24-0.06-0.56,0.19-0.7l2.83-1.63l36.8-21.25
						c0.16-0.09,0.35-0.09,0.51,0l11.1,6.41l10.05-5.8L109.94,310.5z"/>
				</g>
				<g>
					<path class="st7" d="M197.2,359.9l-1.71,0.98l-9.85,5.69c-0.16,0.09-0.35,0.09-0.51,0l-11.09-6.41l-14.01,8.09l-1.03,0.59
						l-21.28,12.29l-3.07,1.77c-0.08,0.05-0.17,0.07-0.26,0.07c-0.18,0-0.35-0.09-0.44-0.26c-0.14-0.25-0.06-0.56,0.19-0.7
						l2.73-1.58l21.1-12.18l1.03-0.59l14.78-8.53c0.16-0.09,0.35-0.09,0.51,0l11.09,6.41l9.08-5.24l1.71-0.99L197.2,359.9z"/>
				</g>
				<g>
					<path class="st7" d="M163.53,340.45l-1.71,0.99l-9.57,5.53c-0.16,0.09-0.35,0.09-0.51,0l-11.09-6.41l-14.28,8.24l-1.03,0.59
						l-20.45,11.81l-3.62,2.09c-0.08,0.04-0.17,0.07-0.26,0.07c-0.18,0-0.35-0.09-0.44-0.26c-0.14-0.25-0.06-0.56,0.19-0.7
						l3.31-1.91l20.25-11.69l1.03-0.59l15.05-8.69c0.16-0.09,0.35-0.09,0.51,0l11.09,6.41l8.8-5.08l1.71-0.99L163.53,340.45z"/>
				</g>
				<g>
					<path class="st7" d="M136.66,324.94l-1.71,0.99l-36.19,20.89l-2.72,1.57c-0.08,0.05-0.17,0.07-0.26,0.07
						c-0.18,0-0.35-0.09-0.44-0.26c-0.14-0.24-0.06-0.56,0.19-0.7l2.26-1.31l36.14-20.87l1.71-0.99L136.66,324.94z"/>
				</g>
				<g>
					<path class="st7" d="M209.58,367.05l-1.71,0.98l-35.69,20.61l-2.76,1.59c-0.08,0.04-0.17,0.07-0.26,0.07
						c-0.18,0-0.35-0.09-0.44-0.26c-0.14-0.25-0.06-0.56,0.19-0.7l2.24-1.29l35.7-20.62l1.71-0.99L209.58,367.05z"/>
				</g>
				<g>
					<path class="st7" d="M175.05,347.1l-1.71,0.99l-24.11,13.92l-1.03,0.59l-10.93,6.31c0,0,0,0,0,0l-2.86,1.65
						c-0.08,0.05-0.17,0.07-0.26,0.07c-0.18,0-0.35-0.09-0.44-0.26c-0.14-0.24-0.06-0.56,0.19-0.7l2.37-1.37l10.92-6.3l1.02-0.59
						l24.11-13.92l1.71-0.99L175.05,347.1z"/>
				</g>
				<g>
					<polygon class="st7" points="174.52,376.61 161,384.42 157.22,386.6 156.71,385.71 160.11,383.75 172.47,376.61 159.01,368.84 
						157.98,368.25 148.21,362.6 147.18,362.01 125.33,349.39 124.31,348.8 115.42,343.67 140.38,329.06 142.08,328.07 
						143.1,328.66 141.4,329.65 117.46,343.67 125.33,348.21 126.36,348.8 148.21,361.42 149.23,362.01 159.01,367.65 
						160.03,368.25 					"/>
				</g>
				<g>
					<path class="st7" d="M51.06,330.84c1.53,0.88,1.53,2.31,0,3.19c-1.53,0.88-4,0.88-5.53,0c-1.53-0.88-1.53-2.31,0-3.19
						C47.06,329.96,49.53,329.96,51.06,330.84z"/>
				</g>
				<g>
					<g>
						<path class="st7" d="M118.23,329.31c0,0.18-0.1,0.35-0.26,0.44l-31.01,17.91l-2.84,1.64c-0.08,0.05-0.17,0.07-0.26,0.07
							c-0.18,0-0.35-0.09-0.44-0.26c-0.14-0.24-0.06-0.56,0.19-0.7l2.36-1.36l30.73-17.74l-11.41-6.59
							c-0.16-0.09-0.26-0.26-0.26-0.44c0-0.18,0.1-0.36,0.26-0.44l11.29-6.52l1.71-0.99l1.03,0.59l-1.71,0.99l-11.03,6.37
							l11.41,6.58C118.13,328.95,118.23,329.12,118.23,329.31z"/>
					</g>
					<g>
						<path class="st7" d="M86.43,347.28c1.53,0.88,1.53,2.31,0,3.19c-1.53,0.88-4,0.88-5.53,0c-1.53-0.88-1.53-2.31,0-3.19
							C82.43,346.4,84.91,346.4,86.43,347.28z"/>
					</g>
				</g>
				<g>
					<g>
						<path class="st7" d="M216.27,385.21c0,0.18-0.1,0.35-0.26,0.44l-30.2,17.44l-3.65,2.11c-0.08,0.04-0.17,0.07-0.26,0.07
							c-0.17,0-0.35-0.09-0.44-0.26c-0.14-0.25-0.05-0.56,0.19-0.7l3.18-1.83l29.91-17.27l-11.41-6.59
							c-0.16-0.09-0.26-0.26-0.26-0.44c0-0.18,0.1-0.35,0.26-0.44l10.68-6.17l1.71-0.98l1.02,0.59l-1.71,0.98l-10.42,6.02
							l11.41,6.59C216.17,384.86,216.27,385.03,216.27,385.21z"/>
					</g>
					<g>
						<path class="st7" d="M185.25,402.69c1.53,0.88,1.53,2.31,0,3.19c-1.53,0.88-4,0.88-5.53,0c-1.53-0.88-1.53-2.31,0-3.19
							C181.25,401.81,183.73,401.81,185.25,402.69z"/>
					</g>
				</g>
				<g>
					<path class="st7" d="M98.17,346.4c1.53,0.88,1.53,2.31,0,3.19c-1.53,0.88-4,0.88-5.53,0c-1.53-0.88-1.53-2.31,0-3.19
						C94.17,345.52,96.65,345.52,98.17,346.4z"/>
				</g>
				<g>
					<path class="st7" d="M104.04,360.49c1.53,0.88,1.53,2.31,0,3.19c-1.53,0.88-4,0.88-5.53,0c-1.53-0.88-1.53-2.31,0-3.19
						C100.04,359.61,102.52,359.61,104.04,360.49z"/>
				</g>
				<g>
					<path class="st7" d="M136.78,368.56c1.53,0.88,1.53,2.31,0,3.19c-1.53,0.88-4,0.88-5.53,0c-1.53-0.88-1.53-2.31,0-3.19
						C132.77,367.68,135.25,367.68,136.78,368.56z"/>
				</g>
				<g>
					<path class="st7" d="M136.92,380.45c1.53,0.88,1.53,2.31,0,3.19c-1.53,0.88-4,0.88-5.53,0c-1.53-0.88-1.53-2.31,0-3.19
						C132.92,379.57,135.4,379.57,136.92,380.45z"/>
				</g>
				<g>
					<path class="st7" d="M160.26,383.82c1.53,0.88,1.53,2.31,0,3.19c-1.53,0.88-4,0.88-5.53,0c-1.53-0.88-1.53-2.31,0-3.19
						C156.26,382.94,158.73,382.94,160.26,383.82z"/>
				</g>
				<g>
					<path class="st7" d="M171.75,388.34c1.53,0.88,1.53,2.31,0,3.19c-1.53,0.88-4,0.88-5.53,0c-1.53-0.88-1.53-2.31,0-3.19
						C167.75,387.46,170.23,387.46,171.75,388.34z"/>
				</g>
			</g>
			<g>
				<g>
					<path class="st7" d="M387.07,345.84c-0.1,0.16-0.27,0.26-0.44,0.26c-0.09,0-0.17-0.02-0.26-0.07l-3.12-1.8l-30.73-17.75
						c-0.16-0.09-0.26-0.26-0.26-0.44c0-0.18,0.1-0.35,0.26-0.44l11.41-6.59l-10.24-5.91l-1.71-0.98l1.02-0.59l1.71,0.98l10.5,6.06
						c0.16,0.09,0.26,0.26,0.26,0.44c0,0.18-0.1,0.35-0.26,0.44l-11.41,6.59l30.6,17.67l2.48,1.43
						C387.12,345.28,387.21,345.59,387.07,345.84z"/>
				</g>
				<g>
					<path class="st7" d="M280.9,407.29c-0.1,0.16-0.27,0.26-0.44,0.26c-0.09,0-0.17-0.02-0.26-0.07l-3.02-1.74l-30.83-17.8
						c-0.16-0.09-0.26-0.26-0.26-0.44c0-0.18,0.1-0.35,0.26-0.44l11.41-6.59l-10.02-5.79l-1.7-0.98l1.02-0.59l1.7,0.98l10.28,5.94
						c0.16,0.09,0.26,0.26,0.26,0.44c0,0.18-0.1,0.35-0.26,0.44l-11.41,6.59l30.74,17.75l2.34,1.35
						C280.96,406.73,281.04,407.04,280.9,407.29z"/>
				</g>
				<g>
					<path class="st7" d="M333.24,374.29c-0.1,0.16-0.27,0.26-0.44,0.26c-0.09,0-0.18-0.02-0.26-0.07l-2.83-1.64l-23.33-13.47
						c-0.16-0.09-0.26-0.26-0.26-0.44c0-0.18,0.1-0.35,0.26-0.44l8.65-4.99l-7.79-4.58l-1.02-0.6l-6.53-3.84l-1.69-1l1.02-0.59
						l1.69,0.99l6.53,3.84l1.02,0.6l8.05,4.73c0.16,0.09,0.25,0.26,0.25,0.44c0,0.18-0.1,0.35-0.26,0.44l-8.64,4.99l23.43,13.53
						c0,0,0,0,0,0l1.96,1.13C333.3,373.73,333.38,374.04,333.24,374.29z"/>
				</g>
				<g>
					<path class="st7" d="M375.61,372.93c-0.1,0.16-0.27,0.26-0.44,0.26c-0.09,0-0.17-0.02-0.26-0.07l-3.02-1.74l-42.53-24.56
						c-0.16-0.09-0.26-0.26-0.26-0.44c0-0.18,0.1-0.35,0.26-0.44l15.62-9.02l-16.19-9.35l-1.71-0.98l1.02-0.59l1.71,0.98l16.46,9.5
						c0.16,0.09,0.26,0.26,0.26,0.44c0,0.18-0.1,0.35-0.26,0.44l-15.62,9.02l42.43,24.5l2.35,1.35
						C375.67,372.37,375.75,372.69,375.61,372.93z"/>
				</g>
				<g>
					<path class="st7" d="M329.98,385.76c-0.09,0.16-0.27,0.26-0.44,0.26c-0.09,0-0.17-0.02-0.26-0.07l-2.6-1.5l-30.1-17.38
						l-16.61,9.59c-0.16,0.09-0.36,0.09-0.51,0l-17.63-10.18l-1.7-0.98l1.02-0.59l1.7,0.98l16.87,9.74l16.61-9.59
						c0.16-0.09,0.36-0.09,0.51,0l30.87,17.82l2.08,1.2C330.03,385.2,330.12,385.51,329.98,385.76z"/>
				</g>
				<g>
					<path class="st7" d="M375.15,344.94c-0.1,0.16-0.27,0.26-0.44,0.26c-0.09,0-0.17-0.02-0.26-0.07l-2.93-1.69l-35.14-20.29
						l-1.71-0.99l1.02-0.59l1.71,0.99l35.22,20.33l2.34,1.35C375.21,344.38,375.29,344.7,375.15,344.94z"/>
				</g>
				<g>
					<path class="st7" d="M402.31,329.03c-0.1,0.16-0.27,0.26-0.44,0.26c-0.09,0-0.17-0.02-0.26-0.07l-3.22-1.86l-34.74-20.06
						l-1.71-0.98l1.02-0.59l1.71,0.99l34.7,20.04l2.75,1.59C402.37,328.47,402.45,328.79,402.31,329.03z"/>
				</g>
				<g>
					<path class="st7" d="M343.58,362.91c-0.1,0.16-0.27,0.26-0.44,0.26c-0.09,0-0.18-0.02-0.26-0.07l-3.18-1.83l-26.93-15.55
						l-1.03-0.59l-6.61-3.82l-1.71-0.98l1.02-0.59l1.71,0.98l6.61,3.82l1.03,0.59l26.83,15.49l2.76,1.59
						C343.64,362.35,343.72,362.66,343.58,362.91z"/>
				</g>
				<g>
					<path class="st7" d="M292.61,392.62c-0.09,0.16-0.27,0.26-0.44,0.26c-0.09,0-0.17-0.02-0.26-0.07l-2.95-1.7c0,0,0,0,0,0
						l-34.87-20.13l-1.7-0.99l1.02-0.59l1.7,0.98l34.95,20.17l2.37,1.37C292.67,392.06,292.75,392.38,292.61,392.62z"/>
				</g>
				<g>
					<polygon class="st7" points="330.22,335.64 313.8,345.12 312.78,345.71 308.26,348.32 307.24,348.91 286.66,360.79 
						283.59,362.56 283.08,361.67 285.82,360.1 306.23,348.31 307.25,347.72 311.75,345.12 312.78,344.53 328.16,335.64 
						321.5,331.8 319.79,330.81 320.82,330.22 322.52,331.2 					"/>
				</g>
				<g>
					<path class="st7" d="M282.79,405.68c1.53,0.88,1.53,2.31,0,3.19c-1.53,0.88-4,0.88-5.53,0c-1.53-0.88-1.53-2.31,0-3.19
						C278.78,404.8,281.26,404.8,282.79,405.68z"/>
				</g>
				<g>
					<path class="st7" d="M294.79,390.91c1.53,0.88,1.53,2.31,0,3.19c-1.53,0.88-4,0.88-5.53,0c-1.53-0.88-1.53-2.31,0-3.19
						C290.79,390.02,293.26,390.02,294.79,390.91z"/>
				</g>
				<g>
					<path class="st7" d="M285.86,360.12c1.53,0.88,1.53,2.31,0,3.19c-1.53,0.88-4,0.88-5.53,0c-1.53-0.88-1.53-2.31,0-3.19
						C281.86,359.24,284.34,359.24,285.86,360.12z"/>
				</g>
				<g>
					<path class="st7" d="M332.66,384.13c1.53,0.88,1.53,2.31,0,3.19c-1.53,0.88-4,0.88-5.53,0c-1.53-0.88-1.53-2.31,0-3.19
						C328.66,383.25,331.13,383.25,332.66,384.13z"/>
				</g>
				<g>
					<path class="st7" d="M334.81,373.05c1.53,0.88,1.53,2.31,0,3.19c-1.53,0.88-4,0.88-5.53,0c-1.53-0.88-1.53-2.31,0-3.19
						C330.81,372.17,333.29,372.17,334.81,373.05z"/>
				</g>
				<g>
					<path class="st7" d="M345.9,360.75c1.53,0.88,1.53,2.31,0,3.19c-1.53,0.88-4,0.88-5.53,0c-1.53-0.88-1.53-2.31,0-3.19
						C341.9,359.87,344.38,359.87,345.9,360.75z"/>
				</g>
				<g>
					<path class="st7" d="M377.52,371.32c1.53,0.88,1.53,2.31,0,3.19c-1.53,0.88-4,0.88-5.53,0c-1.53-0.88-1.53-2.31,0-3.19
						C373.52,370.44,376,370.44,377.52,371.32z"/>
				</g>
				<g>
					<path class="st7" d="M377.35,343.25c1.53,0.88,1.53,2.31,0,3.19c-1.53,0.88-4,0.88-5.53,0c-1.53-0.88-1.53-2.31,0-3.19
						C373.35,342.37,375.82,342.37,377.35,343.25z"/>
				</g>
				<g>
					<path class="st7" d="M388.96,344.11c1.53,0.88,1.53,2.31,0,3.19s-4,0.88-5.53,0c-1.53-0.88-1.53-2.31,0-3.19
						C384.96,343.23,387.43,343.23,388.96,344.11z"/>
				</g>
				<g>
					<path class="st7" d="M404.47,326.96c1.53,0.88,1.53,2.31,0,3.19c-1.53,0.88-4,0.88-5.53,0c-1.53-0.88-1.53-2.31,0-3.19
						C400.47,326.08,402.94,326.08,404.47,326.96z"/>
				</g>
			</g>
			<g>
				<g>
					<path class="st7" d="M195.71,203.68c0,0.18-0.09,0.35-0.25,0.44l-8.12,4.86l-1.01,0.61l-10.19,6.11l-1.01,0.6l-9.56,5.73
						l26.85,15.5l1.71,0.98l-1.02,0.59l-1.71-0.98l-27.09-15.64c-0.16-0.09-0.25-0.26-0.26-0.44c0-0.18,0.09-0.35,0.25-0.44
						l9.81-5.88l1.01-0.61l10.19-6.11l1.01-0.61l7.86-4.71l-15.07-8.7l-2.55-1.47c-0.24-0.14-0.33-0.46-0.19-0.7
						c0.14-0.25,0.46-0.33,0.7-0.19l3.02,1.74l15.35,8.86C195.61,203.33,195.71,203.5,195.71,203.68z"/>
				</g>
				<g>
					<path class="st7" d="M103.91,289.96l-26.37-15.22l11.41-6.59c0.16-0.09,0.26-0.26,0.26-0.44c0-0.18-0.1-0.35-0.26-0.44
						l-15.49-8.94l-2.88-1.66c-0.25-0.14-0.56-0.06-0.7,0.19c-0.14,0.24-0.06,0.56,0.19,0.7l2.19,1.27l15.41,8.89l-11.41,6.59
						c-0.16,0.09-0.26,0.26-0.26,0.44c0,0.18,0.1,0.35,0.26,0.44l26.63,15.37L103.91,289.96z"/>
				</g>
				<g>
					<path class="st7" d="M157.57,259.77l-1.02,0.59l-1.71-0.99l-18.34-10.59c-0.16-0.09-0.26-0.26-0.26-0.44
						c0-0.18,0.1-0.36,0.26-0.44l8.65-5l-21.17-12.45l-2.01-1.18c-0.25-0.14-0.33-0.46-0.18-0.7c0.14-0.24,0.46-0.32,0.7-0.18
						l2.56,1.51l21.37,12.57c0.16,0.09,0.26,0.26,0.25,0.44c0,0.18-0.1,0.35-0.26,0.44l-8.64,4.99l18.08,10.44L157.57,259.77z"/>
				</g>
				<g>
					<path class="st7" d="M180.49,246.45l-1.02,0.59l-1.71-0.98l-28.53-16.47c-0.16-0.09-0.26-0.26-0.26-0.44
						c0-0.18,0.1-0.35,0.26-0.44l12.59-7.27l-16-9.24l-3.38-1.96c-0.25-0.14-0.33-0.45-0.19-0.7c0.14-0.25,0.45-0.33,0.7-0.19
						l3.86,2.23l16.29,9.41c0.16,0.09,0.26,0.26,0.26,0.44s-0.1,0.35-0.26,0.44l-12.59,7.27l28.27,16.32L180.49,246.45z"/>
				</g>
				<g>
					<path class="st7" d="M144.65,267.27l-1.02,0.59l-1.71-0.98l-18.63-10.75l-13.32,7.69c-0.16,0.09-0.35,0.09-0.51,0l-18.02-10.4
						l-2.22-1.28c-0.25-0.14-0.33-0.45-0.19-0.7c0.14-0.25,0.45-0.33,0.7-0.19l2.65,1.53l17.33,10.01l13.32-7.69
						c0.16-0.09,0.36-0.09,0.51,0l19.39,11.19L144.65,267.27z"/>
				</g>
				<g>
					<path class="st7" d="M204.86,232.29l-1.02,0.59l-1.71-0.99l-27-15.59l-1.02-0.58l-8.36-4.83c0,0,0,0,0,0l-2.17-1.25
						c-0.25-0.14-0.33-0.46-0.19-0.7c0.14-0.25,0.46-0.33,0.7-0.19l2.8,1.62l8.23,4.75l1.02,0.59l27.02,15.6L204.86,232.29z"/>
				</g>
				<g>
					<path class="st7" d="M216.25,225.67l-1.02,0.59l-1.71-0.99l-27.19-15.68l-1.02-0.59l-31.45-18.14l-1.63-0.94
						c-0.25-0.14-0.33-0.45-0.19-0.7c0.14-0.25,0.45-0.33,0.7-0.19l2.39,1.38l31.18,17.99l1.02,0.59l27.2,15.69L216.25,225.67z"/>
				</g>
				<g>
					<path class="st7" d="M174.94,249.67l-1.02,0.59l-1.71-0.98l-36.04-20.81c0,0,0,0,0,0l-2.41-1.4c-0.25-0.14-0.33-0.46-0.19-0.7
						c0.14-0.25,0.45-0.33,0.7-0.19l3.02,1.74l35.94,20.75L174.94,249.67z"/>
				</g>
				<g>
					<path class="st7" d="M124.28,279.11l-1.02,0.59l-1.71-0.98l-16.09-9.29l-3.86-2.23c-0.24-0.14-0.33-0.45-0.18-0.7
						c0.14-0.24,0.45-0.33,0.7-0.19l4.42,2.55l16.04,9.26L124.28,279.11z"/>
				</g>
				<g>
					<path class="st7" d="M73.39,255.17c1.53,0.88,1.53,2.31,0,3.19c-1.53,0.88-4,0.88-5.53,0c-1.53-0.88-1.53-2.31,0-3.19
						C69.39,254.29,71.86,254.29,73.39,255.17z"/>
				</g>
				<g>
					<path class="st7" d="M106.18,265.92c1.53,0.88,1.53,2.31,0,3.19c-1.53,0.88-4,0.88-5.53,0c-1.53-0.88-1.53-2.31,0-3.19
						C102.18,265.03,104.65,265.03,106.18,265.92z"/>
				</g>
				<g>
					<path class="st7" d="M91.76,250.07c1.53,0.88,1.53,2.31,0,3.19c-1.53,0.88-4,0.88-5.53,0c-1.53-0.88-1.53-2.31,0-3.19
						C87.76,249.18,90.23,249.18,91.76,250.07z"/>
				</g>
				<g>
					<path class="st7" d="M124.7,226.94c1.53,0.88,1.53,2.31,0,3.19c-1.53,0.88-4,0.88-5.53,0c-1.53-0.88-1.53-2.31,0-3.19
						C120.7,226.05,123.17,226.05,124.7,226.94z"/>
				</g>
				<g>
					<path class="st7" d="M97.82,242.48c1.53,0.88,1.53,2.31,0,3.19c-1.53,0.88-4,0.88-5.53,0c-1.53-0.88-1.53-2.31,0-3.19
						C93.82,241.6,96.29,241.6,97.82,242.48z"/>
				</g>
				<g>
					<path class="st7" d="M151.4,263.35l-1.02,0.59l-1.71-0.98L106,238.33l-7.74,4.47l-2.92,1.68c-0.24,0.14-0.56,0.06-0.7-0.19
						c-0.14-0.24-0.05-0.56,0.19-0.7l2.4-1.38l8.51-4.91c0.16-0.09,0.35-0.09,0.51,0l43.44,25.08L151.4,263.35z"/>
				</g>
				<g>
					<path class="st7" d="M222.7,221.92l-1.02,0.59l-1.71-0.98l-18.54-10.71c-0.16-0.09-0.26-0.26-0.26-0.44s0.1-0.35,0.26-0.44
						l8.65-5l-21.17-12.45l-2.01-1.18c-0.24-0.14-0.32-0.46-0.18-0.7c0.14-0.25,0.46-0.33,0.7-0.18l2.56,1.5l21.37,12.58
						c0.16,0.09,0.25,0.26,0.25,0.44c0,0.18-0.1,0.35-0.26,0.44l-8.64,4.99L221,220.93L222.7,221.92z"/>
				</g>
				<g>
					<path class="st7" d="M189.63,188.97c1.53,0.88,1.53,2.31,0,3.19c-1.53,0.88-4,0.88-5.53,0c-1.53-0.88-1.53-2.31,0-3.19
						C185.63,188.08,188.1,188.08,189.63,188.97z"/>
				</g>
				<g>
					<path class="st7" d="M137.04,224.91c1.53,0.88,1.53,2.31,0,3.19c-1.53,0.88-4,0.88-5.53,0c-1.53-0.88-1.53-2.31,0-3.19
						C133.04,224.03,135.52,224.03,137.04,224.91z"/>
				</g>
				<g>
					<path class="st7" d="M146.27,208.78c1.53,0.88,1.53,2.31,0,3.19c-1.53,0.88-4,0.88-5.53,0c-1.53-0.88-1.53-2.31,0-3.19
						C142.27,207.89,144.75,207.89,146.27,208.78z"/>
				</g>
				<g>
					<path class="st7" d="M155.26,187.16c1.53,0.88,1.53,2.31,0,3.19c-1.53,0.88-4,0.88-5.53,0c-1.53-0.88-1.53-2.31,0-3.19
						C151.26,186.28,153.74,186.28,155.26,187.16z"/>
				</g>
				<g>
					<path class="st7" d="M179.54,191.59c1.53,0.88,1.53,2.31,0,3.19c-1.53,0.88-4,0.88-5.53,0c-1.53-0.88-1.53-2.31,0-3.19
						C175.54,190.71,178.01,190.71,179.54,191.59z"/>
				</g>
				<g>
					<path class="st7" d="M166.7,207.29c1.53,0.88,1.53,2.31,0,3.19c-1.53,0.88-4,0.88-5.53,0c-1.53-0.88-1.53-2.31,0-3.19
						C162.7,206.41,165.17,206.41,166.7,207.29z"/>
				</g>
			</g>
			<g>
				<g>
					<path class="st7" d="M368.33,262.48c0,0.18-0.1,0.35-0.26,0.44l-25.48,14.71l-1.71,0.98l-1.03-0.59l1.71-0.99l25.24-14.57
						l-23.16-13.88l-1-0.61l-5.71-3.42c-0.16-0.09-0.25-0.26-0.25-0.44c0-0.18,0.1-0.35,0.26-0.44l15.35-8.86l3.02-1.74
						c0.24-0.14,0.56-0.06,0.7,0.19c0.14,0.25,0.06,0.56-0.18,0.7l-2.55,1.47l-15.07,8.7l5.45,3.27l1.01,0.6l23.42,14.03
						C368.24,262.14,368.33,262.3,368.33,262.48z"/>
				</g>
				<g>
					<path class="st7" d="M343.92,230.16l-2.01,1.18l-21.17,12.45l8.65,4.99c0.16,0.09,0.26,0.26,0.26,0.44
						c0,0.18-0.1,0.35-0.26,0.44l-17.61,10.17l-1.71,0.98l-1.02-0.59l1.71-0.98l17.35-10.02l-8.64-4.99
						c-0.16-0.09-0.26-0.26-0.26-0.44c0-0.18,0.1-0.35,0.25-0.44l21.37-12.58l2.56-1.5c0.25-0.14,0.56-0.06,0.7,0.18
						C344.25,229.71,344.17,230.02,343.92,230.16z"/>
				</g>
				<g>
					<path class="st7" d="M322.05,207.94l-3.29,1.9l-16.52,9.54l12.88,7.43c0.16,0.09,0.26,0.26,0.26,0.44
						c0,0.18-0.1,0.35-0.26,0.44l-29.5,17.03l-1.71,0.99l-1.03-0.59l1.71-0.98l29.25-16.89l-12.88-7.43
						c-0.16-0.09-0.26-0.26-0.26-0.44c0-0.18,0.1-0.35,0.26-0.44l16.91-9.76l3.68-2.12c0.25-0.14,0.56-0.06,0.7,0.19
						C322.39,207.49,322.3,207.8,322.05,207.94z"/>
				</g>
				<g>
					<path class="st7" d="M395.88,272.61l-2.2,1.27l-14.87,8.58c-0.16,0.09-0.35,0.09-0.51,0L367.11,276l-13.67,7.89l-1.71,0.99
						l-1.03-0.59l1.71-0.98l14.44-8.33c0.16-0.09,0.36-0.09,0.51,0l11.19,6.46l14-8.08l2.81-1.62c0.25-0.14,0.56-0.06,0.7,0.19
						C396.21,272.16,396.12,272.47,395.88,272.61z"/>
				</g>
				<g>
					<path class="st7" d="M301.28,210.7l-2.17,1.25c0,0,0,0,0,0l-35.13,20.29l-1.71,0.98l-1.03-0.59l1.71-0.98l35.03-20.22l2.8-1.62
						c0.25-0.14,0.56-0.06,0.7,0.19C301.61,210.24,301.53,210.55,301.28,210.7z"/>
				</g>
				<g>
					<path class="st7" d="M313.66,190.82l-1.63,0.94l-59.12,34.09l-1.71,0.98l-1.03-0.59l1.71-0.98l58.87-33.95l2.39-1.38
						c0.25-0.14,0.56-0.06,0.7,0.19C313.99,190.37,313.9,190.68,313.66,190.82z"/>
				</g>
				<g>
					<path class="st7" d="M332.14,227.97l-2.42,1.39l-35.36,20.42l-1.71,0.99l-1.03-0.59l1.71-0.98l35.27-20.36l3.03-1.75
						c0.25-0.14,0.56-0.06,0.7,0.19C332.47,227.52,332.38,227.83,332.14,227.97z"/>
				</g>
				<g>
					<path class="st7" d="M293.82,227.51l-3.86,2.23l-15.17,8.76l-1.71,0.98l-1.03-0.59l1.71-0.98l15.12-8.73l4.41-2.55
						c0.25-0.14,0.56-0.06,0.7,0.19C294.15,227.06,294.07,227.37,293.82,227.51z"/>
				</g>
				<g>
					<path class="st7" d="M289.25,226.22c-1.53,0.88-1.53,2.31,0,3.19c1.53,0.88,4,0.88,5.53,0c1.53-0.88,1.53-2.31,0-3.19
						C293.25,225.34,290.78,225.34,289.25,226.22z"/>
				</g>
				<g>
					<path class="st7" d="M392.79,270.3c-1.53,0.88-1.53,2.31,0,3.19c1.53,0.88,4,0.88,5.53,0c1.53-0.88,1.53-2.31,0-3.19
						C396.79,269.42,394.31,269.42,392.79,270.3z"/>
				</g>
				<g>
					<path class="st7" d="M341.2,227.83c-1.53,0.88-1.53,2.31,0,3.19c1.53,0.88,4,0.88,5.53,0c1.53-0.88,1.53-2.31,0-3.19
						C345.2,226.94,342.72,226.94,341.2,227.83z"/>
				</g>
				<g>
					<path class="st7" d="M368.08,243.37c-1.53,0.88-1.53,2.31,0,3.19c1.53,0.88,4,0.88,5.53,0c1.53-0.88,1.53-2.31,0-3.19
						C372.08,242.49,369.6,242.49,368.08,243.37z"/>
				</g>
				<g>
					<path class="st7" d="M371.24,245.18c-0.14,0.25-0.45,0.33-0.7,0.19l-2.91-1.68l-7.74-4.47l-15.22,8.79l-1.02,0.59l-25.67,14.82
						l-1.71,0.98l-1.02-0.59l1.71-0.98l25.7-14.84l1.02-0.58l15.98-9.22c0.16-0.09,0.36-0.09,0.51,0l8.51,4.92l2.4,1.38
						C371.3,244.62,371.38,244.93,371.24,245.18z"/>
				</g>
				<g>
					<path class="st7" d="M278.99,192.19l-2,1.18l-21.17,12.45l8.65,4.99c0.16,0.09,0.26,0.26,0.26,0.44c0,0.18-0.1,0.35-0.26,0.44
						l-18.03,10.41l-1.71,0.98l-6.43,3.71c-0.08,0.05-0.17,0.07-0.25,0.07c-0.18,0-0.35-0.09-0.44-0.26
						c-0.14-0.25-0.06-0.56,0.18-0.7l5.91-3.42l1.71-0.98l17.77-10.26l-8.64-4.99c-0.16-0.09-0.25-0.26-0.26-0.44
						c0-0.18,0.1-0.35,0.25-0.44l21.37-12.58l2.56-1.5c0.24-0.14,0.56-0.06,0.7,0.18C279.32,191.74,279.24,192.05,278.99,192.19z"/>
				</g>
				<g>
					<path class="st7" d="M276.27,189.86c-1.53,0.88-1.53,2.31,0,3.19c1.53,0.88,4,0.88,5.53,0c1.53-0.88,1.53-2.31,0-3.19
						C280.27,188.97,277.79,188.97,276.27,189.86z"/>
				</g>
				<g>
					<path class="st7" d="M328.85,225.8c-1.53,0.88-1.53,2.31,0,3.19c1.53,0.88,4,0.88,5.53,0c1.53-0.88,1.53-2.31,0-3.19
						C332.85,224.92,330.38,224.92,328.85,225.8z"/>
				</g>
				<g>
					<path class="st7" d="M318.59,206.56c-1.53,0.88-1.53,2.31,0,3.19c1.53,0.88,4,0.88,5.53,0c1.53-0.88,1.53-2.31,0-3.19
						C322.59,205.68,320.11,205.68,318.59,206.56z"/>
				</g>
				<g>
					<path class="st7" d="M310.63,188.05c-1.53,0.88-1.53,2.31,0,3.19c1.53,0.88,4,0.88,5.53,0c1.53-0.88,1.53-2.31,0-3.19
						C314.63,187.17,312.16,187.17,310.63,188.05z"/>
				</g>
				<g>
					<path class="st7" d="M352.85,232.03c-1.53,0.88-1.53,2.31,0,3.19c1.53,0.88,4,0.88,5.53,0c1.53-0.88,1.53-2.31,0-3.19
						C356.85,231.15,354.37,231.15,352.85,232.03z"/>
				</g>
				<g>
					<path class="st7" d="M298.16,208.35c-1.53,0.88-1.53,2.31,0,3.19c1.53,0.88,4,0.88,5.53,0c1.53-0.88,1.53-2.31,0-3.19
						C302.16,207.47,299.69,207.47,298.16,208.35z"/>
				</g>
			</g>
		</g>
	</g>
	<g>
		<g>
			<g class="st1">
				<g class="st1">
					<defs>
						<path id="SVGID_00000181047571037998584750000004481757206773049760_" class="st1" d="M180.66,225.7l-8.49-4.93
							c-0.93-0.54-1.62-1.61-1.89-3.3l8.49,4.93C179.04,224.09,179.73,225.16,180.66,225.7z"/>
					</defs>
					<use xlink:href="#SVGID_00000181047571037998584750000004481757206773049760_"  style="overflow:visible;fill:#DAD9E8;"/>
					<clipPath id="SVGID_00000094603963717508372930000017582771756264309676_">
						<use xlink:href="#SVGID_00000181047571037998584750000004481757206773049760_"  style="overflow:visible;"/>
					</clipPath>
					<g style="clip-path:url(#SVGID_00000094603963717508372930000017582771756264309676_);enable-background:new    ;">
						<path class="st17" d="M180.66,225.7l-8.49-4.93c-0.93-0.54-1.61-1.6-1.88-3.27l8.49,4.93
							C179.05,224.1,179.73,225.16,180.66,225.7z"/>
						<path class="st17" d="M178.78,222.43l-8.49-4.93c0-0.01,0-0.02,0-0.03l8.49,4.93C178.77,222.41,178.78,222.42,178.78,222.43z"
							/>
					</g>
				</g>
				<g>
					<defs>
						<path id="SVGID_00000083799089607479615960000014564777248306566046_" d="M187.97,137.12l8.49,4.93
							c-2.48-1.44-5.91-1.26-9.76,0.96l-8.49-4.93C182.05,135.86,185.49,135.68,187.97,137.12z"/>
					</defs>
					<use xlink:href="#SVGID_00000083799089607479615960000014564777248306566046_"  style="overflow:visible;fill:#DAD9E8;"/>
					<clipPath id="SVGID_00000062153990680012939870000004435921759350663559_">
						<use xlink:href="#SVGID_00000083799089607479615960000014564777248306566046_"  style="overflow:visible;"/>
					</clipPath>
					<g style="clip-path:url(#SVGID_00000062153990680012939870000004435921759350663559_);enable-background:new    ;">
						<path class="st17" d="M186.7,143.02l-8.49-4.93c3.85-2.22,7.28-2.4,9.76-0.96l8.49,4.93
							C193.98,140.62,190.54,140.8,186.7,143.02z"/>
					</g>
				</g>
				<g>
					<polygon class="st17" points="178.77,222.4 170.28,217.47 162.12,165.71 170.61,170.64 					"/>
				</g>
				<g>
					<polygon class="st19" points="184.11,144.51 175.62,139.58 178.21,138.08 186.7,143.02 					"/>
				</g>
				<g class="st1">
					<defs>
						<path id="SVGID_00000037668280708155296620000010408755484860253089_" class="st1" d="M170.61,170.64l-8.49-4.93
							c-1.39-8.81,5.04-21.25,13.5-26.13l8.49,4.93C175.65,149.4,169.23,161.83,170.61,170.64z"/>
					</defs>
					<use xlink:href="#SVGID_00000037668280708155296620000010408755484860253089_"  style="overflow:visible;fill:#EBEBF1;"/>
					<clipPath id="SVGID_00000139982415566712485120000001479957199045815727_">
						<use xlink:href="#SVGID_00000037668280708155296620000010408755484860253089_"  style="overflow:visible;"/>
					</clipPath>
					<g style="clip-path:url(#SVGID_00000139982415566712485120000001479957199045815727_);enable-background:new    ;">
						<path class="st19" d="M170.61,170.64l-8.49-4.93c-0.42-2.68-0.12-5.69,0.74-8.73l8.49,4.93
							C170.49,164.95,170.19,167.96,170.61,170.64z"/>
						<path class="st19" d="M171.35,161.92l-8.49-4.93c0.97-3.42,2.64-6.86,4.8-9.88l8.49,4.93
							C174,155.06,172.32,158.5,171.35,161.92z"/>
						<path class="st19" d="M176.15,152.04l-8.49-4.93c1.65-2.31,3.57-4.37,5.67-5.99l8.49,4.93
							C179.72,147.67,177.8,149.73,176.15,152.04z"/>
						<path class="st19" d="M181.83,146.05l-8.49-4.93c0.74-0.57,1.5-1.09,2.29-1.54l8.49,4.93
							C183.33,144.96,182.57,145.48,181.83,146.05z"/>
					</g>
				</g>
				<g>
					<path class="st9" d="M186.7,143.02c8.46-4.88,14.93,0.11,13.6,10.49l-7.84,60.99c-0.62,4.82-3.72,8.84-6.82,10.64
						c-3.11,1.79-6.22,1.36-6.86-2.73l-8.16-51.76c-1.39-8.81,5.04-21.25,13.5-26.13L186.7,143.02z"/>
				</g>
			</g>
		</g>
		<g>
			<g class="st1">
				<g class="st1">
					<defs>
						<path id="SVGID_00000086676812515390640730000010325584059662700425_" class="st1" d="M196.09,143.46l5.91,3.44
							c-2.51-1.46-5.99-1.25-9.82,0.96l-5.91-3.44C190.1,142.2,193.58,142,196.09,143.46z"/>
					</defs>
					<use xlink:href="#SVGID_00000086676812515390640730000010325584059662700425_"  style="overflow:visible;fill:#05D4F5;"/>
					<clipPath id="SVGID_00000031175759194308514340000015192679678643081630_">
						<use xlink:href="#SVGID_00000086676812515390640730000010325584059662700425_"  style="overflow:visible;"/>
					</clipPath>
					<g style="clip-path:url(#SVGID_00000031175759194308514340000015192679678643081630_);enable-background:new    ;">
						<path class="st7" d="M192.18,147.86l-5.91-3.44c3.84-2.22,7.31-2.42,9.82-0.96l5.91,3.44
							C199.49,145.43,196.02,145.64,192.18,147.86z"/>
					</g>
				</g>
				<g>
					<path class="st7" d="M193.55,153.63c5.22-3.02,9.48-0.59,9.5,5.42c0.02,6-4.21,13.33-9.44,16.34c-5.22,3.02-9.49,0.59-9.5-5.41
						C184.09,163.98,188.33,156.65,193.55,153.63z"/>
				</g>
				<g class="st1">
					<defs>
						<path id="SVGID_00000018200082639917150360000005428011483474524334_" class="st1" d="M182.44,180.56l-5.91-3.44
							c-2.48-1.44-4.02-4.5-4.03-8.86c-0.02-8.76,6.14-19.44,13.77-23.85l5.91,3.44c-7.63,4.4-13.79,15.08-13.77,23.85
							C178.43,176.05,179.96,179.12,182.44,180.56z"/>
					</defs>
					<use xlink:href="#SVGID_00000018200082639917150360000005428011483474524334_"  style="overflow:visible;fill:#05D4F5;"/>
					<clipPath id="SVGID_00000016772483485305336460000003052357605608777385_">
						<use xlink:href="#SVGID_00000018200082639917150360000005428011483474524334_"  style="overflow:visible;"/>
					</clipPath>
					<g style="clip-path:url(#SVGID_00000016772483485305336460000003052357605608777385_);enable-background:new    ;">
						<path class="st7" d="M182.44,180.56l-5.91-3.44c-2.2-1.28-3.66-3.84-3.97-7.44l5.91,3.44
							C178.78,176.72,180.24,179.28,182.44,180.56z"/>
						<path class="st7" d="M178.48,173.11l-5.91-3.44c-0.04-0.45-0.06-0.93-0.06-1.41c-0.02-7.56,4.56-16.54,10.71-21.69l5.91,3.44
							c-6.15,5.15-10.73,14.13-10.71,21.69C178.42,172.19,178.44,172.66,178.48,173.11z"/>
						<path class="st7" d="M189.13,150.01l-5.91-3.44c0.98-0.82,2.01-1.55,3.06-2.16l5.91,3.44
							C191.13,148.46,190.11,149.19,189.13,150.01z"/>
					</g>
				</g>
				<g class="st1">
					<defs>
						<path id="SVGID_00000036956122363625563600000003178881856273741503_" class="st1" d="M193.55,153.63l-1.37-5.78
							c7.63-4.4,13.83-0.87,13.85,7.9c0.02,8.76-6.14,19.44-13.76,23.84c-7.63,4.4-13.83,0.87-13.86-7.89
							c-0.02-8.76,6.14-19.44,13.77-23.85L193.55,153.63c-5.22,3.01-9.46,10.35-9.44,16.35c0.01,6,4.28,8.43,9.5,5.41
							c5.22-3.01,9.46-10.34,9.44-16.34C203.04,153.04,198.78,150.61,193.55,153.63z"/>
					</defs>
					<use xlink:href="#SVGID_00000036956122363625563600000003178881856273741503_"  style="overflow:visible;fill:#05D4F5;"/>
					<clipPath id="SVGID_00000054972032162856109520000017192391799634851470_">
						<use xlink:href="#SVGID_00000036956122363625563600000003178881856273741503_"  style="overflow:visible;"/>
					</clipPath>
					<g style="clip-path:url(#SVGID_00000054972032162856109520000017192391799634851470_);enable-background:new    ;">
						<path class="st5" d="M193.55,153.63l-1.37-5.78c7.63-4.4,13.83-0.87,13.85,7.9c0.02,8.76-6.14,19.44-13.76,23.84
							c-7.63,4.4-13.83,0.87-13.86-7.89c-0.02-8.76,6.14-19.44,13.77-23.85L193.55,153.63c-5.22,3.01-9.46,10.35-9.44,16.35
							c0.01,6,4.28,8.43,9.5,5.41c5.22-3.01,9.46-10.34,9.44-16.34C203.04,153.04,198.78,150.61,193.55,153.63z"/>
					</g>
				</g>
			</g>
		</g>
		<g>
			<path class="st6" d="M191.32,98.63l-15.33-50.04L191.32,98.63z"/>
			
				<rect x="182.15" y="47.44" transform="matrix(0.9562 -0.2928 0.2928 0.9562 -13.504 57.0077)" class="st24" width="3.01" height="52.34"/>
		</g>
		<g>
			<g>
				<path class="st4" d="M209.57,255.76c-14.06-8.69-17.23-20.35-18.58-25.33c1.09,4.78,4.83,9.53,11.21,13.37
					c15.94,9.59,42.33,9.86,58.95,0.6c7.13-3.98,11.31-9.07,12.48-14.34c-1.08,4.13-2.71,10.38-8.94,17.6
					c-2.36,2.73-7.56,7.82-15.87,11.15C236.18,263.88,220.78,262.68,209.57,255.76z"/>
			</g>
			<g>
				<path class="st2" d="M261.42,141.82c15.54,9.35,15.01,24.26-1.19,33.29c-16.2,9.03-41.92,8.77-57.46-0.58
					c-15.54-9.35-15.01-24.26,1.19-33.29C220.16,132.2,245.88,132.47,261.42,141.82z"/>
			</g>
			<g class="st1">
				<path class="st3" d="M190.97,230.3l-12.53-54.75c1.46,6.38,6.32,12.56,14.61,17.55c20.71,12.47,55,12.81,76.59,0.77
					c9.27-5.17,14.69-11.78,16.22-18.63l-12.22,54.82c-1.18,5.27-5.35,10.36-12.48,14.34c-16.61,9.26-43.01,9-58.95-0.6
					C195.83,239.96,192.09,235.21,190.97,230.3z"/>
			</g>
			<path class="st17" d="M197.3,140.36c21.16-11.49,51.12-11.15,71.24,0.81c-1.79-1.08-4.3-1-7.12,0.57
				c-15.54-9.35-41.27-9.61-57.46-0.58c-16.2,9.03-16.73,23.93-1.19,33.29c15.54,9.35,41.27,9.61,57.46,0.58
				c16.2-9.03,16.73-23.93,1.19-33.29c2.82-1.57,5.33-1.65,7.12-0.57c4.21,2.72,10.58,6.84,15.01,15.5
				c4.13,8.08,2.88,15.33,2.34,18.43c-1.57,7.03-6.99,13.64-16.26,18.8c-21.59,12.04-55.88,11.69-76.59-0.77
				c-8.28-4.98-13.14-11.15-14.61-17.53c-0.52-2.78-1.01-5.41-0.51-9.53c0.62-5.16,2.68-9.06,2.77-9.22
				C182.24,153.97,186.33,146.32,197.3,140.36z"/>
		</g>
		<g>
			<g>
				<path class="st19" d="M254.65,74.24c11.92,7.17,11.51,18.61-0.91,25.53c-12.42,6.93-32.16,6.73-44.08-0.45
					c-11.92-7.17-11.51-18.6,0.91-25.53C223,66.86,242.73,67.06,254.65,74.24z"/>
			</g>
			<g class="st1">
				<path class="st3" d="M193.92,159.77c-19.19-11.87-23.4-27.58-23.55-38.67c0.03,8.91,5.75,17.81,17.23,24.72
					c23.66,14.24,62.84,14.64,87.5,0.89c12.69-7.08,19.07-16.52,19.04-25.97c-0.21,5.8-0.53,8.8-2.86,15.3
					c-1.83,5.09-5.09,9.42-6.85,11.75c-0.82,1.09-8.43,10.78-23.12,16.51C235.83,174.21,209.1,169.17,193.92,159.77z"/>
			</g>
			<path class="st2" d="M195.68,72c11.24-6.12,23.85-9.13,37.49-8.95c14.01,0.18,26.59,3.51,37.38,9.91
				c-4.04-2.43-9.68-2.2-15.91,1.28c-11.92-7.17-31.65-7.37-44.08-0.45c-12.42,6.93-12.83,18.36-0.91,25.53
				c11.92,7.17,31.65,7.37,44.08,0.45c12.42-6.93,12.83-18.36,0.91-25.53c6.23-3.48,11.87-3.71,15.91-1.28
				c5.69,3.67,23,14.85,23.55,38.67c0.03,9.44-6.35,18.89-19.04,25.97c-24.66,13.75-63.84,13.36-87.5-0.88
				c-11.48-6.91-17.2-15.82-17.23-24.72c0.13-3.46,0.27-7.39,1.79-12.18c1.79-5.68,3.34-8.12,5.9-12.16
				C180.04,84.46,186.34,77.09,195.68,72z"/>
			<g>
				<path class="st25" d="M244.4,146.94c-20.04,2.36-41.64-1.08-56.83-10.23c-11.42-6.87-17.14-15.72-17.23-24.57
					c-0.02-5.75,2.35-11.06,6.34-15.31c0.08,7.94,5.21,15.87,15.45,22.04c13.63,8.2,33,11.29,50.97,9.17
					C243.9,134.54,244.38,141.19,244.4,146.94z"/>
			</g>
			<g class="st1">
				<path class="st17" d="M170.36,121.1l-0.03-9.1c0.03,8.91,5.75,17.81,17.23,24.72c23.66,14.24,62.84,14.64,87.5,0.88
					c12.69-7.08,19.07-16.52,19.04-25.97l0.03,9.1c0.03,9.44-6.35,18.89-19.04,25.97c-24.66,13.75-63.84,13.36-87.5-0.89
					C176.11,138.91,170.39,130,170.36,121.1z"/>
			</g>
			<g>
				<path class="st7" d="M180.39,121.36c-1.22,3.44-3.3,3.67-4.74,0.52c-2.41-5.25,0.04-11.59,3.17-10.69
					c0.57,0.16,0.87,0.49,1.18,0.84C182.01,114.88,180.93,119.85,180.39,121.36z"/>
				<path class="st7" d="M215.47,136.92c-0.91,5.16-7.4,6.03-10.68,1.43c-3.42-4.8,0.33-10.34,5.12-9.74
					c0.18,0.02,0.41,0.07,0.58,0.1C214.72,129.94,215.95,134.25,215.47,136.92z"/>
			</g>
		</g>
		<path class="st6" d="M273.27,114.73c0-3.06-2.15-4.29-4.79-2.77c-2.65,1.53-4.79,5.24-4.79,8.3c0,3.06,2.15,4.3,4.79,2.77
			C271.13,121.5,273.27,117.78,273.27,114.73z"/>
		<g>
			<path class="st6" d="M269.1,117.56l34.93-26.22L269.1,117.56z"/>
			<path class="st24" d="M269.11,119.07c-0.46,0-0.91-0.21-1.21-0.6c-0.5-0.67-0.36-1.61,0.3-2.11l34.93-26.22
				c0.66-0.5,1.61-0.37,2.11,0.3c0.5,0.66,0.36,1.61-0.3,2.11l-34.93,26.22C269.74,118.97,269.42,119.07,269.11,119.07z"/>
		</g>
		<path class="st6" d="M312.91,89.46c0-4.49-3.64-8.12-8.12-8.12s-8.12,3.64-8.12,8.12c0,4.49,3.64,8.12,8.12,8.12
			S312.91,93.95,312.91,89.46z"/>
		<path class="st6" d="M183.37,48.59c0-4.49-3.64-8.12-8.12-8.12c-4.49,0-8.12,3.64-8.12,8.12s3.64,8.12,8.12,8.12
			C179.74,56.71,183.37,53.07,183.37,48.59z"/>
		<g>
			<g class="st1">
				<g class="st1">
					<defs>
						<path id="SVGID_00000172419543571739386260000001202291002369661581_" class="st1" d="M280.46,172.61l5.91,3.44
							c-2.51-1.46-5.99-1.25-9.82,0.96l-5.91-3.44C274.47,171.36,277.95,171.16,280.46,172.61z"/>
					</defs>
					<use xlink:href="#SVGID_00000172419543571739386260000001202291002369661581_"  style="overflow:visible;fill:#05D4F5;"/>
					<clipPath id="SVGID_00000161605954692679105770000013509507240476719765_">
						<use xlink:href="#SVGID_00000172419543571739386260000001202291002369661581_"  style="overflow:visible;"/>
					</clipPath>
					<g style="clip-path:url(#SVGID_00000161605954692679105770000013509507240476719765_);enable-background:new    ;">
						<path class="st7" d="M276.55,177.01l-5.91-3.44c3.84-2.22,7.31-2.42,9.82-0.96l5.91,3.44
							C283.86,174.59,280.39,174.8,276.55,177.01z"/>
					</g>
				</g>
				<g>
					<path class="st7" d="M277.92,182.79c5.22-3.02,9.48-0.59,9.5,5.42c0.02,6-4.21,13.33-9.44,16.34c-5.23,3.02-9.49,0.59-9.5-5.41
						C268.46,193.14,272.7,185.8,277.92,182.79z"/>
				</g>
				<g class="st1">
					<defs>
						<path id="SVGID_00000016077643254478769810000001178861044916478350_" class="st1" d="M266.81,209.71l-5.91-3.44
							c-2.48-1.44-4.02-4.5-4.03-8.85c-0.02-8.76,6.14-19.44,13.77-23.85l5.91,3.44c-7.63,4.4-13.79,15.08-13.77,23.85
							C262.8,205.21,264.33,208.27,266.81,209.71z"/>
					</defs>
					<use xlink:href="#SVGID_00000016077643254478769810000001178861044916478350_"  style="overflow:visible;fill:#05D4F5;"/>
					<clipPath id="SVGID_00000021834175073831318230000004608584091348620420_">
						<use xlink:href="#SVGID_00000016077643254478769810000001178861044916478350_"  style="overflow:visible;"/>
					</clipPath>
					<g style="clip-path:url(#SVGID_00000021834175073831318230000004608584091348620420_);enable-background:new    ;">
						<path class="st7" d="M266.81,209.71l-5.91-3.44c-2.2-1.28-3.66-3.84-3.97-7.44l5.91,3.44
							C263.15,205.88,264.61,208.43,266.81,209.71z"/>
						<path class="st7" d="M262.84,202.27l-5.91-3.44c-0.04-0.45-0.06-0.93-0.06-1.41c-0.02-7.56,4.56-16.54,10.71-21.69l5.91,3.44
							c-6.15,5.15-10.73,14.13-10.71,21.69C262.78,201.35,262.8,201.82,262.84,202.27z"/>
						<path class="st7" d="M273.49,179.17l-5.91-3.44c0.98-0.82,2.01-1.55,3.06-2.16l5.91,3.44
							C275.5,177.62,274.48,178.35,273.49,179.17z"/>
					</g>
				</g>
				<g class="st1">
					<defs>
						<path id="SVGID_00000147901104564548942220000002266469926107987603_" class="st1" d="M277.92,182.79l-1.37-5.78
							c7.63-4.4,13.83-0.87,13.85,7.9c0.02,8.76-6.14,19.43-13.76,23.84c-7.63,4.4-13.83,0.87-13.86-7.89
							c-0.02-8.76,6.14-19.44,13.77-23.85L277.92,182.79c-5.22,3.01-9.46,10.35-9.44,16.35c0.01,6,4.28,8.43,9.5,5.41
							c5.22-3.01,9.46-10.34,9.44-16.34C287.4,182.2,283.14,179.77,277.92,182.79z"/>
					</defs>
					<use xlink:href="#SVGID_00000147901104564548942220000002266469926107987603_"  style="overflow:visible;fill:#05D4F5;"/>
					<clipPath id="SVGID_00000016778381227866792490000016284305085100914601_">
						<use xlink:href="#SVGID_00000147901104564548942220000002266469926107987603_"  style="overflow:visible;"/>
					</clipPath>
					<g style="clip-path:url(#SVGID_00000016778381227866792490000016284305085100914601_);enable-background:new    ;">
						<path class="st5" d="M277.92,182.79l-1.37-5.78c7.63-4.4,13.83-0.87,13.85,7.9c0.02,8.76-6.14,19.43-13.76,23.84
							c-7.63,4.4-13.83,0.87-13.86-7.89c-0.02-8.76,6.14-19.44,13.77-23.85L277.92,182.79c-5.22,3.01-9.46,10.35-9.44,16.35
							c0.01,6,4.28,8.43,9.5,5.41c5.22-3.01,9.46-10.34,9.44-16.34C287.4,182.2,283.14,179.77,277.92,182.79z"/>
					</g>
				</g>
			</g>
		</g>
		<g>
			<g class="st1">
				<g class="st1">
					<defs>
						<path id="SVGID_00000100370358788032720890000003573252962812943270_" class="st1" d="M280.53,263.85l-8.49-4.93
							c-0.93-0.54-1.62-1.61-1.89-3.3l8.49,4.93C278.91,262.24,279.59,263.31,280.53,263.85z"/>
					</defs>
					<use xlink:href="#SVGID_00000100370358788032720890000003573252962812943270_"  style="overflow:visible;fill:#DAD9E8;"/>
					<clipPath id="SVGID_00000045584209647800785170000004955995123973334969_">
						<use xlink:href="#SVGID_00000100370358788032720890000003573252962812943270_"  style="overflow:visible;"/>
					</clipPath>
					<g style="clip-path:url(#SVGID_00000045584209647800785170000004955995123973334969_);enable-background:new    ;">
						<path class="st17" d="M280.53,263.85l-8.49-4.93c-0.93-0.54-1.61-1.6-1.88-3.27l8.49,4.93
							C278.91,262.25,279.6,263.31,280.53,263.85z"/>
						<path class="st17" d="M278.65,260.58l-8.49-4.93c0-0.01,0-0.02-0.01-0.03l8.49,4.93
							C278.64,260.56,278.64,260.57,278.65,260.58z"/>
					</g>
				</g>
				<g>
					<defs>
						<path id="SVGID_00000035499706259391544080000002549857052597514640_" d="M287.83,175.27l8.49,4.93
							c-2.48-1.44-5.91-1.26-9.76,0.96l-8.49-4.93C281.92,174.01,285.36,173.83,287.83,175.27z"/>
					</defs>
					<use xlink:href="#SVGID_00000035499706259391544080000002549857052597514640_"  style="overflow:visible;fill:#DAD9E8;"/>
					<clipPath id="SVGID_00000179616051944532126460000010394002910782271649_">
						<use xlink:href="#SVGID_00000035499706259391544080000002549857052597514640_"  style="overflow:visible;"/>
					</clipPath>
					<g style="clip-path:url(#SVGID_00000179616051944532126460000010394002910782271649_);enable-background:new    ;">
						<path class="st17" d="M286.57,181.17l-8.49-4.93c3.85-2.22,7.28-2.4,9.76-0.96l8.49,4.93
							C293.85,178.77,290.41,178.95,286.57,181.17z"/>
					</g>
				</g>
				<g>
					<polygon class="st17" points="278.64,260.55 270.15,255.62 261.99,203.86 270.48,208.79 					"/>
				</g>
				<g>
					<polygon class="st19" points="283.98,182.66 275.49,177.73 278.08,176.23 286.57,181.17 					"/>
				</g>
				<g class="st1">
					<defs>
						<path id="SVGID_00000078744845462846716010000007392537689742125485_" class="st1" d="M270.48,208.79l-8.49-4.93
							c-1.39-8.81,5.04-21.25,13.5-26.13l8.49,4.93C275.52,187.55,269.09,199.98,270.48,208.79z"/>
					</defs>
					<use xlink:href="#SVGID_00000078744845462846716010000007392537689742125485_"  style="overflow:visible;fill:#EBEBF1;"/>
					<clipPath id="SVGID_00000062191597199671673790000015917146420086381463_">
						<use xlink:href="#SVGID_00000078744845462846716010000007392537689742125485_"  style="overflow:visible;"/>
					</clipPath>
					<g style="clip-path:url(#SVGID_00000062191597199671673790000015917146420086381463_);enable-background:new    ;">
						<path class="st19" d="M270.48,208.79l-8.49-4.93c-0.42-2.68-0.12-5.69,0.74-8.73l8.49,4.93
							C270.36,203.1,270.06,206.11,270.48,208.79z"/>
						<path class="st19" d="M271.22,200.07l-8.49-4.93c0.97-3.42,2.64-6.86,4.8-9.88l8.49,4.93
							C273.86,193.21,272.19,196.65,271.22,200.07z"/>
						<path class="st19" d="M276.02,190.19l-8.49-4.93c1.65-2.31,3.57-4.37,5.67-5.99l8.49,4.93
							C279.59,185.82,277.66,187.88,276.02,190.19z"/>
						<path class="st19" d="M281.69,184.2l-8.49-4.93c0.74-0.57,1.51-1.09,2.29-1.54l8.49,4.93
							C283.2,183.11,282.43,183.63,281.69,184.2z"/>
					</g>
				</g>
				<g>
					<path class="st9" d="M286.57,181.17c8.46-4.88,14.93,0.11,13.6,10.49l-7.84,60.99c-0.62,4.82-3.72,8.84-6.82,10.64
						c-3.11,1.79-6.22,1.36-6.86-2.73l-8.16-51.76c-1.39-8.81,5.04-21.25,13.5-26.13L286.57,181.17z"/>
				</g>
			</g>
		</g>
	</g>
</g>
</svg>
