<?xml version="1.0" encoding="utf-8"?>
<!-- Generator: Adobe Illustrator 27.3.1, SVG Export Plug-In . SVG Version: 6.00 Build 0)  -->
<svg version="1.1" xmlns="http://www.w3.org/2000/svg" xmlns:xlink="http://www.w3.org/1999/xlink" x="0px" y="0px"
	 viewBox="0 0 2500 2500" style="enable-background:new 0 0 2500 2500;" xml:space="preserve">
<style type="text/css">
	.st0{fill:#FFFFFF;}
	.st1{fill:#2E77E6;}
	.st2{fill:#5896FA;}
	.st3{fill:#D9FFFF;}
	.st4{fill:#296ACC;}
	.st5{fill:#EA5D00;}
	.st6{fill:#005CEA;}
	.st7{fill:#006B73;}
	.st8{fill:#EA7B00;}
	.st9{fill:#D1F5FF;}
	.st10{fill:#FFD145;}
	.st11{fill:#1251B3;}
	.st12{fill:#3383FF;}
	.st13{fill:#AAE0FF;}
	.st14{fill:#E3EEFF;}
	.st15{fill:#3397FF;}
	.st16{fill:#333333;}
	.st17{opacity:0.5;}
	.st18{fill:#F7A58E;}
	.st19{fill:#B3644F;}
	.st20{fill:#F7CEC3;}
	.st21{fill:#262626;}
	.st22{fill:#F0F0F0;}
	.st23{fill:#EA6D00;}
</style>
<g id="BG">
	<rect class="st0" width="2500" height="2500"/>
</g>
<g id="elements">
	<g id="dot">
		<path class="st1" d="M1232.73,2054.36c-6.59-0.07-13.27-0.22-19.87-0.45l0.46-13.14c6.5,0.23,13.07,0.38,19.56,0.44
			L1232.73,2054.36z M1252.62,2054.33l-0.18-13.15c6.49-0.09,13.05-0.26,19.53-0.5l0.5,13.14
			C1265.88,2054.06,1259.21,2054.24,1252.62,2054.33z M1193,2052.97c-6.59-0.39-13.26-0.87-19.83-1.42l1.1-13.1
			c6.46,0.54,13.03,1.01,19.51,1.4L1193,2052.97z M1292.32,2052.82l-0.82-13.12c6.45-0.4,13.02-0.89,19.5-1.46l1.14,13.1
			C1305.55,2051.91,1298.88,2052.41,1292.32,2052.82z M1153.38,2049.65c-6.55-0.71-13.19-1.52-19.74-2.39l1.74-13.04
			c6.44,0.86,12.98,1.65,19.42,2.36L1153.38,2049.65z M1331.93,2049.36l-1.47-13.07c6.47-0.73,13-1.54,19.41-2.42l1.79,13.03
			C1345.14,2047.8,1338.5,2048.62,1331.93,2049.36z M1113.97,2044.37c-6.53-1.04-13.12-2.17-19.6-3.37l2.39-12.93
			c6.37,1.18,12.85,2.29,19.28,3.31L1113.97,2044.37z M1371.32,2043.96l-2.11-12.98c6.4-1.04,12.88-2.17,19.26-3.37l2.43,12.92
			C1384.42,2041.75,1377.83,2042.91,1371.32,2043.96z M1074.86,2037.15c-6.47-1.36-13-2.82-19.41-4.34l3.03-12.8
			c6.3,1.49,12.72,2.92,19.09,4.26L1074.86,2037.15z M1410.4,2036.61l-2.75-12.86c6.32-1.35,12.74-2.81,19.07-4.33l3.07,12.79
			C1423.36,2033.76,1416.83,2035.24,1410.4,2036.61z M1036.16,2028c-6.4-1.69-12.85-3.47-19.17-5.3l3.66-12.63
			c6.21,1.8,12.55,3.55,18.85,5.21L1036.16,2028z M1449.07,2027.34l-3.39-12.71c6.29-1.67,12.62-3.45,18.83-5.27l3.7,12.62
			C1461.91,2023.83,1455.46,2025.63,1449.07,2027.34z M997.97,2016.93c-6.32-2-12.7-4.11-18.95-6.27l4.29-12.43
			c6.15,2.12,12.41,4.19,18.63,6.17L997.97,2016.93z M1487.23,2016.14l-4.02-12.52c6.18-1.98,12.42-4.07,18.55-6.2l4.32,12.42
			C1499.85,2012.01,1493.51,2014.13,1487.23,2016.14z M960.24,2003.92c-6.19-2.31-12.45-4.73-18.6-7.2l4.9-12.2
			c6.05,2.43,12.21,4.81,18.29,7.08L960.24,2003.92z M1524.78,2003.06l-4.63-12.31c6.08-2.29,12.21-4.68,18.22-7.12l4.94,12.19
			C1537.19,1998.3,1530.96,2000.74,1524.78,2003.06z M923.23,1989.06c-6.08-2.62-12.21-5.35-18.21-8.12l5.5-11.94
			c5.9,2.72,11.92,5.4,17.91,7.98L923.23,1989.06z M1561.58,1988.16l-5.24-12.06c5.93-2.57,11.91-5.26,17.78-7.99l5.54,11.93
			C1573.69,1982.81,1567.61,1985.54,1561.58,1988.16z M887.03,1972.38c-5.95-2.92-11.93-5.95-17.77-9.01l6.09-11.65
			c5.75,3.01,11.63,5.99,17.48,8.86L887.03,1972.38z M1597.54,1971.47l-5.83-11.79c5.81-2.88,11.66-5.86,17.38-8.86l6.12,11.64
			C1609.39,1965.52,1603.45,1968.55,1597.54,1971.47z M851.71,1953.92c-5.77-3.2-11.59-6.52-17.3-9.88l6.66-11.34
			c5.61,3.3,11.34,6.57,17.02,9.71L851.71,1953.92z M1632.65,1953.02l-6.4-11.48c5.66-3.15,11.35-6.42,16.93-9.72l6.69,11.32
			C1644.19,1946.49,1638.4,1949.81,1632.65,1953.02z M817.37,1933.75c-5.61-3.49-11.26-7.09-16.78-10.72l7.21-10.99
			c5.43,3.56,10.99,7.11,16.51,10.54L817.37,1933.75z M1666.82,1932.84l-6.96-11.16c5.49-3.43,11.02-6.97,16.43-10.54l7.24,10.98
			C1678.02,1925.75,1672.4,1929.36,1666.82,1932.84z M784.08,1911.91c-5.41-3.74-10.87-7.62-16.22-11.53l7.75-10.63
			c5.27,3.84,10.64,7.66,15.96,11.34L784.08,1911.91z M1699.97,1911l-7.5-10.8c5.32-3.7,10.67-7.52,15.9-11.34l7.77,10.61
			C1710.82,1903.36,1705.38,1907.24,1699.97,1911z M751.92,1888.46c-5.24-4.02-10.5-8.16-15.63-12.31l8.26-10.23
			c5.05,4.08,10.23,8.15,15.38,12.11L751.92,1888.46z M1732.01,1887.54l-8.03-10.42c5.15-3.97,10.31-8.05,15.33-12.12l8.28,10.22
			C1742.49,1879.36,1737.25,1883.5,1732.01,1887.54z M720.97,1863.47c-5.03-4.27-10.08-8.66-15-13.06l8.75-9.81
			c4.85,4.32,9.81,8.64,14.76,12.84L720.97,1863.47z M1762.88,1862.52l-8.53-10.01c4.93-4.2,9.88-8.53,14.72-12.86l8.77,9.8
			C1772.92,1853.86,1767.89,1858.25,1762.88,1862.52z M691.29,1836.99c-4.8-4.5-9.63-9.14-14.34-13.77l9.22-9.37
			c4.64,4.56,9.38,9.12,14.11,13.55L691.29,1836.99z M1792.49,1836.01l-9.01-9.58c4.74-4.46,9.48-9.02,14.08-13.57l9.24,9.35
			C1802.12,1826.84,1797.3,1831.48,1792.49,1836.01z M662.95,1809.1c-4.58-4.74-9.17-9.6-13.64-14.46l9.67-8.91
			c4.4,4.78,8.91,9.56,13.42,14.22L662.95,1809.1z M1820.77,1808.07l-9.47-9.12c4.5-4.67,9.01-9.47,13.4-14.25l9.69,8.89
			C1829.93,1798.45,1825.35,1803.32,1820.77,1808.07z M636.03,1779.86c-4.35-4.96-8.69-10.04-12.91-15.1l10.1-8.42
			c4.15,4.98,8.42,9.98,12.7,14.86L636.03,1779.86z M1847.65,1778.77l-9.91-8.65c4.28-4.9,8.54-9.91,12.69-14.9l10.12,8.4
			C1856.34,1768.7,1852,1773.79,1847.65,1778.77z M610.59,1749.35c-4.1-5.17-8.19-10.46-12.15-15.71l10.5-7.91
			c3.9,5.17,7.92,10.37,11.95,15.46L610.59,1749.35z M1873.07,1748.17l-10.32-8.15c4.04-5.11,8.06-10.33,11.94-15.51l10.52,7.9
			C1881.26,1737.67,1877.18,1742.97,1873.07,1748.17z M586.68,1717.63c-3.84-5.36-7.66-10.84-11.36-16.29l10.88-7.39
			c3.64,5.35,7.4,10.75,11.17,16.02L586.68,1717.63z M1896.96,1716.34l-10.71-7.63c3.78-5.3,7.53-10.71,11.17-16.08l10.89,7.37
			C1904.62,1705.46,1900.8,1710.96,1896.96,1716.34z M564.37,1684.78c-3.58-5.55-7.12-11.21-10.54-16.82l11.23-6.84
			c3.36,5.52,6.85,11.08,10.36,16.54L564.37,1684.78z M1919.27,1683.37l-11.07-7.1c3.5-5.46,6.99-11.05,10.36-16.62l11.24,6.82
			C1926.37,1672.13,1922.82,1677.82,1919.27,1683.37z M543.72,1650.89c-3.28-5.7-6.54-11.52-9.69-17.31l11.55-6.28
			c3.1,5.69,6.3,11.42,9.53,17.03L543.72,1650.89z M1939.92,1649.32l-11.41-6.54c3.24-5.66,6.45-11.42,9.53-17.12l11.57,6.25
			C1946.47,1637.71,1943.21,1643.57,1939.92,1649.32z M524.77,1616.04c-3-5.86-5.97-11.83-8.82-17.76l11.85-5.7
			c2.81,5.83,5.72,11.71,8.67,17.47L524.77,1616.04z M1958.86,1614.27l-11.72-5.97c2.94-5.77,5.86-11.68,8.67-17.58l11.87,5.67
			C1964.82,1602.39,1961.85,1608.4,1958.86,1614.27z M507.58,1580.32c-2.7-5.99-5.37-12.1-7.92-18.16l12.12-5.11
			c2.51,5.96,5.14,11.98,7.79,17.87L507.58,1580.32z M1976.06,1578.31l-12-5.37c2.67-5.95,5.29-12.01,7.79-18l12.13,5.07
			C1981.43,1566.1,1978.77,1572.25,1976.06,1578.31z M492.18,1543.8c-2.42-6.15-4.78-12.41-7.04-18.6l12.36-4.5
			c2.22,6.09,4.55,12.24,6.92,18.29L492.18,1543.8z M1991.44,1541.52l-12.26-4.77c2.36-6.07,4.68-12.26,6.89-18.37l12.37,4.46
			C1996.2,1529.06,1993.84,1535.34,1991.44,1541.52z M478.57,1506.43c-2.1-6.25-4.16-12.62-6.1-18.92l12.56-3.88
			c1.92,6.2,3.93,12.46,6,18.61L478.57,1506.43z M2004.98,1503.99l-12.48-4.15c2.06-6.19,4.06-12.48,5.96-18.7l12.58,3.84
			C2009.11,1491.3,2007.07,1497.7,2004.98,1503.99z M466.84,1468.44c-1.79-6.34-3.52-12.81-5.15-19.21l12.74-3.25
			c1.61,6.3,3.31,12.65,5.07,18.89L466.84,1468.44z M2016.61,1465.88l-12.67-3.52c1.74-6.25,3.42-12.61,5-18.91l12.75,3.21
			C2020.09,1453.06,2018.37,1459.53,2016.61,1465.88z M457.01,1429.91c-1.47-6.43-2.88-12.96-4.19-19.44l12.89-2.61
			c1.29,6.37,2.68,12.8,4.12,19.12L457.01,1429.91z M2026.3,1427.31l-12.83-2.89c1.43-6.33,2.79-12.77,4.06-19.13l12.9,2.57
			C2029.14,1414.33,2027.75,1420.88,2026.3,1427.31z M449.12,1390.93c-1.15-6.5-2.23-13.1-3.22-19.62l13-1.97
			c0.97,6.42,2.04,12.91,3.17,19.3L449.12,1390.93z M2034.07,1388.31l-12.96-2.25c1.11-6.41,2.16-12.9,3.1-19.31l13.01,1.93
			C2036.27,1375.2,2035.2,1381.8,2034.07,1388.31z M443.16,1351.62c-0.83-6.54-1.58-13.18-2.25-19.75l13.08-1.33
			c0.65,6.47,1.4,13,2.21,19.43L443.16,1351.62z M2039.9,1348.98l-13.05-1.6c0.79-6.44,1.51-12.98,2.15-19.44l13.09,1.28
			C2041.44,1335.79,2040.7,1342.44,2039.9,1348.98z M439.15,1312.06c-0.5-6.57-0.93-13.24-1.27-19.84l13.13-0.68
			c0.34,6.49,0.76,13.06,1.25,19.52L439.15,1312.06z M2043.78,1309.41l-13.12-0.96c0.47-6.48,0.87-13.05,1.19-19.52l13.13,0.64
			C2044.67,1296.14,2044.26,1302.82,2043.78,1309.41z M437.09,1272.35c-0.18-6.58-0.28-13.27-0.31-19.87l13.15-0.04
			c0.02,6.5,0.12,13.08,0.3,19.56L437.09,1272.35z M2045.71,1269.7l-13.15-0.32c0.16-6.48,0.24-13.06,0.24-19.56
			c0-1.74,0-3.47-0.02-5.2l13.15-0.09c0.01,1.76,0.02,3.53,0.02,5.29C2045.95,1256.42,2045.87,1263.11,2045.71,1269.7z
			 M450.11,1232.87l-13.15-0.28c0.14-6.6,0.36-13.28,0.66-19.87l13.14,0.6C450.46,1219.8,450.25,1226.38,450.11,1232.87z
			 M2032.42,1225.07c-0.2-6.49-0.48-13.07-0.84-19.54l13.13-0.72c0.36,6.58,0.65,13.27,0.85,19.86L2032.42,1225.07z M451.88,1193.8
			l-13.12-0.92c0.46-6.59,1.01-13.26,1.63-19.81l13.09,1.24C452.88,1180.75,452.34,1187.31,451.88,1193.8z M2030.26,1186.01
			c-0.52-6.47-1.12-13.03-1.79-19.48l13.08-1.37c0.69,6.56,1.3,13.22,1.83,19.8L2030.26,1186.01z M455.57,1154.86l-13.06-1.56
			c0.78-6.55,1.66-13.18,2.6-19.71l13.01,1.88C457.2,1141.89,456.34,1148.41,455.57,1154.86z M2026.2,1147.11
			c-0.83-6.43-1.76-12.94-2.75-19.36l13-2.01c1.01,6.53,1.95,13.15,2.8,19.69L2026.2,1147.11z M461.17,1116.15l-12.96-2.21
			c1.11-6.5,2.31-13.08,3.58-19.56l12.91,2.53C463.44,1103.28,462.26,1109.75,461.17,1116.15z M2020.21,1108.46
			c-1.15-6.39-2.4-12.85-3.71-19.2l12.88-2.65c1.33,6.46,2.6,13.03,3.77,19.52L2020.21,1108.46z M468.68,1077.76l-12.84-2.85
			c1.43-6.43,2.95-12.94,4.54-19.36l12.76,3.16C471.59,1065.03,470.09,1071.44,468.68,1077.76z M2012.32,1070.15
			c-1.47-6.32-3.04-12.71-4.66-18.99l12.73-3.29c1.65,6.39,3.24,12.88,4.74,19.31L2012.32,1070.15z M478.1,1039.8l-12.68-3.48
			c1.75-6.37,3.6-12.8,5.5-19.11l12.59,3.8C481.64,1027.22,479.82,1033.54,478.1,1039.8z M2002.53,1032.28
			c-1.78-6.25-3.67-12.56-5.6-18.74l12.55-3.92c1.96,6.29,3.88,12.7,5.69,19.05L2002.53,1032.28z M489.41,1002.28l-12.49-4.11
			c2.07-6.28,4.24-12.63,6.47-18.88l12.38,4.42C493.58,989.86,491.44,996.11,489.41,1002.28z M1990.87,994.95
			c-2.09-6.15-4.28-12.35-6.52-18.44l12.34-4.54c2.28,6.19,4.51,12.5,6.63,18.75L1990.87,994.95z M502.6,965.33l-12.27-4.73
			c2.38-6.17,4.87-12.41,7.4-18.52l12.15,5.03C507.39,953.12,504.94,959.25,502.6,965.33z M1977.36,958.24
			c-2.38-6-4.87-12.07-7.41-18.03l12.1-5.15c2.58,6.06,5.11,12.22,7.53,18.33L1977.36,958.24z M517.61,929.09l-12.02-5.33
			c2.69-6.05,5.48-12.15,8.31-18.12l11.88,5.63C523.01,917.14,520.25,923.14,517.61,929.09z M1962.1,922.38
			c-2.69-5.9-5.48-11.84-8.3-17.65l11.83-5.74c2.87,5.91,5.7,11.94,8.43,17.94L1962.1,922.38z M534.4,893.66l-11.74-5.93
			c2.98-5.9,6.08-11.85,9.2-17.67l11.59,6.22C540.38,882.01,537.34,887.85,534.4,893.66z M1945.07,887.29
			c-2.97-5.75-6.05-11.55-9.16-17.22l11.53-6.32c3.16,5.77,6.29,11.66,9.31,17.51L1945.07,887.29z M552.93,859.13l-11.43-6.5
			c3.27-5.75,6.65-11.53,10.06-17.19l11.27,6.78C559.47,847.78,556.14,853.47,552.93,859.13z M1926.32,853.07
			c-3.26-5.62-6.63-11.26-10.01-16.76l11.21-6.88c3.43,5.59,6.86,11.33,10.17,17.04L1926.32,853.07z M573.13,825.56l-11.09-7.06
			c3.55-5.58,7.21-11.18,10.89-16.66l10.92,7.33C580.23,814.56,576.62,820.08,573.13,825.56z M1905.89,819.8
			c-3.52-5.44-7.17-10.9-10.82-16.25l10.85-7.42c3.72,5.44,7.42,11,11,16.52L1905.89,819.8z M594.96,793.05l-10.73-7.6
			c3.81-5.38,7.75-10.8,11.7-16.1l10.54,7.86C602.59,782.43,598.71,787.76,594.96,793.05z M1883.84,787.56
			c-3.8-5.27-7.7-10.55-11.62-15.71l10.48-7.95c3.98,5.24,7.95,10.61,11.81,15.97L1883.84,787.56z M618.36,761.67l-10.35-8.12
			c4.08-5.19,8.27-10.41,12.47-15.5l10.14,8.37C626.5,751.43,622.37,756.56,618.36,761.67z M1860.23,756.44
			c-4.05-5.07-8.21-10.16-12.38-15.12l10.07-8.45c4.24,5.05,8.47,10.22,12.58,15.37L1860.23,756.44z M643.27,731.48l-9.93-8.62
			c4.32-4.98,8.77-9.98,13.21-14.86l9.72,8.86C651.9,721.66,647.52,726.58,643.27,731.48z M1835.1,726.5
			c-4.28-4.86-8.7-9.74-13.11-14.5l9.64-8.94c4.49,4.84,8.97,9.8,13.33,14.74L1835.1,726.5z M669.63,702.57l-9.5-9.09
			c4.57-4.77,9.25-9.55,13.92-14.19l9.27,9.33C678.73,693.18,674.12,697.87,669.63,702.57z M1808.52,697.82
			c-4.52-4.65-9.17-9.31-13.81-13.85l9.2-9.4c4.72,4.62,9.44,9.35,14.04,14.07L1808.52,697.82z M697.36,674.99l-9.04-9.55
			c4.8-4.54,9.71-9.08,14.6-13.49l8.8,9.77C706.91,666.06,702.08,670.52,697.36,674.99z M1780.56,670.47
			c-4.75-4.42-9.62-8.84-14.48-13.15l8.72-9.84c4.94,4.38,9.9,8.88,14.72,13.37L1780.56,670.47z M726.4,648.82l-8.56-9.98
			c5.01-4.29,10.13-8.58,15.24-12.75l8.31,10.19C736.37,640.37,731.33,644.59,726.4,648.82z M1751.27,644.52
			c-4.96-4.19-10.05-8.37-15.12-12.43l8.23-10.26c5.15,4.13,10.32,8.38,15.36,12.64L1751.27,644.52z M756.69,624.11l-8.06-10.39
			c5.2-4.04,10.53-8.07,15.84-11.98l7.8,10.58C767.05,616.17,761.8,620.14,756.69,624.11z M1720.74,620.03
			c-5.17-3.94-10.46-7.87-15.71-11.68l7.71-10.65c5.34,3.87,10.71,7.86,15.97,11.87L1720.74,620.03z M788.13,600.93l-7.54-10.77
			c5.4-3.78,10.92-7.54,16.41-11.18l7.27,10.96C798.88,593.51,793.45,597.21,788.13,600.93z M1689.03,597.07
			c-5.35-3.68-10.83-7.34-16.28-10.89l7.18-11.02c5.54,3.61,11.1,7.33,16.54,11.07L1689.03,597.07z M820.67,579.33l-7-11.13
			c5.57-3.5,11.26-6.99,16.93-10.36l6.72,11.3C831.75,572.46,826.15,575.89,820.67,579.33z M1656.21,575.69
			c-5.53-3.41-11.18-6.8-16.8-10.08l6.62-11.36c5.71,3.33,11.45,6.77,17.08,10.24L1656.21,575.69z M854.22,559.38l-6.44-11.46
			c5.74-3.22,11.59-6.42,17.41-9.5l6.16,11.62C865.62,553.06,859.86,556.21,854.22,559.38z M1622.37,555.96
			c-5.7-3.14-11.52-6.25-17.29-9.23l6.05-11.67c5.86,3.04,11.78,6.2,17.57,9.39L1622.37,555.96z M888.69,541.11l-5.87-11.77
			c5.9-2.94,11.9-5.84,17.85-8.63l5.57,11.91C900.4,535.36,894.49,538.22,888.69,541.11z M1587.57,537.92
			c-5.86-2.85-11.82-5.67-17.73-8.37l5.46-11.96c6,2.74,12.07,5.6,18.03,8.51L1587.57,537.92z M924.01,524.58l-5.28-12.04
			c6.02-2.64,12.16-5.24,18.25-7.73l4.98,12.17C935.97,519.43,929.93,521.98,924.01,524.58z M1551.91,521.63
			c-6-2.56-12.1-5.08-18.13-7.48l4.86-12.22c6.14,2.44,12.34,5,18.44,7.6L1551.91,521.63z M960.15,509.8l-4.67-12.29
			c6.18-2.35,12.46-4.65,18.67-6.83l4.37,12.4C972.4,505.23,966.23,507.49,960.15,509.8z M1515.46,507.13
			c-6.11-2.25-12.33-4.46-18.49-6.57l4.24-12.45c6.27,2.14,12.59,4.38,18.8,6.68L1515.46,507.13z M997.05,496.81l-4.06-12.51
			c6.27-2.03,12.66-4.02,18.99-5.9l3.74,12.61C1009.5,492.86,1003.21,494.82,997.05,496.81z M1478.31,494.46
			c-6.2-1.94-12.5-3.83-18.73-5.62l3.62-12.64c6.34,1.81,12.75,3.74,19.05,5.71L1478.31,494.46z M1034.54,485.68l-3.43-12.7
			c6.37-1.72,12.85-3.38,19.26-4.94l3.11,12.78C1047.17,482.36,1040.8,483.99,1034.54,485.68z M1440.71,483.7
			c-6.27-1.63-12.66-3.2-18.99-4.68l2.98-12.81c6.44,1.5,12.93,3.1,19.31,4.75L1440.71,483.7z M1072.54,476.43l-2.79-12.85
			c6.45-1.4,13-2.74,19.48-3.98l2.47,12.92C1085.33,473.74,1078.88,475.05,1072.54,476.43z M1402.61,474.82
			c-6.34-1.31-12.8-2.57-19.2-3.73l2.35-12.94c6.5,1.18,13.07,2.45,19.52,3.79L1402.61,474.82z M1110.95,469.08l-2.15-12.97
			c6.51-1.08,13.12-2.09,19.65-3.01l1.83,13.02C1123.86,467.02,1117.35,468.02,1110.95,469.08z M1364.13,467.85
			c-6.4-1-12.92-1.93-19.36-2.77l1.7-13.04c6.55,0.85,13.17,1.8,19.68,2.82L1364.13,467.85z M1149.69,463.64l-1.51-13.06
			c6.54-0.75,13.2-1.44,19.78-2.03l1.18,13.1C1162.67,462.22,1156.12,462.89,1149.69,463.64z M1325.34,462.79
			c-6.45-0.68-13-1.29-19.47-1.81l1.06-13.11c6.58,0.53,13.24,1.15,19.8,1.84L1325.34,462.79z M1188.64,460.11l-0.86-13.12
			c6.58-0.43,13.27-0.79,19.85-1.06l0.54,13.14C1201.69,459.34,1195.12,459.69,1188.64,460.11z M1286.36,459.64
			c-6.48-0.36-13.06-0.65-19.54-0.86l0.41-13.14c6.59,0.21,13.27,0.5,19.86,0.87L1286.36,459.64z M1227.69,458.5l-0.22-13.15
			c6.61-0.11,13.28-0.15,19.88-0.1l-0.09,13.15C1240.77,458.36,1234.2,458.39,1227.69,458.5z"/>
		<path class="st2" d="M1236.19,1099.53l-15.94-11.63l3.13-4.3l15.94,11.63L1236.19,1099.53z M1204.32,1076.28l-15.94-11.63
			l3.13-4.3l15.94,11.63L1204.32,1076.28z M1172.45,1053.03l-15.94-11.63l3.13-4.3l15.94,11.63L1172.45,1053.03z M1140.58,1029.77
			l-15.94-11.63l3.13-4.3l15.94,11.63L1140.58,1029.77z M1108.71,1006.52l-15.94-11.63l3.13-4.3l15.94,11.63L1108.71,1006.52z
			 M1076.84,983.27l-15.94-11.63l3.13-4.3l15.94,11.63L1076.84,983.27z M1044.97,960.02l-15.94-11.63l3.13-4.3l15.94,11.63
			L1044.97,960.02z M1013.1,936.76l-15.94-11.63l3.13-4.3l15.93,11.63L1013.1,936.76z M981.23,913.51l-15.94-11.63l3.13-4.3
			l15.94,11.63L981.23,913.51z M949.36,890.26l-15.94-11.63l3.13-4.3l15.93,11.63L949.36,890.26z M917.49,867.01l-15.93-11.63
			l3.13-4.3l15.94,11.63L917.49,867.01z M885.62,843.76l-15.93-11.63l3.13-4.3l15.94,11.63L885.62,843.76z M853.75,820.5
			l-15.94-11.63l3.13-4.3l15.94,11.63L853.75,820.5z M821.88,797.25l-15.94-11.63l3.13-4.3l15.94,11.63L821.88,797.25z M790,774
			l-15.94-11.63l3.13-4.3l15.93,11.63L790,774z M758.13,750.75l-15.94-11.63l3.13-4.3l15.93,11.63L758.13,750.75z"/>
		<path class="st2" d="M510.19,1459.72l-2.19-4.85l17.97-8.13l2.19,4.85L510.19,1459.72z M546.13,1443.46l-2.19-4.85l17.97-8.13
			l2.19,4.85L546.13,1443.46z M582.07,1427.2l-2.19-4.85l17.97-8.13l2.19,4.85L582.07,1427.2z M618.01,1410.94l-2.19-4.85
			l17.97-8.13l2.19,4.85L618.01,1410.94z M653.96,1394.67l-2.19-4.85l17.97-8.13l2.19,4.85L653.96,1394.67z M689.9,1378.41
			l-2.19-4.85l17.97-8.13l2.19,4.85L689.9,1378.41z M725.84,1362.15l-2.19-4.85l17.97-8.13l2.19,4.85L725.84,1362.15z
			 M761.79,1345.88l-2.19-4.85l17.97-8.13l2.19,4.85L761.79,1345.88z M797.73,1329.62l-2.19-4.85l17.97-8.13l2.19,4.85
			L797.73,1329.62z M833.67,1313.36l-2.19-4.85l17.97-8.13l2.19,4.85L833.67,1313.36z M869.61,1297.09l-2.19-4.85l17.97-8.13
			l2.19,4.85L869.61,1297.09z M905.56,1280.83l-2.19-4.85l17.97-8.13l2.19,4.85L905.56,1280.83z M941.5,1264.57l-2.19-4.85
			l17.97-8.13l2.19,4.85L941.5,1264.57z M977.44,1248.31l-2.19-4.85l17.97-8.13l2.19,4.85L977.44,1248.31z M1013.39,1232.04
			l-2.19-4.85l17.97-8.13l2.19,4.85L1013.39,1232.04z M1049.33,1215.78l-2.19-4.85l17.97-8.13l2.19,4.85L1049.33,1215.78z
			 M1085.27,1199.52l-2.19-4.85l17.97-8.13l2.19,4.85L1085.27,1199.52z M1121.21,1183.25l-2.19-4.85l17.97-8.13l2.19,4.85
			L1121.21,1183.25z M1157.16,1166.99l-2.19-4.85l17.97-8.13l2.19,4.85L1157.16,1166.99z M1193.1,1150.73l-2.19-4.85l17.97-8.13
			l2.19,4.85L1193.1,1150.73z"/>
		<path class="st2" d="M525.46,1337.42l-3.66-3.86l6.42-6.08l3.66,3.86L525.46,1337.42z M546.2,1317.77l-3.66-3.86l14.32-13.57
			l3.66,3.86L546.2,1317.77z M574.83,1290.64l-3.66-3.86l14.32-13.57l3.66,3.86L574.83,1290.64z M603.47,1263.5l-3.66-3.86
			l14.32-13.57l3.66,3.86L603.47,1263.5z M632.11,1236.37l-3.66-3.86l14.32-13.57l3.66,3.86L632.11,1236.37z M660.74,1209.23
			l-3.66-3.86l14.32-13.57l3.66,3.86L660.74,1209.23z M689.38,1182.09l-3.66-3.86l14.32-13.57l3.66,3.86L689.38,1182.09z
			 M718.01,1154.96l-3.66-3.86l14.32-13.57l3.66,3.86L718.01,1154.96z M746.65,1127.82l-3.66-3.86l14.32-13.57l3.66,3.86
			L746.65,1127.82z M775.29,1100.69l-3.66-3.86l14.32-13.57l3.66,3.86L775.29,1100.69z M803.92,1073.55l-3.66-3.86l14.32-13.57
			l3.66,3.86L803.92,1073.55z M832.56,1046.41l-3.66-3.86l14.32-13.57l3.66,3.86L832.56,1046.41z M861.19,1019.28l-3.66-3.86
			l14.32-13.57l3.66,3.86L861.19,1019.28z M889.83,992.14l-3.66-3.86l14.32-13.57l3.66,3.86L889.83,992.14z M918.46,965.01
			l-3.66-3.86l14.32-13.57l3.66,3.86L918.46,965.01z M947.1,937.87l-3.66-3.86l14.32-13.57l3.66,3.86L947.1,937.87z M975.74,910.73
			l-3.66-3.86l14.32-13.57l3.66,3.86L975.74,910.73z M1004.37,883.6l-3.66-3.86l14.32-13.57l3.66,3.86L1004.37,883.6z
			 M1033.01,856.46l-3.66-3.86l14.32-13.57l3.66,3.86L1033.01,856.46z M1061.65,829.33l-3.66-3.86l14.32-13.57l3.66,3.86
			L1061.65,829.33z M1090.28,802.19l-3.66-3.86l14.32-13.57l3.66,3.86L1090.28,802.19z M1118.92,775.06l-3.66-3.86l14.32-13.57
			l3.66,3.86L1118.92,775.06z M1147.55,747.92l-3.66-3.86l14.32-13.57l3.66,3.86L1147.55,747.92z M1176.19,720.78l-3.66-3.86
			l14.32-13.57l3.66,3.86L1176.19,720.78z M1204.82,693.65l-3.66-3.86l14.32-13.57l3.66,3.86L1204.82,693.65z M1233.46,666.51
			l-3.66-3.86l14.32-13.57l3.66,3.86L1233.46,666.51z M1262.1,639.38l-3.66-3.86l14.32-13.57l3.66,3.86L1262.1,639.38z
			 M1290.73,612.24l-3.66-3.86l14.32-13.57l3.66,3.86L1290.73,612.24z M1319.37,585.1l-3.66-3.86l14.32-13.57l3.66,3.86
			L1319.37,585.1z M1348,557.97l-3.66-3.86l14.32-13.57l3.66,3.86L1348,557.97z M1376.64,530.83l-3.66-3.86l14.32-13.57l3.66,3.86
			L1376.64,530.83z"/>
		<path class="st2" d="M1862.53,1474.58l-5.27-13.22l4.94-1.97l5.27,13.22L1862.53,1474.58z M1849.96,1443.04l-7.3-18.32l4.94-1.97
			l7.3,18.32L1849.96,1443.04z M1835.36,1406.39l-7.3-18.32l4.94-1.97l7.3,18.32L1835.36,1406.39z M1820.75,1369.74l-7.3-18.32
			l4.94-1.97l7.3,18.32L1820.75,1369.74z M1806.15,1333.09l-7.3-18.32l4.94-1.97l7.3,18.32L1806.15,1333.09z M1791.55,1296.44
			l-7.3-18.32l4.94-1.97l7.3,18.32L1791.55,1296.44z M1776.94,1259.79l-7.3-18.32l4.94-1.97l7.3,18.32L1776.94,1259.79z
			 M1762.34,1223.15l-7.3-18.32l4.94-1.97l7.3,18.32L1762.34,1223.15z M1747.74,1186.5l-7.3-18.32l4.94-1.97l7.3,18.32
			L1747.74,1186.5z M1733.13,1149.85l-7.3-18.32l4.94-1.97l7.3,18.32L1733.13,1149.85z M1718.53,1113.2l-7.3-18.32l4.94-1.97
			l7.3,18.32L1718.53,1113.2z M1703.92,1076.55l-7.3-18.32l4.94-1.97l7.3,18.32L1703.92,1076.55z M1689.32,1039.9l-7.3-18.32
			l4.94-1.97l7.3,18.32L1689.32,1039.9z M1674.72,1003.26l-7.3-18.32l4.94-1.97l7.3,18.32L1674.72,1003.26z M1660.11,966.61
			l-7.3-18.32l4.94-1.97l7.3,18.32L1660.11,966.61z M1645.51,929.96l-7.3-18.32l4.94-1.97l7.3,18.32L1645.51,929.96z
			 M1630.91,893.31l-7.3-18.32l4.94-1.97l7.3,18.32L1630.91,893.31z M1616.3,856.66l-7.3-18.32l4.94-1.97l7.3,18.32L1616.3,856.66z
			 M1601.7,820.01l-7.3-18.32l4.94-1.97l7.3,18.32L1601.7,820.01z M1587.1,783.36l-7.3-18.32l4.94-1.97l7.3,18.32L1587.1,783.36z
			 M1572.49,746.72l-7.3-18.32l4.94-1.97l7.3,18.32L1572.49,746.72z M1557.89,710.07l-7.3-18.32l4.94-1.97l7.3,18.32L1557.89,710.07
			z M1543.29,673.42l-7.3-18.32l4.94-1.97l7.3,18.32L1543.29,673.42z M1528.68,636.77l-7.3-18.32l4.94-1.97l7.3,18.32
			L1528.68,636.77z"/>
		<path class="st2" d="M1858.37,1472.64l-16.8-10.34l2.79-4.53l16.8,10.34L1858.37,1472.64z M1824.77,1451.97l-16.8-10.34l2.79-4.53
			l16.8,10.34L1824.77,1451.97z M1791.18,1431.29l-16.8-10.34l2.79-4.53l16.8,10.34L1791.18,1431.29z M1757.58,1410.61l-16.8-10.34
			l2.79-4.53l16.8,10.34L1757.58,1410.61z M1723.98,1389.94l-16.8-10.34l2.79-4.53l16.8,10.34L1723.98,1389.94z M1690.38,1369.26
			l-16.8-10.34l2.79-4.53l16.8,10.34L1690.38,1369.26z M1656.78,1348.59l-16.8-10.34l2.79-4.53l16.8,10.34L1656.78,1348.59z
			 M1623.18,1327.91l-16.8-10.34l2.79-4.53l16.8,10.34L1623.18,1327.91z M1589.58,1307.23l-16.8-10.34l2.79-4.53l16.8,10.34
			L1589.58,1307.23z M1555.99,1286.56l-16.8-10.34l2.79-4.53l16.8,10.34L1555.99,1286.56z M1522.39,1265.88l-16.8-10.34l2.79-4.53
			l16.8,10.34L1522.39,1265.88z M1488.79,1245.21l-16.8-10.34l2.79-4.53l16.8,10.34L1488.79,1245.21z M1455.19,1224.53l-16.8-10.34
			l2.79-4.53l16.8,10.34L1455.19,1224.53z M1421.59,1203.85l-16.8-10.34l2.79-4.53l16.8,10.34L1421.59,1203.85z M1387.99,1183.18
			l-16.8-10.34l2.79-4.53l16.8,10.34L1387.99,1183.18z M1354.39,1162.5l-16.8-10.34l2.79-4.53l16.8,10.34L1354.39,1162.5z
			 M1320.79,1141.83l-16.8-10.34l2.79-4.53l16.8,10.34L1320.79,1141.83z M1287.2,1121.15l-16.8-10.34l2.79-4.53l16.8,10.34
			L1287.2,1121.15z"/>
		<path class="st2" d="M1272.89,1110.97l-2.2-4.84l17.96-8.16l2.2,4.84L1272.89,1110.97z M1308.81,1094.64l-2.2-4.84l17.96-8.16
			l2.2,4.84L1308.81,1094.64z M1344.72,1078.32l-2.2-4.84l17.96-8.16l2.2,4.84L1344.72,1078.32z M1380.64,1061.99l-2.2-4.84
			l17.96-8.16l2.2,4.84L1380.64,1061.99z M1416.55,1045.67l-2.2-4.84l17.96-8.16l2.2,4.84L1416.55,1045.67z M1452.46,1029.34
			l-2.2-4.84l17.96-8.16l2.2,4.84L1452.46,1029.34z M1488.38,1013.02l-2.2-4.84l17.96-8.16l2.2,4.84L1488.38,1013.02z
			 M1524.29,996.69l-2.2-4.84l17.96-8.16l2.2,4.84L1524.29,996.69z M1560.21,980.37l-2.2-4.84l17.96-8.16l2.2,4.84L1560.21,980.37z
			 M1596.12,964.04l-2.2-4.84l17.96-8.16l2.2,4.84L1596.12,964.04z M1632.04,947.72l-2.2-4.84l17.96-8.16l2.2,4.84L1632.04,947.72z
			 M1667.95,931.39l-2.2-4.84l17.96-8.16l2.2,4.84L1667.95,931.39z M1703.87,915.07l-2.2-4.84l17.96-8.16l2.2,4.84L1703.87,915.07z
			 M1739.78,898.74l-2.2-4.84l17.96-8.16l2.2,4.84L1739.78,898.74z M1775.7,882.42l-2.2-4.84l17.96-8.16l2.2,4.84L1775.7,882.42z"/>
	</g>
	<g id="shield">
		<g>
			<g>
				<g>
					<path class="st3" d="M219.71,1321.34L219.71,1321.34c0-0.66,0-0.95,0-1.01C219.71,1320.45,219.71,1321.34,219.71,1321.34z"/>
					<path class="st3" d="M219.71,1321.34L219.71,1321.34c0-0.66,0-0.95,0-1.01C219.71,1320.45,219.71,1321.34,219.71,1321.34z"/>
					<path class="st3" d="M612.43,1323.1c0,0,0-0.89,0-1.01C612.44,1322.15,612.44,1322.44,612.43,1323.1L612.43,1323.1z"/>
					<path class="st3" d="M612.43,1323.1c0,0,0-0.89,0-1.01C612.44,1322.15,612.44,1322.44,612.43,1323.1L612.43,1323.1z"/>
					<path class="st0" d="M416.88,1215.24c-45.77,49.02-118.79,89.2-196.94,106.32c-0.02,5.22-0.15,34.13-0.75,167.41
						c-0.79,177.79,168.41,264.67,194.68,278.01c25.45-11.72,196.79-98.46,197.59-276.25c0.6-133.28,0.72-162.19,0.75-167.41
						C534.21,1305.49,462.2,1264.67,416.88,1215.24z"/>
				</g>
			</g>
			<g>
				<g>
					<path class="st4" d="M416.41,1247.37c-44.82,41.11-106.9,73.42-175.18,91.04l-0.67,150.64
						c-0.31,68.93,27.07,131.28,81.39,185.34c35.69,35.52,73.21,57.55,92.25,67.45c0.82-0.42,1.72-0.88,2.6-1.34v-492.77
						C416.67,1247.6,416.53,1247.49,416.41,1247.37z"/>
				</g>
				<g>
					<path class="st1" d="M416.8,1247.72v492.77c19.8-10.3,55.79-31.59,90.25-65.28c54.79-53.57,82.73-115.68,83.04-184.6
						l0.67-150.64C522.84,1321.8,461.21,1289.07,416.8,1247.72z"/>
				</g>
			</g>
		</g>
		<g>
			<path class="st0" d="M354.35,1478.31v87.52c0,9.74,118.99,9.74,118.99,0v-87.52H354.35z M419.86,1524.79v24.81
				c0,3.3-2.69,6.05-5.99,6.05c-3.36,0-6.05-2.74-6.05-6.05v-24.86c-5.1-2.3-8.68-7.45-8.68-13.38c0-8.12,6.61-14.67,14.73-14.67
				s14.67,6.55,14.67,14.67C428.54,1517.34,425.02,1522.49,419.86,1524.79z"/>
			<path class="st0" d="M459.89,1474.58l-14.95-0.5l10.44-12.13c14.25-14.62,13.96-38.11-0.66-52.37
				c-14.62-14.25-38.11-13.96-52.37,0.67l-4.11,4.22l-8.62-8.41l4.11-4.22c18.89-19.38,50.02-19.77,69.4-0.88
				c19.37,18.89,19.77,50.02,0.88,69.4L459.89,1474.58z"/>
		</g>
	</g>
	<g id="Document">
		<g>
			<rect x="1301.62" y="291.74" class="st4" width="232.81" height="290.6"/>
		</g>
		<g>
			<g>
				<rect x="1331.81" y="321.75" class="st0" width="232.81" height="290.6"/>
				<path class="st2" d="M1568.5,616.22h-240.57V317.87h240.57V616.22z M1335.69,608.47h225.05V325.62h-225.05V608.47z"/>
			</g>
		</g>
		<g>
			<rect x="1360.89" y="212.21" class="st5" width="232.81" height="290.6"/>
			<rect x="1444.79" y="250.28" class="st0" width="120.42" height="18.9"/>
			<rect x="1409.17" y="294.68" class="st0" width="156.04" height="18.9"/>
			<rect x="1409.17" y="339.09" class="st0" width="156.04" height="18.9"/>
			<rect x="1409.17" y="383.49" class="st0" width="156.04" height="18.9"/>
			<rect x="1409.17" y="427.89" class="st0" width="156.04" height="18.9"/>
		</g>
		<g>
			<rect x="1398.05" y="381.22" class="st2" width="232.81" height="290.6"/>
			<rect x="1474.21" y="428.93" class="st6" width="120.42" height="18.9"/>
			<rect x="1438.6" y="473.33" class="st6" width="156.04" height="18.9"/>
			<rect x="1438.6" y="517.74" class="st6" width="156.04" height="18.9"/>
			<rect x="1438.6" y="562.14" class="st6" width="156.04" height="18.9"/>
			<rect x="1438.6" y="606.54" class="st6" width="156.04" height="18.9"/>
		</g>
	</g>
	<g id="gear">
		<circle class="st0" cx="666.27" cy="645.85" r="91.48"/>
		<g>
			<path class="st7" d="M810.59,732.84c11.86-19.67,19.28-40.93,22.42-62.38l6.81,1l13.46,1.98l0.17,0.01
				c3.63-24.54,2.39-49.37-3.54-73.09l-20.02,4.96c-5.37-21.46-14.83-41.9-28.32-59.92l16.59-12.33
				c-14.2-19.27-32.42-36.12-54.17-49.24l-10.69,17.72c-19.74-11.9-40.93-19.28-62.38-22.42l2.99-20.44
				c-24.54-3.63-49.41-2.33-73.09,3.54l4.96,20.02c-21.46,5.37-41.9,14.83-59.92,28.32l-12.33-16.59
				c-19.27,14.2-36.12,32.42-49.24,54.17l17.73,10.69c-11.9,19.74-19.28,40.93-22.42,62.38l-14.46-2.13l-5.91-0.82l-0.07-0.04
				c-3.63,24.54-2.33,49.41,3.53,73.08l20.02-4.96c5.37,21.46,14.9,41.94,28.38,59.96l-16.59,12.33
				c14.2,19.27,32.35,36.08,54.1,49.2l10.69-17.72c19.74,11.9,40.99,19.32,62.45,22.46l-2.35,15.89l-0.64,4.56
				c24.54,3.63,49.34,2.29,73.02-3.57l-4.96-20.02c21.46-5.37,41.94-14.9,60.03-28.34l12.33,16.59
				c19.21-14.24,36.01-32.39,49.13-54.14L810.59,732.84z M619.07,724.18c-43.3-26.11-57.22-82.3-31.1-125.6
				c26.07-43.24,82.25-57.15,125.56-31.03c43.24,26.07,57.15,82.25,31.08,125.49C718.48,736.34,662.3,750.25,619.07,724.18z"/>
		</g>
		<g>
			<path class="st8" d="M468.24,720.7c-6.67-10.09-15.11-18.42-24.6-24.76l2.01-3.02l3.98-5.95l0.05-0.08
				c-10.85-7.27-22.94-12.29-35.56-14.83l-2.17,10.64c-11.42-2.29-23.28-2.42-34.9-0.07l-2.12-10.68
				c-12.37,2.4-24.5,7.25-35.66,14.63l6.01,9.09c-10.12,6.7-18.42,15.11-24.76,24.6l-9.05-6.04c-7.27,10.85-12.27,22.97-14.83,35.55
				l10.64,2.17c-2.3,11.42-2.42,23.28-0.07,34.9l-10.68,2.12c2.4,12.37,7.25,24.5,14.63,35.66l9.09-6.01
				c6.7,10.12,15.11,18.42,24.6,24.76l-4.28,6.4l-1.73,2.63l-0.03,0.02c10.85,7.27,22.97,12.27,35.55,14.83l2.17-10.64
				c11.42,2.29,23.31,2.39,34.93,0.05l2.12,10.68c12.37-2.4,24.47-7.23,35.62-14.61l-6.01-9.09c10.12-6.7,18.45-15.13,24.79-24.62
				l7.02,4.71l2.02,1.34c7.27-10.85,12.24-22.95,14.8-35.53l-10.64-2.17c2.29-11.42,2.39-23.31,0.09-34.95l10.68-2.12
				c-2.43-12.35-7.27-24.45-14.65-35.6L468.24,720.7z M420.85,809.83c-22.2,14.69-52.06,8.61-66.76-13.59
				c-14.67-22.17-8.59-52.03,13.61-66.72c22.17-14.67,52.03-8.59,66.7,13.58C449.09,765.3,443.02,795.16,420.85,809.83z"/>
		</g>
	</g>
	<g id="card">
		<path class="st7" d="M2071,915.28l-246.09,0c-5.18,0-9.38-4.2-9.38-9.38V766.27c0-5.18,4.2-9.38,9.38-9.38l246.09,0
			c5.18,0,9.38,4.2,9.38,9.38V905.9C2080.38,911.08,2076.18,915.28,2071,915.28z"/>
		<rect x="1815.54" y="786.8" class="st9" width="264.85" height="27.33"/>
		<path class="st9" d="M1876.2,884.89h-38.94c-2.48,0-4.48,2.01-4.48,4.48l0,0c0,2.48,2.01,4.48,4.48,4.48h38.94
			c2.48,0,4.48-2.01,4.48-4.48l0,0C1880.68,886.89,1878.68,884.89,1876.2,884.89z"/>
		<path class="st9" d="M1936.08,884.89h-38.94c-2.48,0-4.48,2.01-4.48,4.48l0,0c0,2.48,2.01,4.48,4.48,4.48h38.94
			c2.48,0,4.48-2.01,4.48-4.48l0,0C1940.57,886.89,1938.56,884.89,1936.08,884.89z"/>
		<path class="st9" d="M1995.97,884.89l-38.94,0c-2.48,0-4.48,2.01-4.48,4.48l0,0c0,2.48,2.01,4.48,4.48,4.48h38.94
			c2.48,0,4.48-2.01,4.48-4.48l0,0C2000.45,886.89,1998.44,884.89,1995.97,884.89z"/>
		<path class="st9" d="M2055.85,884.89h-38.94c-2.48,0-4.48,2.01-4.48,4.48l0,0c0,2.48,2.01,4.48,4.48,4.48h38.94
			c2.48,0,4.48-2.01,4.48-4.48l0,0C2060.33,886.89,2058.33,884.89,2055.85,884.89z"/>
		<path class="st9" d="M1835.47,764.93L1835.47,764.93c-2.73,0-4.95,2.21-4.95,4.95v1.74c0,2.73,2.21,4.95,4.95,4.95l0,0
			c2.73,0,4.95-2.21,4.95-4.95v-1.74C1840.41,767.14,1838.2,764.93,1835.47,764.93z"/>
		<path class="st9" d="M1846.12,770.74L1846.12,770.74c0,3.21,2.6,5.82,5.82,5.82h20.61c3.21,0,5.82-2.6,5.82-5.82l0,0
			c0-3.21-2.6-5.82-5.82-5.82l-20.61,0C1848.73,764.93,1846.12,767.53,1846.12,770.74z"/>
		<path class="st10" d="M1843.42,828.83l26.62,0c4.27,0,7.73,3.46,7.73,7.73v22.95c0,4.27-3.46,7.73-7.73,7.73h-26.62
			c-4.27,0-7.73-3.46-7.73-7.73v-22.95C1835.69,832.29,1839.15,828.83,1843.42,828.83z"/>
	</g>
	<g id="folder">
		<g>
			<path class="st11" d="M1994.39,1385.14v-18.09c0-8.22-6.66-14.88-14.87-14.88h-158.36c-8.22,0-14.88,6.66-14.88,14.88v319.82
				h409.62v-301.72H1994.39z"/>
			<polygon class="st0" points="2232.95,1396.13 1831.27,1396.13 1806.29,1686.86 2213.92,1686.86 			"/>
			<path class="st12" d="M2215.91,1686.86h-409.62l43.47-287.12c1.27-8.4,8.49-14.61,16.98-14.61h374.88
				c10.51,0,18.56,9.36,16.98,19.75L2215.91,1686.86z"/>
			<g>
				
					<ellipse transform="matrix(0.2298 -0.9732 0.9732 0.2298 64.0485 3166.9124)" class="st0" cx="2032.81" cy="1542.99" rx="69.26" ry="69.26"/>
				<g>
					<g>
						<path class="st6" d="M2032.91,1540.2c6.76,0,13-3.29,16.99-8.32c2.95-3.64,4.68-8.32,4.68-13.53
							c0-11.96-9.71-21.85-21.67-21.85c-12.14,0-21.85,9.88-21.85,21.85c0,5.2,1.73,9.88,4.68,13.53
							C2019.73,1536.91,2025.97,1540.2,2032.91,1540.2z"/>
					</g>
					<path class="st6" d="M2071.3,1579.14c0,13.79-76.99,13.79-76.99,0l0.02-16.07c3.04-21.96,70.71-22.89,76.98,0L2071.3,1579.14z"
						/>
				</g>
			</g>
		</g>
		<g>
			<g>
				
					<ellipse transform="matrix(0.7071 -0.7071 0.7071 0.7071 -340.3077 1992.4084)" class="st10" cx="2234.9" cy="1406.99" rx="109.61" ry="109.61"/>
				<path class="st0" d="M2234.9,1520.61c-62.65,0-113.64-50.97-113.64-113.62c0-62.64,50.98-113.61,113.64-113.61
					c62.65,0,113.64,50.97,113.64,113.61C2348.53,1469.64,2297.55,1520.61,2234.9,1520.61z M2234.9,1301.39
					c-58.24,0-105.6,47.37-105.6,105.6c0,58.23,47.35,105.61,105.6,105.61c58.24,0,105.6-47.38,105.6-105.61
					C2340.49,1348.76,2293.14,1301.39,2234.9,1301.39z"/>
			</g>
			<g>
				<path d="M2194.88,1404.15v56.7c0,6.31,77.09,6.31,77.09,0v-56.7H2194.88z M2237.33,1434.26v16.07c0,2.14-1.74,3.92-3.88,3.92
					c-2.18,0-3.92-1.78-3.92-3.92v-16.11c-3.3-1.49-5.62-4.83-5.62-8.67c0-5.26,4.28-9.51,9.54-9.51c5.26,0,9.51,4.24,9.51,9.51
					C2242.95,1429.44,2240.67,1432.78,2237.33,1434.26z"/>
				<path d="M2263.26,1401.73l-9.69-0.32l6.76-7.86c9.24-9.47,9.04-24.69-0.43-33.93c-9.47-9.24-24.69-9.04-33.93,0.43l-2.67,2.73
					l-5.59-5.45l2.67-2.73c12.24-12.55,32.41-12.81,44.96-0.57c12.55,12.24,12.81,32.41,0.57,44.96L2263.26,1401.73z"/>
			</g>
		</g>
	</g>
	<g id="flying_elements">
		<path class="st13" d="M953.25,387.66c10.76-9.17,17.59-22.81,17.59-38.06c0-27.6-22.37-49.98-49.98-49.98
			c-27.61,0-49.98,22.37-49.98,49.98c0,15.53,7.08,29.41,18.19,38.57h0.04v9.42h0.06v4.13c0,2.92,2.15,5.48,5.05,5.76
			c3.34,0.33,6.17-2.31,6.17-5.59v-3.3c0-0.55,0.45-1,1-1c0.55,0,1,0.45,1,1v3.13c0,2.92,2.15,5.48,5.05,5.76
			c3.34,0.33,6.17-2.31,6.17-5.59v-3.3c0-0.55,0.45-1,1-1s1,0.45,1,1v3.13c0,2.92,2.15,5.48,5.05,5.76
			c3.34,0.33,6.17-2.31,6.17-5.59v-3.3c0-0.55,0.45-1,1-1c0.55,0,1,0.45,1,1v3.3c0,3.09,2.53,5.61,5.61,5.61s5.61-2.53,5.61-5.61
			v-3.3c0-0.55,0.45-1,1-1c0.55,0,1,0.45,1,1v3.3c0,3.09,2.53,5.61,5.61,5.61c3.09,0,5.61-2.53,5.61-5.61v-11.82
			c0-0.15-0.01-0.3-0.02-0.44L953.25,387.66C953.25,387.66,953.25,387.66,953.25,387.66z M940.42,340.23
			c9.45,0,17.11,7.66,17.11,17.11c0,9.45-7.66,17.11-17.11,17.11c-9.45,0-17.11-7.67-17.11-17.11
			C923.3,347.89,930.96,340.23,940.42,340.23z M920.22,371.06c2.36,0,5.61,8.51,4.34,9.78c-1.28,1.27-8.27,1.21-9.49,0
			C913.86,379.62,917.87,371.06,920.22,371.06z M882.15,357.35c0-9.45,7.66-17.11,17.11-17.11c9.45,0,17.11,7.66,17.11,17.11
			c0,9.45-7.66,17.11-17.11,17.11C889.81,374.46,882.15,366.79,882.15,357.35z"/>
		<path class="st13" d="M636.55,1096.04c10.76-9.17,17.59-22.81,17.59-38.06c0-27.6-22.37-49.98-49.98-49.98
			c-27.61,0-49.98,22.37-49.98,49.98c0,15.53,7.08,29.41,18.19,38.57h0.04v9.42h0.06v4.13c0,2.92,2.15,5.48,5.05,5.76
			c3.34,0.33,6.17-2.31,6.17-5.59v-3.3c0-0.55,0.45-1,1-1s1,0.45,1,1v3.13c0,2.92,2.15,5.48,5.05,5.76
			c3.34,0.33,6.17-2.31,6.17-5.59v-3.3c0-0.55,0.45-1,1-1c0.55,0,1,0.45,1,1v3.13c0,2.92,2.15,5.48,5.05,5.76
			c3.34,0.33,6.17-2.31,6.17-5.59v-3.3c0-0.55,0.45-1,1-1s1,0.45,1,1v3.3c0,3.09,2.53,5.61,5.61,5.61c3.09,0,5.61-2.53,5.61-5.61
			v-3.3c0-0.55,0.45-1,1-1c0.55,0,1,0.45,1,1v3.3c0,3.09,2.53,5.61,5.61,5.61c3.09,0,5.61-2.53,5.61-5.61v-11.82
			c0-0.15-0.01-0.3-0.02-0.44L636.55,1096.04C636.55,1096.04,636.55,1096.04,636.55,1096.04z M623.71,1048.61
			c9.45,0,17.11,7.66,17.11,17.11c0,9.45-7.66,17.11-17.11,17.11c-9.45,0-17.11-7.67-17.11-17.11
			C606.6,1056.27,614.26,1048.61,623.71,1048.61z M603.52,1079.44c2.36,0,5.61,8.51,4.34,9.78c-1.28,1.27-8.27,1.21-9.49,0
			C597.16,1088,601.17,1079.44,603.52,1079.44z M565.45,1065.72c0-9.45,7.66-17.11,17.11-17.11c9.45,0,17.11,7.66,17.11,17.11
			c0,9.45-7.66,17.11-17.11,17.11C573.11,1082.83,565.45,1075.17,565.45,1065.72z"/>
		<path class="st13" d="M1887.09,551.55c8.42-7.17,13.76-17.85,13.76-29.79c0-21.6-17.51-39.11-39.11-39.11
			c-21.61,0-39.11,17.51-39.11,39.11c0,12.16,5.54,23.01,14.24,30.19h0.03v7.37h0.04v3.23c0,2.28,1.68,4.29,3.96,4.51
			c2.61,0.26,4.83-1.81,4.83-4.37v-2.59c0-0.43,0.35-0.78,0.78-0.78c0.43,0,0.78,0.35,0.78,0.78v2.45c0,2.28,1.68,4.29,3.96,4.51
			c2.61,0.26,4.83-1.81,4.83-4.37v-2.59c0-0.43,0.35-0.78,0.78-0.78s0.78,0.35,0.78,0.78v2.45c0,2.28,1.68,4.29,3.96,4.51
			c2.61,0.26,4.83-1.81,4.83-4.37v-2.59c0-0.43,0.35-0.78,0.78-0.78c0.43,0,0.78,0.35,0.78,0.78v2.59c0,2.42,1.98,4.39,4.39,4.39
			s4.39-1.98,4.39-4.39v-2.59c0-0.43,0.35-0.78,0.78-0.78s0.78,0.35,0.78,0.78v2.59c0,2.42,1.98,4.39,4.39,4.39
			c2.42,0,4.39-1.98,4.39-4.39v-9.25c0-0.12-0.01-0.23-0.02-0.35L1887.09,551.55C1887.09,551.55,1887.09,551.55,1887.09,551.55z
			 M1877.05,514.43c7.4,0,13.39,5.99,13.39,13.39c0,7.39-5.99,13.39-13.39,13.39c-7.4,0-13.39-6-13.39-13.39
			C1863.66,520.42,1869.65,514.43,1877.05,514.43z M1861.25,538.55c1.84,0,4.39,6.66,3.4,7.66c-1,0.99-6.47,0.95-7.43,0
			C1856.27,545.26,1859.41,538.55,1861.25,538.55z M1831.45,527.82c0-7.4,5.99-13.39,13.39-13.39c7.4,0,13.39,5.99,13.39,13.39
			c0,7.39-5.99,13.39-13.39,13.39C1837.45,541.21,1831.45,535.21,1831.45,527.82z"/>
		<path class="st13" d="M2012.71,1918.01c8.42-7.17,13.76-17.85,13.76-29.79c0-21.6-17.51-39.11-39.11-39.11
			c-21.61,0-39.12,17.51-39.12,39.11c0,12.16,5.54,23.01,14.24,30.19h0.03v7.37h0.04v3.23c0,2.28,1.68,4.29,3.96,4.51
			c2.61,0.26,4.83-1.81,4.83-4.37v-2.59c0-0.43,0.35-0.78,0.78-0.78c0.43,0,0.78,0.35,0.78,0.78v2.45c0,2.28,1.68,4.29,3.96,4.51
			c2.61,0.26,4.83-1.81,4.83-4.37v-2.59c0-0.43,0.35-0.78,0.78-0.78c0.43,0,0.78,0.35,0.78,0.78v2.45c0,2.28,1.68,4.29,3.96,4.51
			c2.61,0.26,4.83-1.81,4.83-4.37v-2.59c0-0.43,0.35-0.78,0.78-0.78s0.78,0.35,0.78,0.78v2.59c0,2.42,1.98,4.39,4.39,4.39
			s4.39-1.98,4.39-4.39v-2.59c0-0.43,0.35-0.78,0.78-0.78c0.43,0,0.78,0.35,0.78,0.78v2.59c0,2.42,1.98,4.39,4.39,4.39
			c2.42,0,4.39-1.98,4.39-4.39v-9.25c0-0.12-0.01-0.23-0.02-0.35L2012.71,1918.01C2012.71,1918.01,2012.71,1918.01,2012.71,1918.01z
			 M2002.66,1880.9c7.4,0,13.39,5.99,13.39,13.39c0,7.39-5.99,13.39-13.39,13.39s-13.39-6-13.39-13.39
			C1989.27,1886.89,1995.27,1880.9,2002.66,1880.9z M1986.86,1905.02c1.84,0,4.39,6.66,3.4,7.66c-1,0.99-6.47,0.95-7.43,0
			C1981.88,1911.72,1985.02,1905.02,1986.86,1905.02z M1957.07,1894.29c0-7.4,5.99-13.39,13.39-13.39s13.39,5.99,13.39,13.39
			c0,7.39-5.99,13.39-13.39,13.39S1957.07,1901.68,1957.07,1894.29z"/>
		<g>
			<g>
				<path class="st10" d="M1220.87,869.27l-175.02,303.15c-9.07,15.71,2.27,35.35,20.41,35.35h350.05
					c18.14,0,29.48-19.64,20.41-35.35l-175.02-303.15C1252.61,853.56,1229.94,853.56,1220.87,869.27z"/>
			</g>
			<path d="M1416.3,1192.81h-350.05c-3.17,0-5.88-1.58-7.44-4.34c-1.56-2.67-1.57-5.79,0.01-8.55l175.04-303.14
				c3.05-5.45,11.77-5.45,14.87,0.02l175,303.12c1.57,2.71,1.57,5.86,0.01,8.57C1422.19,1191.23,1419.48,1192.81,1416.3,1192.81z
				 M1068.68,1182.81h345.2l-172.61-298.94L1068.68,1182.81z M1240.06,881.75c0,0.02,0,0.02,0,0.02V881.75z M1242.52,881.73
				L1242.52,881.73L1242.52,881.73z"/>
			<g>
				<path d="M1241.78,1100.32L1241.78,1100.32c-10.05,0-18.38-7.78-19.07-17.81l-5.87-85.52c-0.99-14.44,10.46-26.71,24.94-26.71h0
					c14.48,0,25.93,12.26,24.94,26.71l-5.87,85.52C1260.16,1092.54,1251.83,1100.32,1241.78,1100.32z"/>
				<circle cx="1241.78" cy="1134.31" r="18.86"/>
			</g>
		</g>
		<g>
			<g>
				<path d="M2000.87,1125.7c-0.09,0-0.18,0-0.27-0.01l-30.41-3.02c-0.61-0.06-1.17-0.4-1.49-0.93l-18.64-29.71
					c-0.59-0.93-0.3-2.17,0.63-2.75c0.93-0.59,2.17-0.3,2.75,0.63l18.12,28.88l29.43,2.92c1.1,0.11,1.9,1.09,1.79,2.18
					C2002.68,1124.9,2001.85,1125.66,2000.87,1125.7z"/>
				<path d="M2015.71,1213.15c-0.71,0.03-1.41-0.33-1.8-0.98l-19.84-33.51c-0.37-0.63-0.37-1.4,0-2.03l15.51-26.33
					c0.56-0.95,1.78-1.27,2.73-0.71c0.95,0.56,1.27,1.78,0.71,2.73l-14.91,25.31l19.24,32.49c0.56,0.95,0.25,2.17-0.7,2.74
					C2016.35,1213.05,2016.03,1213.14,2015.71,1213.15z"/>
				<path d="M1968.13,1189.71c-0.23,0.01-0.46-0.02-0.69-0.1c-1.05-0.34-1.63-1.46-1.29-2.51l8.91-27.6
					c0.15-0.47,0.47-0.87,0.91-1.12l25.2-14.47c0.96-0.55,2.18-0.22,2.73,0.74c0.55,0.96,0.22,2.18-0.74,2.73l-24.53,14.09
					l-8.67,26.86C1969.69,1189.15,1968.94,1189.68,1968.13,1189.71z"/>
				<path d="M1968.19,1142.76c-0.39,0.01-0.78-0.09-1.12-0.29l-20.33-12.43c-0.94-0.58-1.24-1.8-0.66-2.75
					c0.57-0.94,1.8-1.24,2.75-0.66l19.7,12.05l30.14-4.76c1.1-0.18,2.11,0.57,2.28,1.66c0.17,1.09-0.57,2.11-1.66,2.28l-30.86,4.88
					C1968.35,1142.75,1968.27,1142.76,1968.19,1142.76z"/>
			</g>
			<path d="M1994.32,1128.24c-3.08-19.5,10.23-37.8,29.72-40.88s37.8,10.23,40.88,29.72c3.08,19.5-8.74,47.23-28.23,50.31
				S1997.4,1147.74,1994.32,1128.24z"/>
			<path class="st0" d="M2048.69,1111.6c2.4-4.82,0.55-10.71-4.23-13.26c-4.79-2.55-10.7-0.8-13.36,3.89L2048.69,1111.6z"/>
			<path class="st0" d="M2008.75,1118.79c-3.95-3.67-4.29-9.83-0.71-13.9c3.58-4.07,9.74-4.52,13.88-1.07L2008.75,1118.79z"/>
			<path d="M2043.29,1092.4c0,0-0.04-16.02-13.07-19.76c4.47,7.31-0.01,17.41-0.01,17.41L2043.29,1092.4z"/>
			<path d="M2008.17,1097.95c0,0-4.9-15.25,6.34-22.83c-2,8.33,5.38,16.56,5.38,16.56L2008.17,1097.95z"/>
			<g>
				<path d="M2056.86,1116.85c-0.8,0.03-1.57-0.42-1.91-1.2c-0.44-1.01,0.02-2.19,1.03-2.63l27.1-11.85l8.33-33.06
					c0.27-1.07,1.36-1.72,2.43-1.45c1.07,0.27,1.72,1.36,1.45,2.43l-8.57,34.01c-0.15,0.6-0.57,1.09-1.14,1.34l-28,12.25
					C2057.35,1116.79,2057.1,1116.84,2056.86,1116.85z"/>
				<path d="M2069.71,1204.62c-0.17,0.01-0.34-0.01-0.52-0.05c-1.08-0.24-1.75-1.31-1.51-2.39l8.29-36.84l-21.99-19.48
					c-0.83-0.73-0.9-1.99-0.17-2.82c0.73-0.83,1.99-0.9,2.82-0.17l22.87,20.27c0.54,0.48,0.78,1.22,0.62,1.93l-8.55,37.99
					C2071.37,1203.97,2070.59,1204.59,2069.71,1204.62z"/>
				<path d="M2107.75,1167.66c-0.65,0.02-1.29-0.26-1.7-0.83l-16.53-22.88l-27.68-5.84c-1.08-0.23-1.77-1.29-1.54-2.37
					c0.23-1.08,1.29-1.77,2.37-1.54l28.43,6c0.49,0.1,0.92,0.38,1.21,0.78l16.98,23.51c0.65,0.89,0.44,2.14-0.45,2.79
					C2108.51,1167.52,2108.13,1167.64,2107.75,1167.66z"/>
				<path d="M2062.34,1127.89c-1,0.04-1.89-0.67-2.05-1.68c-0.17-1.09,0.57-2.11,1.66-2.28l30.14-4.76l15.03-17.54
					c0.72-0.84,1.98-0.94,2.82-0.22c0.84,0.72,0.93,1.98,0.22,2.82l-15.51,18.1c-0.31,0.36-0.74,0.6-1.21,0.67l-30.86,4.88
					C2062.5,1127.88,2062.42,1127.89,2062.34,1127.89z"/>
			</g>
		</g>
		<g>
			<g>
				<path d="M1098.42,760.3c-0.6,0-1.18-0.28-1.55-0.8l-16.91-23.74c-0.34-0.48-0.44-1.09-0.27-1.65l9.65-32.03
					c0.3-1.01,1.37-1.58,2.37-1.27c1.01,0.3,1.58,1.37,1.27,2.37l-9.38,31.14l16.37,22.98c0.61,0.86,0.41,2.05-0.45,2.66
					C1099.19,760.19,1098.8,760.3,1098.42,760.3z"/>
				<path d="M1044.9,825.83c-0.2,0-0.4-0.03-0.6-0.1c-1-0.33-1.54-1.41-1.21-2.4l11.62-35.28c0.22-0.66,0.78-1.15,1.46-1.28
					l28.65-5.38c1.04-0.2,2.03,0.49,2.22,1.52c0.19,1.03-0.49,2.03-1.52,2.22l-27.54,5.17l-11.27,34.21
					C1046.45,825.32,1045.7,825.83,1044.9,825.83z"/>
				<path d="M1031.89,776.94c-0.74,0-1.44-0.43-1.75-1.15c-0.42-0.97,0.03-2.09,1-2.5l25.41-10.92c0.43-0.19,0.92-0.21,1.37-0.05
					l26.21,9.02c0.99,0.34,1.52,1.43,1.18,2.42c-0.34,1-1.42,1.52-2.42,1.18l-25.51-8.79l-24.74,10.63
					C1032.39,776.9,1032.14,776.94,1031.89,776.94z"/>
				<path d="M1088.52,766.65c-0.43,0-0.86-0.15-1.22-0.44l-22.87-19.11c-0.35-0.29-0.58-0.69-0.66-1.14l-3.82-22.41
					c-0.18-1.04,0.52-2.02,1.56-2.2c1.04-0.17,2.02,0.52,2.2,1.56l3.71,21.72l22.33,18.66c0.81,0.67,0.91,1.88,0.24,2.68
					C1089.6,766.41,1089.06,766.65,1088.52,766.65z"/>
			</g>
			<path d="M1091.09,756.6c12.07-14.44,33.57-16.37,48.01-4.29c14.44,12.07,16.37,33.57,4.29,48.01
				c-12.07,14.44-39.41,23.36-53.85,11.28C1075.1,799.53,1079.02,771.04,1091.09,756.6z"/>
			<path class="st0" d="M1137.16,785.21c4.97-1.3,8.04-6.32,6.87-11.36c-1.17-5.04-6.14-8.19-11.18-7.16L1137.16,785.21z"/>
			<path class="st0" d="M1106.94,761.03c0.16-5.14,4.37-9.25,9.54-9.23c5.17,0.02,9.36,4.16,9.47,9.3L1106.94,761.03z"/>
			<path d="M1147.56,769.28c0,0,11.48-10.08,6-21.79c-2.44,7.79-12.51,10.91-12.51,10.91L1147.56,769.28z"/>
			<path d="M1121.54,747.54c0,0,7.88-13.09,20.38-9.77c-7.24,3.79-8.52,14.25-8.52,14.25L1121.54,747.54z"/>
			<g>
				<path d="M1166.26,807.4c-0.28,0-0.55-0.06-0.81-0.18l-26.36-12.43c-0.95-0.45-1.36-1.58-0.91-2.54
					c0.45-0.95,1.58-1.36,2.54-0.91l25.52,12.03l28.98-14.75c0.94-0.48,2.08-0.1,2.56,0.83c0.48,0.94,0.1,2.08-0.83,2.56
					l-29.81,15.18C1166.86,807.33,1166.56,807.4,1166.26,807.4z"/>
				<path d="M1084.91,859.27c-0.68,0-1.33-0.36-1.68-1c-0.5-0.93-0.16-2.08,0.77-2.58l31.67-17.16l0.2-28.02
					c0.01-1.05,0.87-1.92,1.92-1.89c1.05,0.01,1.9,0.87,1.89,1.92l-0.21,29.15c0,0.69-0.39,1.33-1,1.66l-32.66,17.7
					C1085.53,859.2,1085.22,859.27,1084.91,859.27z"/>
				<path d="M1135.33,863.41c-0.14,0-0.29-0.02-0.43-0.05c-1.02-0.24-1.66-1.26-1.43-2.29l6.07-26.23l-13.17-23.55
					c-0.51-0.92-0.19-2.08,0.73-2.59c0.92-0.51,2.08-0.18,2.59,0.73l13.53,24.19c0.23,0.41,0.3,0.9,0.19,1.36l-6.23,26.95
					C1136.98,862.81,1136.2,863.41,1135.33,863.41z"/>
				<path d="M1158.28,824.95c-0.45,0-0.88-0.16-1.22-0.44l-22.87-19.11c-0.81-0.67-0.91-1.88-0.24-2.68
					c0.67-0.81,1.88-0.91,2.68-0.24l22.33,18.66l22.03-0.21c1.07,0,1.91,0.83,1.92,1.89c0.01,1.05-0.83,1.91-1.89,1.92l-22.73,0.21
					C1158.29,824.95,1158.28,824.95,1158.28,824.95z"/>
			</g>
		</g>
		<g>
			<g>
				<path d="M705.62,1804.82c-0.75,0-1.49-0.34-1.98-0.98c-0.83-1.09-0.61-2.65,0.48-3.48l30.26-22.94c0.61-0.46,1.4-0.62,2.14-0.42
					l42.08,11.32c1.32,0.36,2.11,1.72,1.75,3.04c-0.36,1.32-1.72,2.11-3.04,1.75l-40.91-11.01l-29.29,22.2
					C706.67,1804.66,706.15,1804.82,705.62,1804.82z"/>
				<path d="M672.72,1788.53c-1.14,0-2.17-0.79-2.42-1.95l-7.8-35.66l-44.98-13.35c-1.31-0.39-2.06-1.77-1.67-3.08
					c0.39-1.31,1.77-2.07,3.08-1.67l46.39,13.76c0.87,0.26,1.52,0.97,1.72,1.85l8.11,37.09c0.29,1.34-0.56,2.66-1.89,2.95
					C673.07,1788.51,672.9,1788.53,672.72,1788.53z"/>
				<path d="M685.84,1785.98c-0.24,0-0.49-0.04-0.74-0.11c-1.31-0.41-2.04-1.8-1.63-3.11l10.45-33.56l-14.8-31.8
					c-0.58-1.24-0.04-2.72,1.2-3.3c1.24-0.58,2.72-0.04,3.3,1.2l15.2,32.67c0.26,0.56,0.3,1.2,0.12,1.79l-10.74,34.47
					C687.88,1785.29,686.9,1785.98,685.84,1785.98z"/>
				<path d="M696.97,1792.18c-0.54,0-1.08-0.17-1.53-0.53c-1.08-0.85-1.26-2.41-0.42-3.48l24-30.51c0.36-0.46,0.88-0.78,1.46-0.9
					l29.03-5.85c1.34-0.27,2.65,0.6,2.92,1.94c0.27,1.34-0.6,2.65-1.94,2.92l-28.13,5.67l-23.44,29.8
					C698.44,1791.85,697.71,1792.18,696.97,1792.18z"/>
			</g>
			<path d="M707.68,1792.73c19.28,15.16,22.61,43.08,7.45,62.35c-15.16,19.28-43.08,22.61-62.35,7.45s-31.94-50.41-16.78-69.69
				C651.16,1773.57,688.41,1777.57,707.68,1792.73z"/>
			<path class="st0" d="M672.21,1853.82c1.88,6.43,8.55,10.22,15.06,8.5c6.51-1.72,10.43-8.31,8.89-14.83L672.21,1853.82z"/>
			<path class="st0" d="M702.53,1813.53c6.7,0.01,12.21,5.33,12.39,12.07c0.18,6.73-5.06,12.34-11.74,12.7L702.53,1813.53z"/>
			<path d="M693.35,1866.75c0,0,13.57,14.56,28.6,6.97c-10.24-2.88-14.69-15.87-14.69-15.87L693.35,1866.75z"/>
			<path d="M720.65,1832.03c0,0,17.34,9.76,13.51,26.15c-5.21-9.28-18.89-10.54-18.89-10.54L720.65,1832.03z"/>
			<g>
				<path d="M667.84,1933.22c-0.88,0-1.73-0.47-2.18-1.29l-20.92-38.23c-0.37-0.67-0.4-1.48-0.1-2.18l15.16-34.81
					c0.55-1.26,2.01-1.83,3.27-1.28c1.26,0.55,1.83,2.01,1.28,3.27l-14.68,33.69l20.33,37.16c0.66,1.2,0.22,2.71-0.99,3.37
					C668.65,1933.12,668.24,1933.22,667.84,1933.22z"/>
				<path d="M600.54,1832.9c-0.88,0-1.7-0.47-2.15-1.24l-24.31-41.84c-0.69-1.18-0.29-2.7,0.9-3.39c1.19-0.69,2.7-0.28,3.39,0.9
					l23.57,40.57l36.49-0.82c0.02,0,0.04,0,0.06,0c1.34,0,2.45,1.07,2.48,2.43c0.03,1.37-1.05,2.51-2.42,2.54l-37.96,0.86
					C600.58,1832.9,600.56,1832.9,600.54,1832.9z"/>
				<path d="M608.13,1863.95c-0.16,0-0.33-0.02-0.49-0.05l-35.33-7.08c-1.34-0.27-2.21-1.58-1.95-2.92
					c0.27-1.34,1.58-2.21,2.92-1.95l34.39,6.89l30.15-18.06c1.18-0.71,2.7-0.32,3.4,0.85c0.7,1.18,0.32,2.7-0.85,3.4l-30.97,18.56
					C609.02,1863.83,608.58,1863.95,608.13,1863.95z"/>
				<path d="M624.91,1914.86c-1.33,0-2.43-1.05-2.48-2.38l-1.16-29.59c-0.02-0.59,0.16-1.17,0.53-1.63l24-30.51
					c0.85-1.08,2.41-1.26,3.48-0.42c1.08,0.85,1.26,2.41,0.42,3.48l-23.44,29.8l1.12,28.68c0.05,1.37-1.01,2.52-2.38,2.58
					C624.98,1914.86,624.95,1914.86,624.91,1914.86z"/>
			</g>
		</g>
		<g>
			<g>
				<path class="st10" d="M1893.2,2372.47l-6.24,10.8c-0.32,0.56,0.08,1.26,0.73,1.26h12.48c0.65,0,1.05-0.7,0.73-1.26l-6.24-10.8
					C1894.34,2371.91,1893.53,2371.91,1893.2,2372.47z"/>
			</g>
			<path d="M1900.17,2384h-12.48c-0.11,0-0.21-0.06-0.27-0.15c-0.06-0.09-0.06-0.21,0-0.3l6.24-10.8c0.11-0.19,0.42-0.19,0.53,0
				l6.24,10.8c0.06,0.1,0.06,0.21,0,0.31C1900.38,2383.95,1900.28,2384,1900.17,2384z M1887.78,2383.65h12.3l-6.15-10.65
				L1887.78,2383.65z M1893.89,2372.92C1893.89,2372.92,1893.89,2372.92,1893.89,2372.92L1893.89,2372.92z M1893.98,2372.92
				L1893.98,2372.92L1893.98,2372.92z"/>
			<g>
				<path d="M1893.95,2380.71L1893.95,2380.71c-0.36,0-0.65-0.28-0.68-0.63l-0.21-3.05c-0.04-0.51,0.37-0.95,0.89-0.95l0,0
					c0.52,0,0.92,0.44,0.89,0.95l-0.21,3.05C1894.6,2380.43,1894.31,2380.71,1893.95,2380.71z"/>
				<circle cx="1893.95" cy="2381.92" r="0.67"/>
			</g>
		</g>
		<circle class="st10" cx="431.38" cy="1869.95" r="18.8"/>
		<circle class="st13" cx="281.09" cy="1106.72" r="35.93"/>
		<g>
			<path class="st13" d="M1660.59,1642.77L1660.59,1642.77c-3.44,0-6.23-2.79-6.23-6.23v-66.65c0-3.44,2.79-6.23,6.23-6.23l0,0
				c3.44,0,6.23,2.79,6.23,6.23v66.65C1666.82,1639.98,1664.03,1642.77,1660.59,1642.77z"/>
			<path class="st13" d="M1621.04,1603.22L1621.04,1603.22c0-3.44,2.79-6.23,6.23-6.23h66.65c3.44,0,6.23,2.79,6.23,6.23l0,0
				c0,3.44-2.79,6.23-6.23,6.23h-66.65C1623.83,1609.44,1621.04,1606.66,1621.04,1603.22z"/>
		</g>
		<g>
			<path class="st13" d="M1804.23,1086.24L1804.23,1086.24c-3.44,0-6.23-2.79-6.23-6.23v-66.65c0-3.44,2.79-6.23,6.23-6.23l0,0
				c3.44,0,6.23,2.79,6.23,6.23v66.65C1810.46,1083.45,1807.67,1086.24,1804.23,1086.24z"/>
			<path class="st13" d="M1764.68,1046.68L1764.68,1046.68c0-3.44,2.79-6.23,6.23-6.23h66.65c3.44,0,6.23,2.79,6.23,6.23l0,0
				c0,3.44-2.79,6.23-6.23,6.23h-66.65C1767.47,1052.91,1764.68,1050.12,1764.68,1046.68z"/>
		</g>
		<path class="st0" d="M1181.69,1489.74c-12.74,0-23.11-10.37-23.11-23.11s10.37-23.11,23.11-23.11s23.11,10.37,23.11,23.11
			S1194.44,1489.74,1181.69,1489.74z M1181.69,1449.88c-9.23,0-16.75,7.51-16.75,16.75s7.51,16.75,16.75,16.75
			s16.75-7.51,16.75-16.75S1190.93,1449.88,1181.69,1449.88z"/>
		<g>
			<g>
				
					<rect x="694.04" y="1528.03" transform="matrix(1 -3.633070e-03 3.633070e-03 1 -5.7548 2.8063)" class="st14" width="151.03" height="114.78"/>
				
					<rect x="701.19" y="1535.08" transform="matrix(1 -3.632688e-03 3.632688e-03 1 -5.7542 2.806)" class="st15" width="136.73" height="100.68"/>
				<polygon class="st14" points="710.09,1629.04 802.18,1628.7 751.79,1580.44 				"/>
				<polygon class="st14" points="751.96,1628.88 829.34,1628.6 787.32,1588.71 				"/>
				
					<ellipse transform="matrix(0.3616 -0.9323 0.9323 0.3616 -965.1635 1729.7245)" class="st14" cx="780.54" cy="1569.67" rx="10.66" ry="10.66"/>
			</g>
		</g>
		<g>
			<g>
				
					<rect x="1373.45" y="757.3" transform="matrix(1 -3.632408e-03 3.632408e-03 1 -2.9497 5.2686)" class="st14" width="151.03" height="114.78"/>
				
					<rect x="1380.6" y="764.35" transform="matrix(1 -3.631957e-03 3.631957e-03 1 -2.9494 5.268)" class="st15" width="136.73" height="100.68"/>
				<polygon class="st14" points="1389.5,858.31 1481.59,857.97 1431.2,809.71 				"/>
				<polygon class="st14" points="1431.37,858.16 1508.75,857.88 1466.73,817.99 				"/>
				
					<ellipse transform="matrix(0.7071 -0.7071 0.7071 0.7071 -137.3274 1266.3446)" class="st14" cx="1459.95" cy="798.94" rx="10.66" ry="10.66"/>
			</g>
		</g>
	</g>
</g>
<g id="shadow">
	<path class="st16" d="M1998.14,2403.85h-171.42c-4.14,0-7.5-3.36-7.5-7.5s3.36-7.5,7.5-7.5h171.42c4.14,0,7.5,3.36,7.5,7.5
		S2002.28,2403.85,1998.14,2403.85z"/>
	<path class="st16" d="M1763.27,2403.85H534.07c-4.14,0-7.5-3.36-7.5-7.5s3.36-7.5,7.5-7.5h1229.19c4.14,0,7.5,3.36,7.5,7.5
		S1767.41,2403.85,1763.27,2403.85z"/>
</g>
<g id="hacker">
	<g>
		<g>
			<path class="st7" d="M1569.05,2371.24l-645.97,9.92c-77.12-69.96-141.82-219.29-119.74-313.75
				c25.19-107.75,61.34-200.49,99.38-256.74c16.65-24.58,33.64-42.27,50.12-51.24c79.54-43.22,483.87-50.64,567.12,0
				c10.96,6.73,22.17,17.43,33.39,31.4c41.32,51.84,82.13,149.24,111.28,256.82C1694.31,2157.21,1648.58,2299.21,1569.05,2371.24z"
				/>
			<path class="st17" d="M1553.34,1790.83c-132.48,10.52-224.03,100.83-301.42,108.52c-64.3,16.65-261.79-147-349.21-88.68
				c16.65-24.58,33.64-42.27,50.12-51.24c79.54-43.22,483.87-50.64,567.12,0C1530.91,1766.16,1542.13,1776.85,1553.34,1790.83z"/>
			<path d="M1505.9,1681.15c-2.64,86.7-108.57,141.58-179.04,184.46c-82.04,49.91-83.17,42.35-216.06-45.01
				c-62.03-40.78-135.63-78.63-148.82-134.31c-28.85-120.59,131.6-370.62,279.22-370.62S1510.8,1527.27,1505.9,1681.15z"/>
			<g>
				<path class="st18" d="M1419.93,1612.64c-1.13,14.9-3.58,29.41-6.98,43.18c-16.78,65.04-58.25,115.57-102.37,142.53
					c-23.38,14.52-47.51,22.25-69.38,22.25c-2.45,0-4.9-0.19-7.36-0.38c-54.48-5.47-137.63-69-163.65-164.02
					c-3.96-13.95-6.6-28.47-7.73-43.55c-0.94-11.88-1.13-23.38-0.75-34.69c4.15-119.91,79.18-203.81,179.49-203.81
					c100.11,0,175.33,83.71,179.49,203.43C1421.06,1588.88,1420.87,1600.57,1419.93,1612.64z"/>
				<path class="st18" d="M1079.24,1654.3c-2.83,1.32-6.03,1.89-9.05,1.89c-13.57,0.19-28.09-10.37-35.25-27.34
					c-8.87-20.74-3.4-42.8,12.25-49.58c4.52-1.88,9.62-2.26,14.52-1.32c11.69,2.26,23.57,12.07,29.79,26.77
					C1100.36,1625.46,1094.89,1647.52,1079.24,1654.3z"/>
				<path class="st18" d="M1444.44,1628.85c-6.6,15.46-19.23,25.45-31.49,26.96c-4.34,0.75-8.67,0.19-12.82-1.51
					c-8.48-3.58-13.95-12.06-15.65-22.25c-1.69-8.11-0.75-17.53,3.21-26.77c0-0.19,0.19-0.38,0.19-0.56
					c6.78-15.84,19.98-26.21,32.8-27.15c3.96-0.38,7.92,0.19,11.69,1.7C1447.83,1586.06,1453.3,1608.11,1444.44,1628.85z"/>
				<path class="st19" d="M1444.44,1628.85c-6.6,15.46-19.23,25.45-31.49,26.96c-16.78,65.04-58.25,115.57-102.37,142.53
					c30.54-30.92,77.51-123.26,67.78-139.71c-9.73-16.45-71,19.56-91.36-1.1c-32.22-32.7-35.46-31.61-67.69-1.35
					c-37.11,34.84-76.68-9.63-112.12-3.26c-35.44,6.37,52.95,152.43,126.65,167.29c-54.48-5.47-137.63-69-163.65-164.02
					c-13.57,0.19-28.09-10.37-35.25-27.34c-8.87-20.74-3.4-42.8,12.25-49.58c4.52-1.88,9.62-2.26,14.52-1.32
					c4.15-119.91,79.18-203.81,179.49-203.81c100.11,0,175.33,83.71,179.49,203.43c3.96-0.38,7.92,0.19,11.69,1.7
					C1447.83,1586.06,1453.3,1608.11,1444.44,1628.85z"/>
				<path d="M1423.86,1575.16v12.6c-0.26,13.89-7.16,25.79-18.89,35.63c-22.52,18.89-62.72,30.63-107.92,35.28
					c-17.6-1.12-31.92-50.73-46.5-50.73c-14.67,0-18.72,47.19-49.69,50.73c-53.06-5.35-101.36-19.76-125.61-42.62
					c-10.78-10.18-16.82-22-16.56-35.46v-16.99C1059.81,1522.54,1425.24,1533.84,1423.86,1575.16z"/>
				<path class="st20" d="M1225.32,1673.79c0,0,1.65,23.47,26.63,23.47s26.63-22.56,26.63-22.56s-8.88,15.64-27.53,15.64
					C1232.39,1690.33,1225.32,1673.79,1225.32,1673.79z"/>
				<g>
					<path class="st19" d="M1207.47,1735.96c11.38,9.28,72.05,6.04,74.61,0C1284.27,1730.81,1234.05,1739.67,1207.47,1735.96z"/>
					<path class="st20" d="M1215.09,1744.99c0,0,28.28,5.82,55.76,0c5.21,0-5.15,5.35-10.83,6.22
						C1229.94,1755.82,1215.09,1744.99,1215.09,1744.99z"/>
				</g>
				<path class="st0" d="M1404.96,1623.38c-22.52,18.89-62.72,30.63-107.92,35.28c-17.6-1.12-31.92-50.73-46.5-50.73
					c-14.67,0-18.72,47.19-49.69,50.73c-53.06-5.35-101.36-19.76-125.61-42.62c29.16-25.11,90.32-42.27,161.06-42.27
					C1313.86,1573.78,1379.95,1594.4,1404.96,1623.38z"/>
			</g>
			<path class="st7" d="M1524.53,1614.15c-23.21-145.19-130.52-314.19-272.6-314.19c-115.94,0-254.32,167.45-292.36,297.19
				c-5.26,17.86-8.63,34.94-9.75,50.81c-1.12,15.7-0.09,30.11,3.36,42.87c15.79,57.8,139.84,143.03,220.93,186.17
				c14.58,7.76,54.95,22.08,73.85,22.51c13.2,5.78,49-12.42,60.99-18.89c83.77-45.12,217.91-125.87,220.24-200.83v-1.55
				C1529.71,1657.89,1528.15,1636.32,1524.53,1614.15z M1250.46,1881.24c-29.68-49.43-216.36-155.45-206.27-195.74
				c25.62-102.31,109.74-149.88,204.56-144.85c107,5.67,189.86,70.49,196.24,124.67
				C1442.32,1713.53,1282.64,1826.46,1250.46,1881.24z"/>
			<path d="M1423.77,1671.94c-27.21,48.67-80.78,118.51-130.72,149.33c-16.6,10.25-32.8,16.18-47.5,15.6
				c-7.47-0.3-14.94-1.67-22.36-3.94c-79.9-24.48-153.81-152.82-153.81-152.82c43.04,19.79,74.01,20.26,98.63,14.21
				c33.7-8.27,55.51-28.74,80.1-28.51c19.12,0.18,43.12,22.75,83.2,27.08C1355.46,1695.49,1385.46,1691.47,1423.77,1671.94z"/>
			<path class="st21" d="M1331.31,1692.89c-2.24,39.01-16.59,94.33-38.26,128.38c-16.6,10.25-32.8,16.18-47.5,15.6
				c-7.47-0.3-14.94-1.67-22.36-3.94c-32.7-31.47-53.26-95.96-55.18-138.61c33.7-8.27,55.51-28.74,80.1-28.51
				C1267.23,1665.99,1291.23,1688.56,1331.31,1692.89z"/>
		</g>
		<path class="st0" d="M1185.11,1881.37c-83.46-37.95-220.68-135.3-236.47-193.1c-3.45-12.77-4.49-27.18-3.36-42.87
			c7.62,39.34,40.68,81.82,80.88,120.31C1074.18,1811.69,1173.03,1839.27,1185.11,1881.37z"/>
		<path class="st0" d="M1524.65,1675.68v1.55c-2.33,74.97-146.48,164.08-234.35,207.98
			C1315.68,1821.46,1501.51,1776.7,1524.65,1675.68z"/>
		<g>
			<g>
				<path class="st22" d="M1201.57,2097.89c-0.23,0-0.46-0.03-0.69-0.1c-1.33-0.38-2.09-1.77-1.71-3.1
					c28.45-98.57,20.31-188.13,8.16-206.52c-0.76-1.15-0.44-2.7,0.71-3.46c1.15-0.76,2.7-0.45,3.46,0.71
					c12.94,19.58,21.77,109.19-7.52,210.67C1203.65,2097.17,1202.65,2097.89,1201.57,2097.89z"/>
				<path class="st22" d="M1200.05,1896.2c-0.22,0-0.45-0.03-0.68-0.09c-1.33-0.37-2.11-1.75-1.73-3.08
					c0.09-0.32,2.27-7.9,8.48-10.33c3.68-1.44,7.82-0.78,12.29,1.96c1.18,0.72,1.54,2.26,0.82,3.44s-2.26,1.54-3.44,0.82
					c-3.06-1.88-5.7-2.41-7.85-1.57c-3.85,1.51-5.47,6.97-5.49,7.02C1202.14,1895.48,1201.14,1896.2,1200.05,1896.2z"/>
			</g>
			<g>
				<path class="st22" d="M1276.73,2097.89c-1.09,0-2.08-0.71-2.4-1.81c-29.29-101.48-20.47-191.08-7.53-210.67
					c0.76-1.15,2.31-1.47,3.46-0.71c1.15,0.76,1.47,2.31,0.71,3.46c-12.16,18.39-20.3,107.95,8.16,206.52
					c0.38,1.33-0.38,2.71-1.71,3.1C1277.19,2097.85,1276.96,2097.89,1276.73,2097.89z"/>
				<path class="st22" d="M1278.25,1896.2c-1.09,0-2.09-0.72-2.4-1.82l0,0c-0.02-0.06-1.62-5.53-5.51-7.04
					c-2.14-0.83-4.78-0.3-7.83,1.57c-1.18,0.72-2.71,0.35-3.44-0.82c-0.72-1.18-0.35-2.72,0.82-3.44c4.47-2.74,8.6-3.4,12.29-1.96
					c6.21,2.43,8.39,10.01,8.48,10.33c0.37,1.33-0.4,2.71-1.73,3.08C1278.7,1896.17,1278.47,1896.2,1278.25,1896.2z"/>
			</g>
		</g>
		<path class="st17" d="M1526.17,1616.33c-34.21-107.38-104-226.02-259.45-238.27c-166.93-13.11-277.05,126.06-305.52,221.27
			c32.76-129.65,166.68-302.76,290.75-302.97C1394.03,1296.12,1502.96,1471.14,1526.17,1616.33z"/>
		<g>
			<path d="M1629.5,2398.27H851.05l-106.72-371.1c-5.2-18.07,8.37-36.08,27.17-36.08h937.55c18.8,0,32.36,18.01,27.17,36.08
				L1629.5,2398.27z"/>
		</g>
		<path class="st23" d="M1277.48,2268.11c14.88-9.35,25.99-24.09,28.71-41.82c5.53-36.05-25.32-69.76-69.76-69.76
			c-44.45,0-75.3,33.71-69.77,69.76c2.77,18.05,14.23,33,29.53,42.33h0.05l0.89,9.17h0.07l0.86,8.85c0.26,2.64,3.05,4.92,6.54,5.17
			c4.01,0.29,7.24-2.06,7.06-5.02l-0.51-8.07c-0.03-0.52,0.49-0.95,1.17-0.95s1.26,0.42,1.29,0.95l0.45,7.91
			c0.15,2.64,2.85,4.92,6.33,5.17c3.99,0.29,7.33-2.06,7.26-5.02l-0.18-8.07c-0.01-0.52,0.53-0.95,1.21-0.95
			c0.68,0,1.24,0.42,1.25,0.95l0.13,7.91c0.04,2.64,2.65,4.92,6.12,5.17c3.98,0.29,7.41-2.06,7.47-5.02l0.15-8.07
			c0.01-0.52,0.57-0.95,1.25-0.95s1.22,0.42,1.21,0.95l-0.2,8.07c-0.07,2.79,2.89,5.04,6.58,5.04s6.84-2.25,7-5.04l0.48-8.07
			c0.03-0.52,0.61-0.95,1.29-0.95s1.21,0.42,1.17,0.95l-0.52,8.07c-0.18,2.79,2.69,5.04,6.38,5.04c3.69,0,6.93-2.25,7.21-5.04
			l1.62-16.29c0.01-0.15,0.02-0.29,0.02-0.44L1277.48,2268.11C1277.48,2268.12,1277.48,2268.12,1277.48,2268.11z M1264.42,2214.67
			c13.53,0,23.42,9.55,22.15,20.81c-1.21,10.71-12.17,19.03-24.55,19.03c-12.38,0-22.34-8.32-22.26-19.03
			C1239.85,2224.22,1250.89,2214.67,1264.42,2214.67z M1235.58,2250.86c3.11,0,7.27,9.02,5.61,10.34c-1.65,1.31-10.64,1.25-12.23,0
			C1227.38,2259.94,1232.48,2250.86,1235.58,2250.86z M1183.49,2235.48c-1.34-11.26,8.49-20.81,22.02-20.81
			c13.53,0,24.63,9.55,24.78,20.81c0.15,10.71-9.77,19.03-22.14,19.03S1184.76,2246.19,1183.49,2235.48z"/>
	</g>
</g>
</svg>
