<svg width="73" height="73" viewBox="0 0 73 73" fill="none" xmlns="http://www.w3.org/2000/svg">
<path d="M44.8646 55.8147C45.7771 52.773 47.6021 50.0355 50.0355 47.9063C54.598 44.1041 57.4876 38.325 57.4876 31.9375C57.4876 20.075 47.6023 10.3416 35.4355 10.95C24.6375 11.4063 15.8166 20.5313 15.5125 31.3291C15.3604 38.0209 18.25 43.9522 22.9646 47.9063C25.55 50.0354 27.375 52.7729 28.2875 55.8147H44.8646Z" fill="#FFD15C"/>
<path d="M34.5229 56.1187H35.8916L29.8082 33.4584C29.9604 33.4584 30.1124 33.4584 30.2645 33.4584C31.0249 33.4584 31.7854 33.1542 32.3936 32.5459C32.6977 32.2417 33.002 32.0896 33.4582 32.0896C33.9145 32.0896 34.2186 32.2417 34.5229 32.5459C35.5875 33.7625 37.4125 33.7625 38.477 32.5459C38.7811 32.2417 39.0854 32.0896 39.5416 32.0896C39.8457 32.0896 40.302 32.2417 40.6062 32.5459C41.2146 33.1542 41.8229 33.4584 42.7354 33.4584C42.8875 33.4584 43.0395 33.4584 43.1916 33.4584L37.2604 56.1187H38.6291L44.8645 32.3937C44.8645 32.0896 44.8645 31.7853 44.5604 31.6334C44.2562 31.4812 43.952 31.6334 43.8 31.7855C43.4959 32.0896 43.1916 32.2417 42.8875 32.2417C42.4312 32.2417 42.1271 32.0896 41.6709 31.7855C41.0625 31.1771 40.4543 30.873 39.6937 30.873C38.9332 30.873 38.325 31.1771 37.7166 31.7855C37.1082 32.3939 36.1957 32.3939 35.5875 31.7855C35.1312 31.1771 34.3709 30.873 33.6104 30.873C32.85 30.873 32.0895 31.1771 31.6332 31.7855C31.3291 32.0896 30.8729 32.2417 30.4166 32.2417C30.1125 32.2417 29.6562 32.0896 29.5041 31.7855C29.352 31.6334 29.0479 31.4814 28.7437 31.6334C28.4396 31.7855 28.2875 32.0896 28.4396 32.3937L34.5229 56.1187Z" fill="white"/>
<path d="M31.7854 69.8062C32.5459 71.6312 34.3709 73 36.5 73C38.6291 73 40.4541 71.6312 41.2146 69.8062H31.7854Z" fill="#344A5E"/>
<path d="M42.1271 69.9584H31.025C29.5041 69.9584 28.2875 68.7417 28.2875 67.2209V55.6625H44.8646V67.2209C44.8646 68.7416 43.6479 69.9584 42.1271 69.9584Z" fill="#344A5E"/>
<path d="M44.7125 61.4416H28.2875C27.375 61.4416 26.6146 60.6813 26.6146 59.7688C26.6146 58.8563 27.375 58.0959 28.2875 58.0959H44.7125C45.625 58.0959 46.3854 58.8563 46.3854 59.7688C46.3854 60.6813 45.625 61.4416 44.7125 61.4416Z" fill="#415A6B"/>
<path d="M44.7125 66.7646H28.2875C27.375 66.7646 26.6146 66.0043 26.6146 65.0918C26.6146 64.1793 27.375 63.4189 28.2875 63.4189H44.7125C45.625 63.4189 46.3854 64.1793 46.3854 65.0918C46.3854 66.0041 45.625 66.7646 44.7125 66.7646Z" fill="#415A6B"/>
<path d="M36.5 0C35.7396 0 34.9791 0.608381 34.9791 1.52088V6.69176C34.9791 7.45213 35.5875 8.21264 36.5 8.21264C37.4125 8.21264 38.0209 7.60426 38.0209 6.69176V1.52088C38.0209 0.608381 37.2604 0 36.5 0Z" fill="#FFD15C"/>
<path d="M16.1209 9.27715C15.5125 8.66877 14.6 8.66877 13.9918 9.27715C13.3835 9.88553 13.3834 10.798 13.9918 11.4063L17.6418 15.0563C18.2501 15.6646 19.1626 15.6646 19.7709 15.0563C20.3791 14.4479 20.3793 13.5354 19.7709 12.9271L16.1209 9.27715Z" fill="#FFD15C"/>
<path d="M11.4062 30.2646H6.23537C5.475 30.2646 4.71449 30.873 4.71449 31.7855C4.71449 32.5459 5.32287 33.3064 6.23537 33.3064H11.4062C12.1666 33.3064 12.9271 32.698 12.9271 31.7855C12.9271 31.025 12.1666 30.2646 11.4062 30.2646Z" fill="#FFD15C"/>
<path d="M17.6416 48.5146L13.9916 52.1646C13.3832 52.773 13.3832 53.6855 13.9916 54.2938C14.6 54.902 15.5125 54.9021 16.1207 54.2938L19.7707 50.6438C20.3791 50.0354 20.3791 49.1229 19.7707 48.5146C19.1624 47.9064 18.25 47.9063 17.6416 48.5146Z" fill="#FFD15C"/>
<path d="M55.3584 48.5146C54.75 47.9063 53.8375 47.9063 53.2291 48.5146C52.6207 49.123 52.6207 50.0355 53.2291 50.6438L56.8791 54.2938C57.4875 54.9021 58.4 54.9021 59.0082 54.2938C59.6165 53.6854 59.6166 52.7729 59.0082 52.1646L55.3584 48.5146Z" fill="#FFD15C"/>
<path d="M66.7646 30.2646H61.5937C60.8334 30.2646 60.0729 30.873 60.0729 31.7855C60.0729 32.5459 60.6812 33.3064 61.5937 33.3064H66.7646C67.525 33.3064 68.2855 32.698 68.2855 31.7855C68.2854 31.025 67.6771 30.2646 66.7646 30.2646Z" fill="#FFD15C"/>
<path d="M56.8791 9.27716L53.2291 12.9272C52.6207 13.5355 52.6207 14.448 53.2291 15.0563C53.8375 15.6647 54.75 15.6647 55.3582 15.0563L59.0082 11.4063C59.6166 10.7979 59.6166 9.88539 59.0082 9.27716C58.3999 8.66892 57.4875 8.66877 56.8791 9.27716Z" fill="#FFD15C"/>
</svg>
