<svg width="52" height="59" viewBox="0 0 52 59" fill="none" xmlns="http://www.w3.org/2000/svg">
    <g style="mix-blend-mode:exclusion" opacity="0.24">
    <path d="M14.1113 21.6605L11.8281 22.978V30.9924H16.9104V21.6605H14.1113Z" fill="#0019FF"/>
    <path d="M16.1285 20.0458L13.3293 21.6605H16.1285V20.0458Z" fill="#0019FF"/>
    <path d="M26.4886 40.9615V46.4348L37.7186 40.0174H28.2186L26.4886 40.9615Z" fill="#0019FF"/>
    <path d="M40.1719 30.9924H25.1204V31.1878H35.8714V35.0973L26.8503 40.0174H36.3503L40.1719 37.834V30.9924Z" fill="#0019FF"/>
    <path d="M40.9537 27.2784H30.2027V21.6605H25.9022V30.9924H40.9537V27.2784Z" fill="#0019FF"/>
    <path d="M40.1718 24.1508V21.6605H34.9038L40.1718 24.1508Z" fill="#0019FF"/>
    <path d="M29.2254 19.0684L34.7084 21.6604H39.9764V20.0458L24.9249 12.0314V21.6604H29.2254V19.0684Z" fill="#0019FF"/>
    <path d="M16.1286 30.9924H11.0463V34.6634H16.1286V30.9924Z" fill="#0019FF"/>
    <path d="M10.4598 34.6635V35.0974L15.5422 37.834V34.6635H10.4598Z" fill="#0019FF"/>
    <path d="M3.90948 32.8279H0V41.548H3.90948V32.8279Z" fill="#0019FF"/>
    <path d="M51.2181 41.548H47.3086V41.591L25.9023 53.9508L4.49591 41.591V41.548H0.586426V43.8487L20.1827 55.1627H31.6218L51.2181 43.8487V41.548Z" fill="#0019FF"/>
    <path d="M24.7295 58.4643L31.4264 55.1628H19.0099L24.7295 58.4643Z" fill="#0019FF"/>
    <path d="M5.27777 17.6826H1.36829V32.8279H5.27777V17.6826Z" fill="#0019FF"/>
    <path d="M52 17.6826H47.1132V32.8279H52V17.6826Z" fill="#0019FF"/>
    <path d="M24.9248 4.51349L24.9463 4.52718H32.7653L24.9248 0L17.0844 4.52718H24.9033L24.9248 4.51349Z" fill="#0019FF"/>
    <path d="M4.30047 16.8734L25.6853 4.52722H18.8437L1.36836 14.6156L0.390991 17.6826H4.30047V16.8734Z" fill="#0019FF"/>
    <path d="M46.3313 16.8734V17.6826H50.2408V14.6156L32.7654 4.52722H24.9464L46.3313 16.8734Z" fill="#0019FF"/>
    <path d="M52.0001 32.8279H48.0906V41.548H52.0001V32.8279Z" fill="#0019FF"/>
    </g>
    <g style="mix-blend-mode:exclusion" opacity="0.24">
    <path d="M14.1113 21.6605L11.8281 22.978V30.9924H16.9104V21.6605H14.1113Z" fill="#0019FF"/>
    <path d="M16.1285 20.0458L13.3293 21.6605H16.1285V20.0458Z" fill="#0019FF"/>
    <path d="M26.4886 40.9615V46.4348L37.7186 40.0174H28.2186L26.4886 40.9615Z" fill="#0019FF"/>
    <path d="M40.1719 30.9924H25.1204V31.1878H35.8714V35.0973L26.8503 40.0174H36.3503L40.1719 37.834V30.9924Z" fill="#0019FF"/>
    <path d="M40.9537 27.2784H30.2027V21.6605H25.9022V30.9924H40.9537V27.2784Z" fill="#0019FF"/>
    <path d="M40.1718 24.1508V21.6605H34.9038L40.1718 24.1508Z" fill="#0019FF"/>
    <path d="M29.2254 19.0684L34.7084 21.6604H39.9764V20.0458L24.9249 12.0314V21.6604H29.2254V19.0684Z" fill="#0019FF"/>
    <path d="M16.1286 30.9924H11.0463V34.6634H16.1286V30.9924Z" fill="#0019FF"/>
    <path d="M10.4598 34.6635V35.0974L15.5422 37.834V34.6635H10.4598Z" fill="#0019FF"/>
    <path d="M3.90948 32.8279H0V41.548H3.90948V32.8279Z" fill="#0019FF"/>
    <path d="M51.2181 41.548H47.3086V41.591L25.9023 53.9508L4.49591 41.591V41.548H0.586426V43.8487L20.1827 55.1627H31.6218L51.2181 43.8487V41.548Z" fill="#0019FF"/>
    <path d="M24.7295 58.4643L31.4264 55.1628H19.0099L24.7295 58.4643Z" fill="#0019FF"/>
    <path d="M5.27777 17.6826H1.36829V32.8279H5.27777V17.6826Z" fill="#0019FF"/>
    <path d="M52 17.6826H47.1132V32.8279H52V17.6826Z" fill="#0019FF"/>
    <path d="M24.9248 4.51349L24.9463 4.52718H32.7653L24.9248 0L17.0844 4.52718H24.9033L24.9248 4.51349Z" fill="#0019FF"/>
    <path d="M4.30047 16.8734L25.6853 4.52722H18.8437L1.36836 14.6156L0.390991 17.6826H4.30047V16.8734Z" fill="#0019FF"/>
    <path d="M46.3313 16.8734V17.6826H50.2408V14.6156L32.7654 4.52722H24.9464L46.3313 16.8734Z" fill="#0019FF"/>
    <path d="M52.0001 32.8279H48.0906V41.548H52.0001V32.8279Z" fill="#0019FF"/>
    </g>
    <path d="M14.1113 21.6605L11.8281 22.978V30.9924H16.9105V21.6605H14.1113Z" fill="#0019FF"/>
    <path d="M16.1285 20.0458L13.3294 21.6604L16.1286 21.6605L16.1285 20.0458Z" fill="#0019FF"/>
    <path d="M26.4887 40.9615V46.4348L37.7187 40.0174H28.2186L26.4887 40.9615Z" fill="#0019FF"/>
    <path d="M40.1719 30.9924L25.1204 30.9924V31.1878H35.8714V35.0973L26.8503 40.0174H36.3503L40.1719 37.834V30.9924Z" fill="#0019FF"/>
    <path d="M40.9538 27.2784H30.2027V21.6605H25.9023V30.9924H40.9538V27.2784Z" fill="#0019FF"/>
    <path d="M40.1719 24.1508V21.6605L34.9038 21.6604L40.1719 24.1508Z" fill="#0019FF"/>
    <path d="M29.2253 19.0685L34.7084 21.6604H39.9764V20.0458L24.9249 12.0314V21.6604H29.2253V19.0685Z" fill="#0019FF"/>
    <path d="M16.1286 30.9924L11.0462 30.9924V34.6634H16.1286V30.9924Z" fill="#0019FF"/>
    <path d="M10.4598 34.6634V35.0974L15.5421 37.834V34.6634H10.4598Z" fill="#0019FF"/>
    <path d="M3.90948 32.8279H0V41.548H3.90948V32.8279Z" fill="#0019FF"/>
    <path d="M51.2181 41.548H47.3086V41.591L25.9023 53.9508L4.4959 41.591V41.548H0.586419V43.8487L20.1827 55.1627H31.6218L51.2181 43.8487V41.548Z" fill="#0019FF"/>
    <path d="M24.7294 58.4644L31.4264 55.1628H19.0098L24.7294 58.4644Z" fill="#0019FF"/>
    <path d="M5.27779 17.6826H1.36831V32.8279H5.27779V17.6826Z" fill="#0019FF"/>
    <path d="M52 17.6826L47.1132 17.6826L47.1131 32.8279L52 32.8279V17.6826Z" fill="#0019FF"/>
    <path d="M24.9249 4.51349L24.9464 4.52718H32.7653L24.9249 0L17.0844 4.52718H24.9034L24.9249 4.51349Z" fill="#0019FF"/>
    <path d="M4.30043 16.8733L25.6853 4.52721H18.8437L1.36832 14.6156L0.390952 17.6826H4.30043V16.8733Z" fill="#0019FF"/>
    <path d="M46.3313 16.8733V17.6826H50.2408V14.6156L32.7653 4.52718H24.9464L46.3313 16.8733Z" fill="#0019FF"/>
    <path d="M52 32.8279L48.0905 32.8279V41.548H52V32.8279Z" fill="#0019FF"/>
    <path d="M14.1113 21.6605L11.8281 22.978V30.9924H16.9105V21.6605H14.1113Z" fill="#0019FF"/>
    <path d="M16.1285 20.0458L13.3294 21.6604L16.1286 21.6605L16.1285 20.0458Z" fill="#0019FF"/>
    <path d="M26.4887 40.9615V46.4348L37.7187 40.0174H28.2186L26.4887 40.9615Z" fill="#0019FF"/>
    <path d="M40.1719 30.9924L25.1204 30.9924V31.1878H35.8714V35.0973L26.8503 40.0174H36.3503L40.1719 37.834V30.9924Z" fill="#0019FF"/>
    <path d="M40.9538 27.2784H30.2027V21.6605H25.9023V30.9924H40.9538V27.2784Z" fill="#0019FF"/>
    <path d="M40.1719 24.1508V21.6605L34.9038 21.6604L40.1719 24.1508Z" fill="#0019FF"/>
    <path d="M29.2253 19.0685L34.7084 21.6604H39.9764V20.0458L24.9249 12.0314V21.6604H29.2253V19.0685Z" fill="#0019FF"/>
    <path d="M16.1286 30.9924L11.0462 30.9924V34.6634H16.1286V30.9924Z" fill="#0019FF"/>
    <path d="M10.4598 34.6634V35.0974L15.5421 37.834V34.6634H10.4598Z" fill="#0019FF"/>
    <path d="M3.90948 32.8279H0V41.548H3.90948V32.8279Z" fill="#0019FF"/>
    <path d="M51.2181 41.548H47.3086V41.591L25.9023 53.9508L4.4959 41.591V41.548H0.586419V43.8487L20.1827 55.1627H31.6218L51.2181 43.8487V41.548Z" fill="#0019FF"/>
    <path d="M24.7294 58.4644L31.4264 55.1628H19.0098L24.7294 58.4644Z" fill="#0019FF"/>
    <path d="M5.27779 17.6826H1.36831V32.8279H5.27779V17.6826Z" fill="#0019FF"/>
    <path d="M52 17.6826L47.1132 17.6826L47.1131 32.8279L52 32.8279V17.6826Z" fill="#0019FF"/>
    <path d="M24.9249 4.51349L24.9464 4.52718H32.7653L24.9249 0L17.0844 4.52718H24.9034L24.9249 4.51349Z" fill="#0019FF"/>
    <path d="M4.30043 16.8733L25.6853 4.52721H18.8437L1.36832 14.6156L0.390952 17.6826H4.30043V16.8733Z" fill="#0019FF"/>
    <path d="M46.3313 16.8733V17.6826H50.2408V14.6156L32.7653 4.52718H24.9464L46.3313 16.8733Z" fill="#0019FF"/>
    <path d="M52 32.8279L48.0905 32.8279V41.548H52V32.8279Z" fill="#0019FF"/>
    <path d="M14.1113 21.6605L11.8281 22.978V30.9924H16.9105V21.6605H14.1113Z" fill="#0019FF"/>
    <path d="M16.1285 20.0458L13.3294 21.6604L16.1286 21.6605L16.1285 20.0458Z" fill="#0019FF"/>
    <path d="M26.4887 40.9615V46.4348L37.7187 40.0174H28.2186L26.4887 40.9615Z" fill="#0019FF"/>
    <path d="M40.1719 30.9924L25.1204 30.9924V31.1878H35.8714V35.0973L26.8503 40.0174H36.3503L40.1719 37.834V30.9924Z" fill="#0019FF"/>
    <path d="M40.9538 27.2784H30.2027V21.6605H25.9023V30.9924H40.9538V27.2784Z" fill="#0019FF"/>
    <path d="M40.1719 24.1508V21.6605L34.9038 21.6604L40.1719 24.1508Z" fill="#0019FF"/>
    <path d="M29.2253 19.0685L34.7084 21.6604H39.9764V20.0458L24.9249 12.0314V21.6604H29.2253V19.0685Z" fill="#0019FF"/>
    <path d="M16.1286 30.9924L11.0462 30.9924V34.6634H16.1286V30.9924Z" fill="#0019FF"/>
    <path d="M10.4598 34.6634V35.0974L15.5421 37.834V34.6634H10.4598Z" fill="#0019FF"/>
    <path d="M3.90948 32.8279H0V41.548H3.90948V32.8279Z" fill="#0019FF"/>
    <path d="M51.2181 41.548H47.3086V41.591L25.9023 53.9508L4.4959 41.591V41.548H0.586419V43.8487L20.1827 55.1627H31.6218L51.2181 43.8487V41.548Z" fill="#0019FF"/>
    <path d="M24.7294 58.4644L31.4264 55.1628H19.0098L24.7294 58.4644Z" fill="#0019FF"/>
    <path d="M5.27779 17.6826H1.36831V32.8279H5.27779V17.6826Z" fill="#0019FF"/>
    <path d="M52 17.6826L47.1132 17.6826L47.1131 32.8279L52 32.8279V17.6826Z" fill="#0019FF"/>
    <path d="M24.9249 4.51349L24.9464 4.52718H32.7653L24.9249 0L17.0844 4.52718H24.9034L24.9249 4.51349Z" fill="#0019FF"/>
    <path d="M4.30043 16.8733L25.6853 4.52721H18.8437L1.36832 14.6156L0.390952 17.6826H4.30043V16.8733Z" fill="#0019FF"/>
    <path d="M46.3313 16.8733V17.6826H50.2408V14.6156L32.7653 4.52718H24.9464L46.3313 16.8733Z" fill="#0019FF"/>
    <path d="M52 32.8279L48.0905 32.8279V41.548H52V32.8279Z" fill="#0019FF"/>
    <path d="M14.1113 21.6605L11.8281 22.978V30.9924H16.9105V21.6605H14.1113Z" fill="#0019FF"/>
    <path d="M16.1285 20.0458L13.3294 21.6604L16.1286 21.6605L16.1285 20.0458Z" fill="#0019FF"/>
    <path d="M26.4887 40.9615V46.4348L37.7187 40.0174H28.2186L26.4887 40.9615Z" fill="#0019FF"/>
    <path d="M40.1719 30.9924L25.1204 30.9924V31.1878H35.8714V35.0973L26.8503 40.0174H36.3503L40.1719 37.834V30.9924Z" fill="#0019FF"/>
    <path d="M40.9538 27.2784H30.2027V21.6605H25.9023V30.9924H40.9538V27.2784Z" fill="#0019FF"/>
    <path d="M40.1719 24.1508V21.6605L34.9038 21.6604L40.1719 24.1508Z" fill="#0019FF"/>
    <path d="M29.2253 19.0685L34.7084 21.6604H39.9764V20.0458L24.9249 12.0314V21.6604H29.2253V19.0685Z" fill="#0019FF"/>
    <path d="M16.1286 30.9924L11.0462 30.9924V34.6634H16.1286V30.9924Z" fill="#0019FF"/>
    <path d="M10.4598 34.6634V35.0974L15.5421 37.834V34.6634H10.4598Z" fill="#0019FF"/>
    <path d="M3.90948 32.8279H0V41.548H3.90948V32.8279Z" fill="#0019FF"/>
    <path d="M51.2181 41.548H47.3086V41.591L25.9023 53.9508L4.4959 41.591V41.548H0.586419V43.8487L20.1827 55.1627H31.6218L51.2181 43.8487V41.548Z" fill="#0019FF"/>
    <path d="M24.7294 58.4644L31.4264 55.1628H19.0098L24.7294 58.4644Z" fill="#0019FF"/>
    <path d="M5.27779 17.6826H1.36831V32.8279H5.27779V17.6826Z" fill="#0019FF"/>
    <path d="M52 17.6826L47.1132 17.6826L47.1131 32.8279L52 32.8279V17.6826Z" fill="#0019FF"/>
    <path d="M24.9249 4.51349L24.9464 4.52718H32.7653L24.9249 0L17.0844 4.52718H24.9034L24.9249 4.51349Z" fill="#0019FF"/>
    <path d="M4.30043 16.8733L25.6853 4.52721H18.8437L1.36832 14.6156L0.390952 17.6826H4.30043V16.8733Z" fill="#0019FF"/>
    <path d="M46.3313 16.8733V17.6826H50.2408V14.6156L32.7653 4.52718H24.9464L46.3313 16.8733Z" fill="#0019FF"/>
    <path d="M52 32.8279L48.0905 32.8279V41.548H52V32.8279Z" fill="#0019FF"/>
    <path d="M14.1113 21.6605L11.8281 22.978V30.9924H16.9105V21.6605H14.1113Z" fill="#0019FF"/>
    <path d="M16.1285 20.0458L13.3294 21.6604L16.1286 21.6605L16.1285 20.0458Z" fill="#0019FF"/>
    <path d="M26.4887 40.9615V46.4348L37.7187 40.0174H28.2186L26.4887 40.9615Z" fill="#0019FF"/>
    <path d="M40.1719 30.9924L25.1204 30.9924V31.1878H35.8714V35.0973L26.8503 40.0174H36.3503L40.1719 37.834V30.9924Z" fill="#0019FF"/>
    <path d="M40.9538 27.2784H30.2027V21.6605H25.9023V30.9924H40.9538V27.2784Z" fill="#0019FF"/>
    <path d="M40.1719 24.1508V21.6605L34.9038 21.6604L40.1719 24.1508Z" fill="#0019FF"/>
    <path d="M29.2253 19.0685L34.7084 21.6604H39.9764V20.0458L24.9249 12.0314V21.6604H29.2253V19.0685Z" fill="#0019FF"/>
    <path d="M16.1286 30.9924L11.0462 30.9924V34.6634H16.1286V30.9924Z" fill="#0019FF"/>
    <path d="M10.4598 34.6634V35.0974L15.5421 37.834V34.6634H10.4598Z" fill="#0019FF"/>
    <path d="M3.90948 32.8279H0V41.548H3.90948V32.8279Z" fill="#0019FF"/>
    <path d="M51.2181 41.548H47.3086V41.591L25.9023 53.9508L4.4959 41.591V41.548H0.586419V43.8487L20.1827 55.1627H31.6218L51.2181 43.8487V41.548Z" fill="#0019FF"/>
    <path d="M24.7294 58.4644L31.4264 55.1628H19.0098L24.7294 58.4644Z" fill="#0019FF"/>
    <path d="M5.27779 17.6826H1.36831V32.8279H5.27779V17.6826Z" fill="#0019FF"/>
    <path d="M52 17.6826L47.1132 17.6826L47.1131 32.8279L52 32.8279V17.6826Z" fill="#0019FF"/>
    <path d="M24.9249 4.51349L24.9464 4.52718H32.7653L24.9249 0L17.0844 4.52718H24.9034L24.9249 4.51349Z" fill="#0019FF"/>
    <path d="M4.30043 16.8733L25.6853 4.52721H18.8437L1.36832 14.6156L0.390952 17.6826H4.30043V16.8733Z" fill="#0019FF"/>
    <path d="M46.3313 16.8733V17.6826H50.2408V14.6156L32.7653 4.52718H24.9464L46.3313 16.8733Z" fill="#0019FF"/>
    <path d="M52 32.8279L48.0905 32.8279V41.548H52V32.8279Z" fill="#0019FF"/>
    <path d="M14.1113 21.6605L11.8281 22.978V30.9924H16.9105V21.6605H14.1113Z" fill="#0019FF"/>
    <path d="M16.1285 20.0458L13.3294 21.6604L16.1286 21.6605L16.1285 20.0458Z" fill="#0019FF"/>
    <path d="M26.4887 40.9615V46.4348L37.7187 40.0174H28.2186L26.4887 40.9615Z" fill="#0019FF"/>
    <path d="M40.1719 30.9924L25.1204 30.9924V31.1878H35.8714V35.0973L26.8503 40.0174H36.3503L40.1719 37.834V30.9924Z" fill="#0019FF"/>
    <path d="M40.9538 27.2784H30.2027V21.6605H25.9023V30.9924H40.9538V27.2784Z" fill="#0019FF"/>
    <path d="M40.1719 24.1508V21.6605L34.9038 21.6604L40.1719 24.1508Z" fill="#0019FF"/>
    <path d="M29.2253 19.0685L34.7084 21.6604H39.9764V20.0458L24.9249 12.0314V21.6604H29.2253V19.0685Z" fill="#0019FF"/>
    <path d="M16.1286 30.9924L11.0462 30.9924V34.6634H16.1286V30.9924Z" fill="#0019FF"/>
    <path d="M10.4598 34.6634V35.0974L15.5421 37.834V34.6634H10.4598Z" fill="#0019FF"/>
    <path d="M3.90948 32.8279H0V41.548H3.90948V32.8279Z" fill="#0019FF"/>
    <path d="M51.2181 41.548H47.3086V41.591L25.9023 53.9508L4.4959 41.591V41.548H0.586419V43.8487L20.1827 55.1627H31.6218L51.2181 43.8487V41.548Z" fill="#0019FF"/>
    <path d="M24.7294 58.4644L31.4264 55.1628H19.0098L24.7294 58.4644Z" fill="#0019FF"/>
    <path d="M5.27779 17.6826H1.36831V32.8279H5.27779V17.6826Z" fill="#0019FF"/>
    <path d="M52 17.6826L47.1132 17.6826L47.1131 32.8279L52 32.8279V17.6826Z" fill="#0019FF"/>
    <path d="M24.9249 4.51349L24.9464 4.52718H32.7653L24.9249 0L17.0844 4.52718H24.9034L24.9249 4.51349Z" fill="#0019FF"/>
    <path d="M4.30043 16.8733L25.6853 4.52721H18.8437L1.36832 14.6156L0.390952 17.6826H4.30043V16.8733Z" fill="#0019FF"/>
    <path d="M46.3313 16.8733V17.6826H50.2408V14.6156L32.7653 4.52718H24.9464L46.3313 16.8733Z" fill="#0019FF"/>
    <path d="M52 32.8279L48.0905 32.8279V41.548H52V32.8279Z" fill="#0019FF"/>
    <path d="M14.1113 21.6605L11.8281 22.978V30.9924H16.9105V21.6605H14.1113Z" fill="#0019FF"/>
    <path d="M16.1285 20.0458L13.3294 21.6604L16.1286 21.6605L16.1285 20.0458Z" fill="#0019FF"/>
    <path d="M26.4887 40.9615V46.4348L37.7187 40.0174H28.2186L26.4887 40.9615Z" fill="#0019FF"/>
    <path d="M40.1719 30.9924L25.1204 30.9924V31.1878H35.8714V35.0973L26.8503 40.0174H36.3503L40.1719 37.834V30.9924Z" fill="#0019FF"/>
    <path d="M40.9538 27.2784H30.2027V21.6605H25.9023V30.9924H40.9538V27.2784Z" fill="#0019FF"/>
    <path d="M40.1719 24.1508V21.6605L34.9038 21.6604L40.1719 24.1508Z" fill="#0019FF"/>
    <path d="M29.2253 19.0685L34.7084 21.6604H39.9764V20.0458L24.9249 12.0314V21.6604H29.2253V19.0685Z" fill="#0019FF"/>
    <path d="M16.1286 30.9924L11.0462 30.9924V34.6634H16.1286V30.9924Z" fill="#0019FF"/>
    <path d="M10.4598 34.6634V35.0974L15.5421 37.834V34.6634H10.4598Z" fill="#0019FF"/>
    <path d="M3.90948 32.8279H0V41.548H3.90948V32.8279Z" fill="#0019FF"/>
    <path d="M51.2181 41.548H47.3086V41.591L25.9023 53.9508L4.4959 41.591V41.548H0.586419V43.8487L20.1827 55.1627H31.6218L51.2181 43.8487V41.548Z" fill="#0019FF"/>
    <path d="M24.7294 58.4644L31.4264 55.1628H19.0098L24.7294 58.4644Z" fill="#0019FF"/>
    <path d="M5.27779 17.6826H1.36831V32.8279H5.27779V17.6826Z" fill="#0019FF"/>
    <path d="M52 17.6826L47.1132 17.6826L47.1131 32.8279L52 32.8279V17.6826Z" fill="#0019FF"/>
    <path d="M24.9249 4.51349L24.9464 4.52718H32.7653L24.9249 0L17.0844 4.52718H24.9034L24.9249 4.51349Z" fill="#0019FF"/>
    <path d="M4.30043 16.8733L25.6853 4.52721H18.8437L1.36832 14.6156L0.390952 17.6826H4.30043V16.8733Z" fill="#0019FF"/>
    <path d="M46.3313 16.8733V17.6826H50.2408V14.6156L32.7653 4.52718H24.9464L46.3313 16.8733Z" fill="#0019FF"/>
    <path d="M52 32.8279L48.0905 32.8279V41.548H52V32.8279Z" fill="#0019FF"/>
    </svg>
    