<svg width="61" height="59" viewBox="0 0 61 59" fill="none" xmlns="http://www.w3.org/2000/svg">
<path fill-rule="evenodd" clip-rule="evenodd" d="M23.1742 39.254C34.3949 39.254 43.9853 40.9543 43.9853 47.7463C43.9853 54.5383 34.4588 56.2873 23.1742 56.2873C11.9504 56.2873 2.3631 54.6022 2.3631 47.8071C2.3631 41.0121 11.8866 39.254 23.1742 39.254Z" stroke="#53545C" stroke-width="4.5625" stroke-linecap="round" stroke-linejoin="round"/>
<path fill-rule="evenodd" clip-rule="evenodd" d="M23.1742 29.5603C15.8072 29.5603 9.8334 23.5895 9.8334 16.2226C9.8334 8.85568 15.8072 2.88489 23.1742 2.88489C30.538 2.88489 36.5119 8.85568 36.5119 16.2226C36.5392 23.5621 30.608 29.5329 23.2684 29.5603H23.1742Z" stroke="#53545C" stroke-width="4.5625" stroke-linecap="round" stroke-linejoin="round"/>
<path d="M44.1362 26.0983C49.0059 25.414 52.7563 21.2347 52.7654 16.1764C52.7654 11.1911 49.1306 7.05447 44.3643 6.27277" stroke="#53545C" stroke-width="4.5625" stroke-linecap="round" stroke-linejoin="round"/>
<path d="M50.561 37.8105C55.2786 38.5132 58.5728 40.1678 58.5728 43.5745C58.5728 45.9196 57.0215 47.4405 54.5152 48.3925" stroke="#53545C" stroke-width="4.5625" stroke-linecap="round" stroke-linejoin="round"/>
</svg>
