<svg width="73" height="73" viewBox="0 0 73 73" fill="none" xmlns="http://www.w3.org/2000/svg">
<path fill-rule="evenodd" clip-rule="evenodd" d="M29.1742 46.254C40.3949 46.254 49.9853 47.9543 49.9853 54.7463C49.9853 61.5383 40.4588 63.2873 29.1742 63.2873C17.9504 63.2873 8.3631 61.6022 8.3631 54.8071C8.3631 48.0121 17.8866 46.254 29.1742 46.254Z" stroke="#53545C" stroke-width="4.5625" stroke-linecap="round" stroke-linejoin="round"/>
<path fill-rule="evenodd" clip-rule="evenodd" d="M29.1742 36.5603C21.8072 36.5603 15.8334 30.5895 15.8334 23.2226C15.8334 15.8557 21.8072 9.88489 29.1742 9.88489C36.538 9.88489 42.5119 15.8557 42.5119 23.2226C42.5392 30.5621 36.608 36.5329 29.2684 36.5603H29.1742Z" stroke="#53545C" stroke-width="4.5625" stroke-linecap="round" stroke-linejoin="round"/>
<path d="M50.1362 33.0983C55.0059 32.414 58.7563 28.2347 58.7654 23.1764C58.7654 18.1911 55.1306 14.0545 50.3643 13.2728" stroke="#53545C" stroke-width="4.5625" stroke-linecap="round" stroke-linejoin="round"/>
<path d="M56.561 44.8105C61.2786 45.5132 64.5728 47.1678 64.5728 50.5745C64.5728 52.9196 63.0215 54.4405 60.5152 55.3925" stroke="#53545C" stroke-width="4.5625" stroke-linecap="round" stroke-linejoin="round"/>
</svg>
