<svg width="56" height="56" viewBox="0 0 56 56" fill="none" xmlns="http://www.w3.org/2000/svg">
<rect width="56" height="56" rx="12" fill="#0019FF"/>
<path opacity="0.4" d="M32.0756 18H35.4616C36.8639 18 38.0001 19.1459 38.0001 20.56V23.9745C38.0001 25.3886 36.8639 26.5345 35.4616 26.5345H32.0756C30.6734 26.5345 29.5371 25.3886 29.5371 23.9745V20.56C29.5371 19.1459 30.6734 18 32.0756 18Z" fill="white"/>
<path fill-rule="evenodd" clip-rule="evenodd" d="M20.5385 18H23.9245C25.3268 18 26.463 19.1459 26.463 20.56V23.9745C26.463 25.3886 25.3268 26.5345 23.9245 26.5345H20.5385C19.1363 26.5345 18 25.3886 18 23.9745V20.56C18 19.1459 19.1363 18 20.5385 18ZM20.5385 29.4655H23.9245C25.3268 29.4655 26.463 30.6114 26.463 32.0255V35.44C26.463 36.8532 25.3268 38 23.9245 38H20.5385C19.1363 38 18 36.8532 18 35.44V32.0255C18 30.6114 19.1363 29.4655 20.5385 29.4655ZM35.4615 29.4655H32.0755C30.6732 29.4655 29.537 30.6114 29.537 32.0255V35.44C29.537 36.8532 30.6732 38 32.0755 38H35.4615C36.8637 38 38 36.8532 38 35.44V32.0255C38 30.6114 36.8637 29.4655 35.4615 29.4655Z" fill="white"/>
</svg>
