<svg width="228" height="44" viewBox="0 0 228 44" fill="none" xmlns="http://www.w3.org/2000/svg">
    <rect y="21" width="20" height="2" fill="#0019FF"/>
    <rect x="20" y="4" width="36" height="36" rx="18" fill="#0019FF"/>
    <path fill-rule="evenodd" clip-rule="evenodd" d="M45.5486 16.3515C46.0173 16.8201 46.0173 17.5799 45.5486 18.0485L35.9486 27.6485C35.48 28.1172 34.7202 28.1172 34.2516 27.6485L29.4516 22.8485C28.9829 22.3799 28.9829 21.6201 29.4516 21.1515C29.9202 20.6828 30.68 20.6828 31.1486 21.1515L35.1001 25.1029L43.8516 16.3515C44.3202 15.8828 45.08 15.8828 45.5486 16.3515Z" fill="white"/>
    <rect x="56" y="21" width="20" height="2" fill="#0019FF"/>
    <rect x="76" y="21" width="20" height="2" fill="#0019FF"/>
    <g filter="url(#filter0_d_563_31583)">
    <rect x="96" y="4" width="36" height="36" rx="18" fill="white"/>
    <rect x="97" y="5" width="34" height="34" rx="17" stroke="#0019FF" stroke-width="2"/>
    <circle cx="114" cy="22" r="6" fill="#0019FF"/>
    </g>
    <rect x="132" y="21" width="20" height="2" fill="#0019FF"/>
    <rect x="152" y="21" width="20" height="2" fill="#0019FF"/>
    <rect x="173" y="5" width="34" height="34" rx="17" stroke="#0019FF" stroke-width="2"/>
    <rect x="208" y="21" width="20" height="2" fill="#0019FF"/>
    <defs>
    <filter id="filter0_d_563_31583" x="92" y="0" width="44" height="44" filterUnits="userSpaceOnUse" color-interpolation-filters="sRGB">
    <feFlood flood-opacity="0" result="BackgroundImageFix"/>
    <feColorMatrix in="SourceAlpha" type="matrix" values="0 0 0 0 0 0 0 0 0 0 0 0 0 0 0 0 0 0 127 0" result="hardAlpha"/>
    <feMorphology radius="4" operator="dilate" in="SourceAlpha" result="effect1_dropShadow_563_31583"/>
    <feOffset/>
    <feColorMatrix type="matrix" values="0 0 0 0 0.882353 0 0 0 0 0.882353 0 0 0 0 0.996078 0 0 0 1 0"/>
    <feBlend mode="normal" in2="BackgroundImageFix" result="effect1_dropShadow_563_31583"/>
    <feBlend mode="normal" in="SourceGraphic" in2="effect1_dropShadow_563_31583" result="shape"/>
    </filter>
    </defs>
    </svg>
    