<svg width="16" height="17" viewBox="0 0 16 17" fill="none" xmlns="http://www.w3.org/2000/svg">
<path d="M15.3489 1.00679L15.3296 0.989146C14.9597 0.651294 14.4803 0.46521 13.9796 0.46521C13.4182 0.46521 12.8793 0.702835 12.5008 1.1171L5.34532 8.95095C5.2801 9.02235 5.23063 9.10659 5.20004 9.1983L4.35866 11.7207C4.26138 12.0123 4.3102 12.3348 4.48924 12.5833C4.66971 12.8338 4.96044 12.9834 5.26702 12.9834C5.39962 12.9834 5.52928 12.9561 5.65222 12.9023L8.08835 11.8365C8.17692 11.7978 8.25638 11.7409 8.32155 11.6695L15.4771 3.83572C16.2217 3.02059 16.1643 1.75163 15.3489 1.00679ZM5.97073 11.2547L6.46445 9.77461L6.50609 9.72901L7.44185 10.5837L7.40021 10.6293L5.97073 11.2547ZM14.4569 2.90378L8.37379 9.56351L7.43802 8.70881L13.5211 2.04904C13.6401 1.91878 13.8029 1.84702 13.9796 1.84702C14.1346 1.84702 14.2831 1.90469 14.3979 2.00961L14.4172 2.02725C14.6698 2.25797 14.6876 2.65119 14.4569 2.90378Z" fill="#53545C"/>
<path d="M13.9606 6.83943C13.579 6.83943 13.2697 7.14877 13.2697 7.53034V13.396C13.2697 14.3648 12.4814 15.153 11.5126 15.153H3.13887C2.16999 15.153 1.38181 14.3648 1.38181 13.396V5.09029C1.38181 4.12146 2.17004 3.33323 3.13887 3.33323H9.19982C9.58138 3.33323 9.89072 3.02389 9.89072 2.64232C9.89072 2.26076 9.58138 1.95142 9.19982 1.95142H3.13887C1.40806 1.95142 0 3.35953 0 5.09029V13.3959C0 15.1267 1.40811 16.5348 3.13887 16.5348H11.5126C13.2433 16.5348 14.6514 15.1267 14.6514 13.3959V7.53034C14.6515 7.14877 14.3421 6.83943 13.9606 6.83943Z" fill="#53545C"/>
</svg>
