<svg width="46" height="46" viewBox="0 0 46 46" fill="none" xmlns="http://www.w3.org/2000/svg">
<path opacity="0.4" d="M13 17.447C13 14.996 15.0302 13 17.5245 13H22.4856C24.9748 13 27 14.99 27 17.437V28.553C27 31.005 24.9698 33 22.4744 33H17.5154C15.0252 33 13 31.01 13 28.563V27.623V17.447Z" fill="#CC5F5F"/>
<path d="M32.7789 22.4548L29.9331 19.5458C29.639 19.2458 29.1657 19.2458 28.8725 19.5478C28.5803 19.8498 28.5813 20.3368 28.8745 20.6368L30.4337 22.2298H28.9387H20.5484C20.1345 22.2298 19.7985 22.5748 19.7985 22.9998C19.7985 23.4258 20.1345 23.7698 20.5484 23.7698H30.4337L28.8745 25.3628C28.5813 25.6628 28.5803 26.1498 28.8725 26.4518C29.0196 26.6028 29.2114 26.6788 29.4043 26.6788C29.5952 26.6788 29.787 26.6028 29.9331 26.4538L32.7789 23.5458C32.9201 23.4008 33 23.2048 33 22.9998C33 22.7958 32.9201 22.5998 32.7789 22.4548Z" fill="#CC5F5F"/>
</svg>
