<svg width="290" height="46" viewBox="0 0 290 46" fill="none" xmlns="http://www.w3.org/2000/svg">
<path d="M30.1888 0.569779C31.8155 0.569779 33.3323 0.877538 34.7392 1.49306C36.1461 2.10857 37.3772 2.94392 38.4323 3.99909C39.4875 5.05426 40.3229 6.2853 40.9384 7.6922C41.5539 9.09909 41.8617 10.6159 41.8617 12.2426V16.0676C41.8617 17.6504 41.5539 19.1672 40.9384 20.6181C40.3229 22.025 39.4875 23.256 38.4323 24.3112C37.3772 25.3663 36.1461 26.2017 34.7392 26.8172C33.3323 27.4327 31.8155 27.7405 30.1888 27.7405H14.691V44.3594C14.691 44.7551 14.5591 45.1069 14.2953 45.4146C14.0315 45.6784 13.7017 45.8103 13.3061 45.8103H7.10691C6.71122 45.8103 6.3595 45.6784 6.05174 45.4146C5.78795 45.1069 5.65605 44.7551 5.65605 44.3594V2.02064C5.65605 1.62495 5.78795 1.29521 6.05174 1.03142C6.3595 0.723659 6.71122 0.569779 7.10691 0.569779H30.1888ZM32.8267 12.2426C32.8267 11.4952 32.563 10.8797 32.0354 10.3961C31.5517 9.86849 30.9362 9.6047 30.1888 9.6047H14.691V18.7056H30.1888C30.9362 18.7056 31.5517 18.4637 32.0354 17.9801C32.563 17.4525 32.8267 16.815 32.8267 16.0676V12.2426ZM74.8533 0.635727C76.48 0.635727 77.9968 0.943487 79.4037 1.55901C80.8106 2.17452 82.0417 3.00987 83.0969 4.06504C84.152 5.12021 84.9874 6.35125 85.6029 7.75814C86.2184 9.16504 86.5262 10.6599 86.5262 12.2426V34.2034C86.5262 35.7862 86.2184 37.281 85.6029 38.6879C84.9874 40.0948 84.152 41.3258 83.0969 42.381C82.0417 43.4362 80.8106 44.2715 79.4037 44.887C77.9968 45.5025 76.48 45.8103 74.8533 45.8103H61.9934C60.3667 45.8103 58.8499 45.5025 57.443 44.887C56.0361 44.2715 54.805 43.4362 53.7499 42.381C52.6947 41.3258 51.8593 40.0948 51.2438 38.6879C50.6283 37.281 50.3206 35.7862 50.3206 34.2034V12.2426C50.3206 10.6599 50.6283 9.16504 51.2438 7.75814C51.8593 6.35125 52.6947 5.12021 53.7499 4.06504C54.805 3.00987 56.0361 2.17452 57.443 1.55901C58.8499 0.943487 60.3667 0.635727 61.9934 0.635727H74.8533ZM77.4912 12.2426C77.4912 11.4952 77.2275 10.8797 76.6999 10.3961C76.2162 9.91245 75.6007 9.67064 74.8533 9.67064H61.9934C61.246 9.67064 60.6085 9.91245 60.0809 10.3961C59.5973 10.8797 59.3555 11.4952 59.3555 12.2426V34.2034C59.3555 34.9508 59.5973 35.5663 60.0809 36.05C60.6085 36.5336 61.246 36.7754 61.9934 36.7754H74.8533C75.6007 36.7754 76.2162 36.5336 76.6999 36.05C77.2275 35.5663 77.4912 34.9508 77.4912 34.2034V12.2426ZM130.531 44.4913C130.707 44.8431 130.707 45.1508 130.531 45.4146C130.355 45.6784 130.07 45.8103 129.674 45.8103H122.617C122.222 45.8103 121.826 45.6784 121.43 45.4146C121.079 45.1508 120.815 44.8431 120.639 44.4913L113.055 27.7405H104.086V44.3594C104.086 44.7551 103.932 45.1069 103.624 45.4146C103.36 45.6784 103.031 45.8103 102.635 45.8103H96.4359C96.0402 45.8103 95.6885 45.6784 95.3807 45.4146C95.117 45.1069 94.9851 44.7551 94.9851 44.3594V2.02064C94.9851 1.62495 95.117 1.29521 95.3807 1.03142C95.6885 0.723659 96.0402 0.569779 96.4359 0.569779H119.518C121.145 0.569779 122.661 0.877538 124.068 1.49306C125.475 2.10857 126.706 2.94392 127.761 3.99909C128.817 5.05426 129.652 6.2853 130.267 7.6922C130.883 9.09909 131.191 10.6159 131.191 12.2426V16.0676C131.191 17.3866 130.971 18.6616 130.531 19.8926C130.135 21.0797 129.564 22.1788 128.817 23.19C128.069 24.1573 127.168 24.9926 126.113 25.6961C125.101 26.3995 123.98 26.9271 122.749 27.2788L130.531 44.4913ZM119.518 18.7056C120.265 18.7056 120.881 18.4637 121.364 17.9801C121.892 17.4525 122.156 16.815 122.156 16.0676V12.2426C122.156 11.4952 121.892 10.8797 121.364 10.3961C120.881 9.86849 120.265 9.6047 119.518 9.6047H104.086V18.7056H119.518ZM174.404 0.569779C174.8 0.569779 175.13 0.723659 175.394 1.03142C175.701 1.29521 175.855 1.62495 175.855 2.02064V8.21978C175.855 8.61547 175.701 8.94521 175.394 9.20901C175.13 9.4728 174.8 9.6047 174.404 9.6047H162.27V44.3594C162.27 44.7551 162.116 45.1069 161.808 45.4146C161.544 45.6784 161.215 45.8103 160.819 45.8103H154.62C154.224 45.8103 153.894 45.6784 153.631 45.4146C153.367 45.1069 153.235 44.7551 153.235 44.3594V9.6047H141.1C140.705 9.6047 140.353 9.4728 140.045 9.20901C139.781 8.94521 139.65 8.61547 139.65 8.21978V2.02064C139.65 1.62495 139.781 1.29521 140.045 1.03142C140.353 0.723659 140.705 0.569779 141.1 0.569779H174.404ZM208.583 0.569779C208.979 0.569779 209.352 0.701677 209.704 0.965472C210.1 1.22926 210.364 1.53702 210.496 1.88875L219.992 25.4982C220.124 25.85 220.234 26.3116 220.322 26.8831C220.454 27.4107 220.52 27.8724 220.52 28.2681V44.3594C220.52 44.7551 220.366 45.1069 220.058 45.4146C219.794 45.6784 219.464 45.8103 219.069 45.8103H212.87C212.474 45.8103 212.122 45.6784 211.814 45.4146C211.551 45.1069 211.419 44.7551 211.419 44.3594V36.7754H193.349V44.3594C193.349 44.7551 193.195 45.1069 192.887 45.4146C192.624 45.6784 192.294 45.8103 191.898 45.8103H185.765C185.369 45.8103 185.018 45.6784 184.71 45.4146C184.446 45.1069 184.314 44.7551 184.314 44.3594V28.2681C184.314 27.8724 184.358 27.4107 184.446 26.8831C184.578 26.3116 184.71 25.85 184.842 25.4982L194.272 1.88875C194.448 1.53702 194.712 1.22926 195.064 0.965472C195.459 0.701677 195.855 0.569779 196.251 0.569779H208.583ZM193.679 27.7405H211.089L203.835 9.6047H200.933L193.679 27.7405ZM263.206 45.8103H232.342C231.946 45.8103 231.595 45.6784 231.287 45.4146C231.023 45.1069 230.891 44.7551 230.891 44.3594V2.02064C230.891 1.62495 231.023 1.29521 231.287 1.03142C231.595 0.723659 231.946 0.569779 232.342 0.569779H238.475C238.871 0.569779 239.201 0.723659 239.464 1.03142C239.772 1.29521 239.926 1.62495 239.926 2.02064V36.7754H263.206C263.601 36.7754 263.931 36.9293 264.195 37.237C264.459 37.5008 264.591 37.8306 264.591 38.2263V44.3594C264.591 44.7551 264.459 45.1069 264.195 45.4146C263.931 45.6784 263.601 45.8103 263.206 45.8103Z" fill="black"/>
<path d="M277.723 6.44967C277.723 6.23864 277.648 6.05864 277.499 5.90967C277.363 5.77312 277.189 5.70484 276.978 5.70484H275.172V12.9669C275.172 13.0786 275.128 13.1717 275.041 13.2462C274.967 13.3331 274.874 13.3766 274.762 13.3766L273.012 13.3766C272.9 13.3766 272.807 13.3331 272.732 13.2462C272.658 13.1717 272.621 13.0786 272.621 12.9669V3.56347C272.621 3.45174 272.658 3.35243 272.732 3.26553C272.807 3.19105 272.9 3.15381 273.012 3.15381H276.978C277.437 3.15381 277.866 3.24071 278.263 3.4145C278.66 3.58829 279.008 3.82415 279.306 4.12209C279.603 4.42002 279.839 4.7676 280.013 5.16484C280.187 5.56209 280.274 5.99036 280.274 6.44967V8.25588V10.0807C280.274 10.2917 280.342 10.4655 280.479 10.6021C280.628 10.7511 280.808 10.8255 281.019 10.8255H282.099C282.31 10.8255 282.483 10.7511 282.62 10.6021C282.757 10.4655 282.825 10.2917 282.825 10.0807V6.44967C282.825 6.23864 282.757 6.05864 282.62 5.90967C282.483 5.77312 282.31 5.70484 282.099 5.70484H281.95C281.838 5.70484 281.745 5.6676 281.67 5.59312C281.596 5.51864 281.559 5.42553 281.559 5.31381V3.56347C281.559 3.45174 281.596 3.35243 281.67 3.26553C281.745 3.19105 281.838 3.15381 281.95 3.15381H282.099C282.546 3.15381 282.968 3.24071 283.365 3.4145C283.762 3.58829 284.11 3.82415 284.408 4.12209C284.706 4.42002 284.941 4.7676 285.115 5.16484C285.289 5.56209 285.376 5.99036 285.376 6.44967V10.0807C285.376 10.5276 285.289 10.9497 285.115 11.3469C284.941 11.7566 284.706 12.1104 284.408 12.4083C284.11 12.7062 283.762 12.9421 283.365 13.1159C282.968 13.2897 282.546 13.3766 282.099 13.3766H281.019C280.559 13.3766 280.131 13.2897 279.734 13.1159C279.337 12.9421 278.989 12.7062 278.691 12.4083C278.393 12.1104 278.157 11.7566 277.983 11.3469C277.81 10.9497 277.723 10.5276 277.723 10.0807V8.25588V6.44967ZM272.974 23.6043C272.875 23.6663 272.788 23.6725 272.714 23.6229C272.652 23.5857 272.621 23.5112 272.621 23.3994V21.2767C272.621 21.165 272.652 21.0532 272.714 20.9415C272.788 20.8298 272.875 20.7429 272.974 20.6808L277.723 17.9808V16.1746H273.03C272.919 16.1746 272.819 16.1312 272.732 16.0443C272.658 15.9698 272.621 15.8767 272.621 15.765V14.0146C272.621 13.9029 272.658 13.8098 272.732 13.7353C272.819 13.6608 272.919 13.6236 273.03 13.6236L284.985 13.6236C285.097 13.6236 285.19 13.6608 285.264 13.7353C285.351 13.8098 285.394 13.9029 285.394 14.0146V15.765C285.394 15.8767 285.351 15.9698 285.264 16.0443C285.19 16.1312 285.097 16.1746 284.985 16.1746H280.274V17.9808L285.041 20.6808C285.14 20.7429 285.221 20.8298 285.283 20.9415C285.357 21.0532 285.394 21.165 285.394 21.2767V23.3994C285.394 23.5112 285.357 23.5857 285.283 23.6229C285.221 23.6725 285.14 23.6663 285.041 23.6043L279.008 20.1967L272.974 23.6043ZM277.723 27.203C277.723 26.992 277.648 26.812 277.499 26.663C277.363 26.5265 277.189 26.4582 276.978 26.4582H275.172V33.7203C275.172 33.832 275.128 33.9251 275.041 33.9996C274.967 34.0865 274.874 34.1299 274.762 34.1299H273.012C272.9 34.1299 272.807 34.0865 272.732 33.9996C272.658 33.9251 272.621 33.832 272.621 33.7203V24.3168C272.621 24.2051 272.658 24.1058 272.732 24.0189C272.807 23.9444 272.9 23.9071 273.012 23.9071H276.978C277.437 23.9071 277.866 23.994 278.263 24.1678C278.66 24.3416 279.008 24.5775 279.306 24.8754C279.603 25.1734 279.839 25.5209 280.013 25.9182C280.187 26.3154 280.274 26.7437 280.274 27.203V29.0092V30.834C280.274 31.0451 280.342 31.2189 280.479 31.3554C280.628 31.5044 280.808 31.5789 281.019 31.5789H282.099C282.31 31.5789 282.483 31.5044 282.62 31.3554C282.757 31.2189 282.825 31.0451 282.825 30.834V27.203C282.825 26.992 282.757 26.812 282.62 26.663C282.483 26.5265 282.31 26.4582 282.099 26.4582H281.95C281.838 26.4582 281.745 26.4209 281.67 26.3465C281.596 26.272 281.559 26.1789 281.559 26.0671V24.3168C281.559 24.2051 281.596 24.1058 281.67 24.0189C281.745 23.9444 281.838 23.9071 281.95 23.9071H282.099C282.546 23.9071 282.968 23.994 283.365 24.1678C283.762 24.3416 284.11 24.5775 284.408 24.8754C284.706 25.1734 284.941 25.5209 285.115 25.9182C285.289 26.3154 285.376 26.7437 285.376 27.203V30.834C285.376 31.2809 285.289 31.703 285.115 32.1003C284.941 32.5099 284.706 32.8637 284.408 33.1616C284.11 33.4596 283.762 33.6954 283.365 33.8692C282.968 34.043 282.546 34.1299 282.099 34.1299H281.019C280.559 34.1299 280.131 34.043 279.734 33.8692C279.337 33.6954 278.989 33.4596 278.691 33.1616C278.393 32.8637 278.157 32.5099 277.983 32.1003C277.81 31.703 277.723 31.2809 277.723 30.834V29.0092V27.203ZM278.486 44.2831C278.486 44.3949 278.449 44.488 278.374 44.5624C278.3 44.6369 278.207 44.6742 278.095 44.6742H276.345C276.233 44.6742 276.134 44.6369 276.047 44.5624C275.972 44.488 275.935 44.3949 275.935 44.2831V43.7431H273.012C272.9 43.7431 272.807 43.7059 272.732 43.6314C272.658 43.5569 272.621 43.4638 272.621 43.3521V41.6017C272.621 41.49 272.658 41.3907 272.732 41.3038C272.807 41.2293 272.9 41.1921 273.012 41.1921H275.935V34.4886C275.935 34.3769 275.972 34.2838 276.047 34.2093C276.134 34.1349 276.233 34.0976 276.345 34.0976H278.095C278.207 34.0976 278.331 34.1162 278.468 34.1535C278.604 34.2031 278.722 34.2652 278.821 34.3397L285.059 39.1811C285.159 39.2431 285.233 39.3362 285.283 39.4604C285.345 39.5969 285.376 39.7211 285.376 39.8328V43.3521C285.376 43.4638 285.339 43.5569 285.264 43.6314C285.19 43.7059 285.097 43.7431 284.985 43.7431H278.486V44.2831ZM278.486 41.1921H283.607L278.486 37.2445V41.1921Z" fill="black"/>
</svg>
